<svg xmlns="http://www.w3.org/2000/svg" width="98" height="32" viewBox="0 0 98 32" fill="none"><path d="M13.8294 7.21289H0.251443V11.5346H9.0991C9.64913 11.5346 10.0892 11.9746 10.0892 12.5246V20.1779H8.20334C7.6533 20.1779 7.21328 19.7379 7.21328 19.1879V13.6876H3.47306C1.5558 13.6876 0 15.2434 0 17.1606V21.0266C0 22.9438 1.5558 24.4996 3.47306 24.4996H17.3024V10.6702C17.2867 8.7687 15.7466 7.21289 13.8294 7.21289Z" fill="white"></path><path d="M30.2679 20.1783H28.382C27.832 20.1783 27.392 19.7383 27.392 19.1883V7.21328H23.6518C21.7345 7.21328 20.1787 8.76909 20.1787 10.6863V21.0427C20.1787 22.9599 21.7345 24.5157 23.6518 24.5157H37.4811V0H30.2679V20.1783Z" fill="white"></path><path d="M50.4456 20.1779H48.5598C48.0098 20.1779 47.5697 19.7379 47.5697 19.1879V7.21289H40.3564V21.0423C40.3564 22.9595 41.9123 24.5153 43.8295 24.5153H50.4456V26.684H40.6079V31.7286H54.1858C56.1031 31.7286 57.6589 30.1728 57.6589 28.2555V7.21289H50.4456V20.1779Z" fill="white"></path><path d="M74.3489 7.21289H60.5195V21.0423C60.5195 22.9595 62.0753 24.5153 63.9926 24.5153H77.5705V20.1936H68.7229C68.1728 20.1936 67.7328 19.7536 67.7328 19.2036V11.5503H69.6186C70.1687 11.5503 70.6087 11.9903 70.6087 12.5403V18.0407H74.3489C76.2662 18.0407 77.822 16.4849 77.822 14.5676V10.7017C77.822 8.76869 76.2662 7.21289 74.3489 7.21289Z" fill="white"></path><path d="M94.5266 7.21289H80.6973V24.5153H87.9105V11.5503H89.7964C90.3464 11.5503 90.7864 11.9903 90.7864 12.5403V24.5153H97.9997V10.686C97.9997 8.7687 96.4439 7.21289 94.5266 7.21289Z" fill="white"></path></svg>