<svg xmlns="http://www.w3.org/2000/svg" width="131" height="29" viewBox="0 0 131 29" fill="none"><path d="M103.338 21.1714L101.935 20.582C101.121 20.2453 100.645 19.9647 100.645 19.4316C100.645 18.6179 101.374 18.4495 102.328 18.4495C103.282 18.4495 104.264 18.5617 105.611 18.9827C105.779 18.0567 105.779 17.1867 105.611 16.3731C104.769 15.924 103.198 15.6996 101.823 15.6996C99.1292 15.6996 97.0808 17.1587 97.0808 19.3475C97.0808 21.3116 97.9227 22.2938 100.28 23.2478L101.374 23.6968C102.412 24.1177 102.721 24.3701 102.721 25.0438C102.721 26.0539 101.711 26.222 100.869 26.222C99.466 26.222 98.3997 25.9415 97.0528 25.4646C96.8283 26.2783 96.8283 27.3446 97.0528 28.1864C98.2033 28.8037 99.7747 29 101.43 29C104.096 29 106.228 27.5972 106.228 25.0718C106.228 22.9954 105.331 22.0133 103.338 21.1714ZM78.4488 25.9697C77.8596 26.1379 77.4388 26.166 76.9617 26.166C74.6607 26.166 73.7628 24.6508 73.7628 22.4622C73.7628 20.0208 74.6607 18.5337 76.9337 18.5337C77.607 18.5337 78.028 18.6179 78.4488 18.7301V25.9697ZM78.4488 12.8936V15.9521C77.8315 15.7837 77.1862 15.7557 76.625 15.7557C72.7808 15.7557 70.1711 18.3373 70.1711 22.4622C70.1711 26.6713 72.7245 29 76.7092 29C78.5331 29 80.3288 28.7476 81.9282 28.2145V10.0594C80.9462 10.4244 79.908 10.9293 79.0382 11.6309C78.5892 11.9956 78.4488 12.3604 78.4488 12.8936ZM64.9801 26.1379C64.7836 26.1942 63.9137 26.2783 63.4929 26.2783C61.8934 26.2783 61.0236 25.8012 61.0236 24.6788C61.0236 23.5565 61.8934 23.1076 63.4929 23.1076C64.026 23.1076 64.6433 23.1637 64.9801 23.1917V26.1379ZM62.8755 15.6996C61.5005 15.6716 60.294 15.84 59.1154 16.1205C58.8909 16.9062 58.919 18.0567 59.1154 18.8704C60.5745 18.5337 61.3883 18.5055 62.3143 18.5055C64.1102 18.5055 64.9801 19.2353 64.9801 20.7223V20.8627C64.4468 20.8066 63.8016 20.7504 63.3526 20.7504C60.3781 20.7504 57.8247 21.8167 57.8247 24.6788C57.8247 27.9058 60.1256 29 63.4648 29C65.0361 29 66.7478 28.7195 68.3192 28.2425V20.975C68.3192 17.4954 66.4392 15.7837 62.8755 15.6996ZM114.169 26.1379C112.43 26.1379 111.279 24.7629 111.279 22.3498C111.279 20.0489 112.205 18.5617 114.197 18.5617C115.039 18.5617 115.628 18.7021 116.414 19.0108C116.639 18.225 117.059 17.327 117.648 16.5695C116.554 16.0083 115.488 15.6996 113.748 15.6996C109.904 15.6996 107.688 18.4214 107.688 22.3498C107.688 26.4186 109.96 29 113.889 29C115.32 29 116.639 28.7476 117.705 28.1582C117.227 27.5409 116.695 26.6992 116.386 25.7171C115.404 26.1099 114.983 26.1379 114.169 26.1379ZM87.3157 20.8347C87.5684 19.2913 88.4943 18.3653 89.8973 18.3653C91.4687 18.3653 92.086 19.4316 92.142 20.8347H87.3157ZM89.9534 15.6996C86.1933 15.6996 83.8924 18.225 83.8924 22.4341C83.8924 26.6431 86.3337 29 90.5146 29C91.9457 29 93.489 28.7476 94.471 28.2706C94.6676 27.4568 94.6676 26.3906 94.471 25.5768C93.1803 25.9415 92.086 26.166 90.8794 26.166C88.9433 26.166 87.5964 25.4364 87.3157 23.3881H95.2288C95.3409 23.0794 95.3691 22.0411 95.3691 21.6203C95.3691 17.8322 93.2364 15.6996 89.9534 15.6996ZM123.906 26.1942C121.971 26.1942 121.38 24.6227 121.38 22.3779C121.38 20.1892 121.971 18.5055 123.906 18.5055C125.899 18.5055 126.46 20.1331 126.46 22.3779C126.46 24.7351 125.815 26.1942 123.906 26.1942ZM123.906 15.6996C120.005 15.6996 117.818 18.3653 117.818 22.3779C117.818 26.4466 120.118 29 123.906 29C127.835 29 130.023 26.3906 130.023 22.3779C130.023 18.3373 127.835 15.6996 123.906 15.6996ZM17.7858 18.7143L15.4056 20.0841V28.8555L17.9622 28.8587C18.2138 28.8591 18.4177 28.6553 18.4177 28.4039V19.0413C18.4177 18.6825 18.0714 18.5516 17.7858 18.7143ZM14.3331 6.17562C12.5705 6.17562 10.6435 6.33762 8.73991 6.66125C10.6669 4.18719 13.722 2.59183 17.1297 2.59183C19.6443 2.59183 22.1589 3.53971 23.8509 4.95022C24.1564 5.20451 24.3916 5.22774 24.6265 4.99642C24.8615 4.76526 24.838 4.53394 24.5795 4.23342C22.3705 1.66692 19.1273 -0.0673149 15.2967 0.00200519C10.2908 0.0945625 6.03718 3.26219 4.4157 7.6556C2.93511 8.11797 1.57195 8.67292 0.373432 9.34339C0.0444031 9.52848 -0.0730188 9.75968 0.0444033 10.0372C0.161946 10.2915 0.397031 10.3839 0.72591 10.2915C1.75995 9.99087 2.81769 9.73656 3.92217 9.50524C3.80462 10.0834 3.73407 10.6846 3.73407 11.3088C3.64012 15.3553 5.80222 19.1936 9.13926 21.2977C9.4684 21.5059 9.75048 21.5059 9.93845 21.2515C10.1264 20.9972 10.1028 20.766 9.82091 20.5117C7.70577 18.6156 6.53071 15.7945 6.53071 12.9967C6.53071 11.5862 6.81278 10.2221 7.35327 8.99652C8.45787 8.90412 9.65641 8.83465 10.9725 8.83465C19.5267 8.83465 26.7415 11.6557 26.7415 15.3553C26.7415 17.2282 24.3679 19.1011 21.5478 20.3498C20.8663 20.6503 20.7958 20.8584 20.8899 21.1591C20.9838 21.4365 21.2892 21.529 21.6418 21.4134C26.577 19.7949 30.3138 17.1357 30.3138 13.9217C30.3138 9.55148 23.2635 6.17562 14.3331 6.17562ZM12.5084 22.091V28.5655C12.5084 28.7275 12.6397 28.8587 12.8018 28.8587H14.6027V20.5455L12.8048 21.5808C12.6215 21.6852 12.5084 21.8498 12.5084 22.091ZM56.4498 15.8679C54.7942 15.8679 53.8403 16.5133 52.9423 17.6638C52.8581 17.0746 52.7458 16.5976 52.5494 16.0083C52.2127 15.896 51.6234 15.8679 51.1185 15.8679C50.6414 15.8679 50.024 15.924 49.7154 16.0083V28.7195C50.1362 28.8319 50.8378 28.8597 51.455 28.8597C52.0444 28.8597 52.8301 28.8037 53.1948 28.7195V22.5182C53.1948 20.0489 54.4856 18.7301 56.2254 18.7301C56.534 18.7301 57.0672 18.7301 57.3759 18.7861C57.5721 17.9725 57.6002 16.7939 57.4319 15.9803C57.2356 15.924 56.7304 15.8679 56.4498 15.8679ZM40.6239 26.166C40.2591 26.166 39.6979 26.166 39.305 26.0258V19.0388C39.782 18.7861 40.4556 18.6458 41.3254 18.6458C43.0652 18.6458 43.9911 19.8525 43.9911 22.1254C43.9911 24.5104 42.8967 26.166 40.6239 26.166ZM41.9147 15.7557C40.9045 15.7557 39.9223 15.9803 39.305 16.289V10.0594C38.3229 10.4244 37.2847 10.9293 36.4148 11.6309C35.9659 11.9956 35.8255 12.3604 35.8255 12.8936V28.2706C36.7515 28.6635 38.6316 29 40.4275 29C44.9732 29 47.5828 26.222 47.5828 22.2095C47.5828 18.225 45.7308 15.7557 41.9147 15.7557Z" fill="white"></path></svg>