<svg xmlns="http://www.w3.org/2000/svg" width="119" height="21" viewBox="0 0 119 21" fill="none"><path d="M0 0.0120862C3.35008 0.0164189 6.70149 -0.0335011 10.05 0.0426975C12.6311 0.101471 14.6535 1.84208 15.0888 4.21959C15.5816 6.91094 14.175 9.20895 12.0051 9.82561C11.95 9.84124 11.9051 9.89201 11.8311 9.94334C13.8993 10.5312 15.1339 11.8903 15.4815 13.9266C16.0547 17.2863 14.1882 20.047 10.6618 20.4376C9.87966 20.524 9.08549 20.5219 8.29674 20.5259C5.53125 20.5405 2.76558 20.54 9.48187e-05 20.5453L0 0.0120862ZM4.45371 16.6252C4.5112 16.6448 4.5686 16.6814 4.62581 16.6814C6.01396 16.6837 7.40457 16.7326 8.78969 16.6674C10.223 16.5998 11.0753 15.7253 11.1133 14.4365C11.1515 13.1416 10.3643 12.2076 8.96055 12.0404C8.07322 11.9346 7.16692 11.9831 6.26906 11.9706C5.67413 11.9624 5.07891 11.9691 4.45371 11.9691V16.6252ZM4.42335 8.14839C5.71739 8.14839 6.94606 8.15056 8.17473 8.14651C8.41115 8.14566 8.65298 8.14764 8.88295 8.10167C9.75054 7.92874 10.4039 7.48709 10.6311 6.58928C10.9934 5.1579 10.0745 3.92129 8.58277 3.84792C7.88917 3.81392 7.19273 3.8385 6.49761 3.83784C5.82346 3.837 5.14911 3.83765 4.454 3.83765C4.44014 3.98591 4.42449 4.07633 4.4244 4.16675C4.42278 5.46703 4.42335 6.7673 4.42335 8.14839ZM79.8812 20.922C79.3575 20.8253 78.8284 20.7512 78.311 20.628C74.2605 19.6642 72.1966 16.2029 72.5505 12.3784C72.8469 9.17608 74.4729 6.83493 77.57 5.7511C81.8938 4.23786 86.9082 6.28091 87.648 11.9928C87.7456 12.7474 87.7409 13.5152 87.7874 14.3446H76.6211C76.88 15.7518 77.5947 16.739 78.8411 17.2637C80.8664 18.1165 82.7637 17.6914 84.5526 16.5483C84.6583 16.4808 84.7558 16.4005 84.8585 16.3279C84.8687 16.3208 84.8886 16.327 84.9602 16.327C85.5075 17.1267 86.0726 17.9527 86.7076 18.8808C86.1316 19.2375 85.6002 19.6242 85.0198 19.9137C83.9521 20.4463 82.8042 20.7287 81.6114 20.8273C81.4755 20.8385 81.3432 20.8894 81.2092 20.9219L79.8812 20.922ZM83.9333 11.6418C84.011 9.79763 82.2412 8.38932 80.0006 8.47711C78.1367 8.5501 76.4799 10.1171 76.6788 11.6418H83.9333ZM95.9144 20.922C95.27 20.7932 94.6151 20.7022 93.983 20.5291C90.9643 19.7023 88.8818 17.1679 88.6079 14.0703C88.3492 11.1485 89.2024 8.67227 91.5648 6.82899C95.1448 4.03583 102.181 4.66944 103.578 11.2782C103.678 11.7517 103.737 12.2378 103.767 12.721C103.799 13.234 103.775 13.7508 103.775 14.3443H92.6813C92.7779 15.1704 93.101 15.8347 93.6371 16.3841C94.8641 17.6413 96.3952 17.8779 98.0496 17.5897C99.104 17.4059 100.077 17.0083 100.953 16.2633L102.739 18.8624C102.274 19.1712 101.853 19.4978 101.39 19.7491C100.24 20.3738 98.9952 20.7035 97.692 20.8245C97.5405 20.8385 97.3925 20.8885 97.2428 20.9218C96.7998 20.922 96.3572 20.922 95.9144 20.922ZM92.7078 11.6391H99.9696C100.063 9.8516 98.3349 8.4318 96.1636 8.47391C94.2369 8.51111 92.5691 10.024 92.7078 11.6391ZM22.4844 20.922C22.0098 20.8255 21.5322 20.742 21.0612 20.6305C18.1441 19.9403 16.421 17.7724 16.4184 14.7925C16.4162 11.9361 16.418 9.07963 16.418 6.22327V5.71135H20.361V6.2568C20.361 8.95634 20.369 11.6558 20.3574 14.3552C20.352 15.5797 20.7293 16.6166 21.8979 17.1494C23.1645 17.7269 24.4616 17.7058 25.6333 16.8772C26.4916 16.2706 26.7342 15.3419 26.736 14.344C26.7412 11.6602 26.7379 8.9764 26.7379 6.29268V5.7025H30.6381L30.6382 6.23156C30.6382 9.05665 30.6396 11.8817 30.6378 14.7067C30.6358 18.1157 28.4986 20.459 25.0736 20.8163C24.9045 20.834 24.739 20.8857 24.5717 20.9216C23.8759 20.922 23.1801 20.922 22.4844 20.922ZM59.7154 20.4981V0.0259319H74.0578V2.01181C74.0578 2.45129 74.0281 2.89332 74.0661 3.3296C74.1039 3.764 73.9282 3.8483 73.5255 3.84604C70.6956 3.83003 67.8656 3.83756 65.0356 3.83756H64.1404V8.14839H64.6746C66.809 8.14839 68.9435 8.16054 71.0776 8.1384C71.5091 8.13398 71.61 8.27008 71.6001 8.67462C71.5737 9.75327 71.591 10.833 71.591 11.9657H64.1083V20.4981H59.7154ZM104.774 20.4901V19.9516C104.774 15.37 104.774 10.7888 104.774 6.20725C104.774 5.60586 104.775 5.60058 105.4 5.60633C107.564 5.62611 109.737 5.53456 111.889 5.70005C114.957 5.93571 117.358 7.30738 118.495 10.3137C119.65 13.3686 118.769 16.8551 116.422 18.7652C115.039 19.8904 113.412 20.4445 111.66 20.5073C109.434 20.5872 107.204 20.5325 104.976 20.5341C104.931 20.5342 104.885 20.5152 104.774 20.4901ZM108.534 17.3481C109.29 17.3481 109.997 17.3483 110.705 17.3481C113.251 17.3472 114.855 15.9226 115.14 13.4073C115.345 11.6013 114.361 9.80507 112.794 9.16732C111.414 8.60577 109.972 8.90435 108.534 8.82495C108.534 11.6929 108.534 14.4813 108.534 17.3481ZM38.5868 9.05533H31.9061V5.696H43.9837C43.9837 6.32979 43.9517 6.9667 43.9931 7.59908C44.0313 8.18201 43.8526 8.63233 43.482 9.08999C41.4733 11.5717 39.4962 14.0783 37.5089 16.5769C37.4023 16.7109 37.3008 16.849 37.1347 17.0667H44.0639V20.4906H31.8695C31.8695 19.5554 31.8556 18.6206 31.8826 17.6868C31.8872 17.5265 32.0494 17.3594 32.1638 17.215C34.2026 14.637 36.2456 12.0622 38.2864 9.48568C38.3714 9.37821 38.4438 9.26085 38.5868 9.05533ZM45.1431 9.0591C45.1431 7.99901 45.1422 7.02726 45.1446 6.05542C45.1448 5.94824 45.1626 5.84105 45.1753 5.70203H57.2155C57.2155 6.6052 57.2255 7.49387 57.205 8.38188C57.2019 8.51573 57.0689 8.65673 56.9737 8.77682C54.9005 11.3889 52.824 13.9983 50.7492 16.6091C50.6468 16.738 50.5553 16.8757 50.3958 17.0963H51.0002C52.9599 17.0963 54.9199 17.1045 56.8798 17.0893C57.2439 17.0865 57.3799 17.1753 57.3692 17.5606C57.3426 18.5297 57.3604 19.5001 57.3604 20.4992H45.1549C45.1549 19.5314 45.1471 18.5796 45.1648 17.6284C45.1669 17.5091 45.2929 17.3846 45.3788 17.2761C47.3696 14.7594 49.363 12.2448 51.3557 9.72935C51.5078 9.53711 51.6568 9.34233 51.8769 9.05901L45.1431 9.0591Z" fill="white"></path></svg>