<svg xmlns="http://www.w3.org/2000/svg" width="123" height="24" viewBox="0 0 123 24" fill="none"><path d="M9.63466 3.75002C8.19235 3.75002 7.75965 4.38464 7.75965 5.7981V8.13465H11.6251L11.2501 11.9424H7.75965V23.452H3.1154V11.9424H0V8.1635H3.1154V5.88464C3.1154 2.01924 4.6731 0 8.9712 0C9.86543 0 10.7885 0.0576926 11.6827 0.173078V3.75002" fill="white"></path><path d="M11.9419 15.3167C11.9419 11.0475 13.9612 7.81671 18.2304 7.81671C20.5381 7.81671 21.9516 8.99941 22.6439 10.4994V8.16287H27.0863V23.4802H22.6151V21.1725C21.9805 22.6437 20.5093 23.7976 18.2016 23.7976C13.9612 23.7976 11.9131 20.5956 11.9131 16.2975L11.9419 15.3167ZM16.5862 16.3552C16.5862 18.6341 17.4227 20.1629 19.5862 20.1629C21.4901 20.1629 22.442 18.7783 22.442 16.586V15.0283C22.442 12.836 21.4612 11.4513 19.5862 11.4513C17.4227 11.4513 16.5862 12.9513 16.5862 15.2591V16.3552Z" fill="white"></path><path d="M36.7212 7.81671C38.5097 7.81671 40.2405 8.19171 41.1635 8.85518L40.1251 12.1437C39.1732 11.6821 38.1058 11.4513 37.0385 11.4513C34.5289 11.4513 33.4328 12.8937 33.4328 15.3744V16.2687C33.4328 18.7495 34.5289 20.1918 37.0385 20.1918C38.1058 20.1918 39.1732 19.9321 40.1251 19.4706L41.1635 22.7591C40.2405 23.3937 38.5385 23.7976 36.7212 23.7976C31.2693 23.7976 28.8174 20.8841 28.8174 16.1821V15.461C28.8174 10.759 31.2693 7.81671 36.7212 7.81671Z" fill="white"></path><path d="M41.7695 16.3841V15.0283C41.7695 10.6725 44.2503 7.81671 49.2984 7.81671C54.058 7.81671 56.1638 10.7013 56.1638 14.9706V17.4225H46.4138C46.5003 19.5283 47.4522 20.4514 50.0195 20.4514C51.6926 20.4514 53.3657 20.1341 54.9523 19.5283L55.7888 22.7014C54.5773 23.336 52.0676 23.8264 49.8465 23.8264C43.9618 23.7975 41.7695 20.8841 41.7695 16.3841ZM46.4138 14.3648H52.0099V13.9898C52.0099 12.3167 51.3465 10.9898 49.2984 10.9898C47.2215 10.9898 46.4138 12.3167 46.4138 14.3648Z" fill="white"></path><path d="M73.3564 16.2978C73.3564 20.5671 71.3083 23.7978 67.039 23.7978C64.7313 23.7978 63.1159 22.644 62.4813 21.1728V23.4805H58.0967V0.461191L62.7409 0.0573425V10.2978C63.4044 8.942 64.9044 7.84584 67.0679 7.84584C71.3083 7.84584 73.3852 11.0478 73.3852 15.3459L73.3564 16.2978ZM68.7121 15.2305C68.7121 13.067 67.8756 11.4516 65.6544 11.4516C63.7506 11.4516 62.7409 12.8074 62.7409 14.9997V16.6151C62.7409 18.8074 63.7794 20.1632 65.6544 20.1632C67.8756 20.1632 68.7121 18.5478 68.7121 16.3843V15.2305Z" fill="white"></path><path d="M74.8848 16.1821V15.4033C74.8848 10.9898 77.3944 7.81671 82.5003 7.81671C87.6061 7.81671 90.1158 10.9898 90.1158 15.4033V16.1821C90.1158 20.5956 87.6061 23.7687 82.5003 23.7687C77.3944 23.7687 74.8848 20.6245 74.8848 16.1821ZM85.5003 15.086C85.5003 13.0667 84.6638 11.4513 82.5003 11.4513C80.3368 11.4513 79.5002 13.0667 79.5002 15.086V16.5283C79.5002 18.5475 80.3368 20.1629 82.5003 20.1629C84.6638 20.1629 85.5003 18.5475 85.5003 16.5283V15.086Z" fill="white"></path><path d="M91.7021 16.1821V15.4033C91.7021 10.9898 94.2118 7.81671 99.3176 7.81671C104.423 7.81671 106.933 10.9898 106.933 15.4033V16.1821C106.933 20.5956 104.423 23.7687 99.3176 23.7687C94.2118 23.7687 91.7021 20.6245 91.7021 16.1821ZM102.318 15.086C102.318 13.0667 101.481 11.4513 99.3176 11.4513C97.1541 11.4513 96.3176 13.0667 96.3176 15.086V16.5283C96.3176 18.5475 97.1541 20.1629 99.3176 20.1629C101.481 20.1629 102.318 18.5475 102.318 16.5283V15.086Z" fill="white"></path><path d="M113.308 15.4619L117.894 8.13492H122.798L118.01 15.7215L123 23.4811H118.067L113.308 15.9811V23.4811H108.692V0.461808L113.308 0.0291138" fill="white"></path></svg>