<svg xmlns="http://www.w3.org/2000/svg" width="277" height="73" viewBox="0 0 277 73" fill="none"><path d="M32.1517 9.06836H277L265.098 36.7121L277 62.6547H32.1517V9.06836Z" fill="#45842E"></path><path d="M267.599 12.3662H270.569V12.8662H271.27L270.896 13.6706L271.35 13.8813L269.942 16.9115L269.489 16.7008L268.081 19.731L268.534 19.9417L267.127 22.9718L266.673 22.7612L265.266 25.7914L265.719 26.002L264.311 29.0322L263.858 28.8215L262.45 31.8517L262.904 32.0624L261.496 35.0925L261.043 34.8819L260.339 36.397L260.238 36.6145L260.344 36.8295L261.048 38.2513L261.496 38.0295L262.904 40.8732L262.456 41.095L263.863 43.9387L264.311 43.7169L265.719 46.5606L265.271 46.7824L266.679 49.6261L267.127 49.4043L268.534 52.248L268.086 52.4698L269.494 55.3135L269.942 55.0917L271.35 57.9354L270.902 58.1572L271.248 58.8573H270.568V59.3573H267.599V58.8573H264.629V59.3573H261.659V58.8573H258.689V59.3573H255.719V58.8573H252.749V59.3573H249.779V58.8573H246.809V59.3573H243.839V58.8573H240.869V59.3573H237.899V58.8573H234.929V59.3573H231.959V58.8573H228.989V59.3573H226.019V58.8573H223.049V59.3573H220.079V58.8573H217.109V59.3573H214.139V58.8573H211.169V59.3573H208.199V58.8573H205.229V59.3573H202.259V58.8573H199.289V59.3573H196.319V58.8573H193.349V59.3573H190.379V58.8573H187.409V59.3573H184.439V58.8573H181.469V59.3573H178.499V58.8573H175.529V59.3573H172.559V58.8573H169.589V59.3573H166.62V58.8573H163.65V59.3573H160.68V58.8573H157.71V59.3573H154.74V58.8573H151.77V59.3573H148.8V58.8573H145.83V59.3573H142.86V58.8573H139.89V59.3573H136.92V58.8573H133.95V59.3573H130.98V58.8573H128.01V59.3573H125.04V58.8573H122.07V59.3573H119.1V58.8573H116.13V59.3573H113.16V58.8573H110.19V59.3573H107.22V58.8573H104.25V59.3573H101.28V58.8573H98.3102V59.3573H95.3402V58.8573H92.3702V59.3573H89.4003V58.8573H86.4303V59.3573H83.4603V58.8573H80.4904V59.3573H77.5204V58.8573H74.5504V59.3573H71.5804V58.8573H68.6105V59.3573H65.6405V58.8573H62.6705V59.3573H59.7006V58.8573H56.7306V59.3573H53.7606V58.8573H50.7907V59.3573H47.8207V58.8573H44.8507V59.3573H41.8807V58.8573H40.8958V57.8888H40.3958V54.9519H40.8958V52.0149H40.3958V49.078H40.8958V46.141H40.3958V43.2041H40.8958V40.2672H40.3958V37.3302H40.8958V34.3933H40.3958V31.4563H40.8958V28.5194H40.3958V25.5824H40.8958V22.6455H40.3958V19.7086H40.8958V16.7716H40.3958V13.8347H40.8958V12.8662H41.8807V12.3662H44.8507V12.8662H47.8207V12.3662H50.7907V12.8662H53.7606V12.3662H56.7306V12.8662H59.7006V12.3662H62.6706V12.8662H65.6405V12.3662H68.6105V12.8662H71.5805V12.3662H74.5504V12.8662H77.5204V12.3662H80.4904V12.8662H83.4603V12.3662H86.4303V12.8662H89.4003V12.3662H92.3703V12.8662H95.3402V12.3662H98.3102V12.8662H101.28V12.3662H104.25V12.8662H107.22V12.3662H110.19V12.8662H113.16V12.3662H116.13V12.8662H119.1V12.3662H122.07V12.8662H125.04V12.3662H128.01V12.8662H130.98V12.3662H133.95V12.8662H136.92V12.3662H139.89V12.8662H142.86V12.3662H145.83V12.8662H148.8V12.3662H151.77V12.8662H154.74V12.3662H157.71V12.8662H160.68V12.3662H163.65V12.8662H166.62V12.3662H169.589V12.8662H172.559V12.3662H175.529V12.8662H178.499V12.3662H181.469V12.8662H184.439V12.3662H187.409V12.8662H190.379V12.3662H193.349V12.8662H196.319V12.3662H199.289V12.8662H202.259V12.3662H205.229V12.8662H208.199V12.3662H211.169V12.8662H214.139V12.3662H217.109V12.8662H220.079V12.3662H223.049V12.8662H226.019V12.3662H228.989V12.8662H231.959V12.3662H234.929V12.8662H237.899V12.3662H240.869V12.8662H243.839V12.3662H246.809V12.8662H249.779V12.3662H252.749V12.8662H255.719V12.3662H258.689V12.8662H261.659V12.3662H264.629V12.8662H267.599V12.3662Z" stroke="white" stroke-dasharray="3 3"></path><path d="M91.3771 27.0206C91.6233 27.0206 91.8167 27.091 91.9574 27.2317C92.1069 27.3636 92.1817 27.5483 92.1817 27.7857V30.3578C92.1817 30.7096 92.1509 30.9822 92.0893 31.1756C92.0366 31.3691 91.9399 31.523 91.7992 31.6373C91.6585 31.7516 91.4474 31.8483 91.166 31.9275C90.8231 32.033 90.4273 32.1166 89.9789 32.1781C89.5392 32.2397 89.1215 32.2704 88.7258 32.2704C87.7409 32.2704 86.8879 32.0814 86.1668 31.7033C85.4457 31.3163 84.8917 30.7667 84.5048 30.0544C84.1179 29.3334 83.9244 28.4804 83.9244 27.4955C83.9244 26.5282 84.1135 25.6884 84.4916 24.9761C84.8785 24.255 85.4282 23.701 86.1404 23.3141C86.8527 22.9272 87.6837 22.7337 88.6334 22.7337C89.8558 22.7337 90.867 23.0503 91.6672 23.6834C91.7992 23.789 91.8915 23.8945 91.9442 24C91.997 24.1055 92.0234 24.2374 92.0234 24.3957C92.0234 24.6244 91.9574 24.8222 91.8255 24.9893C91.7024 25.1476 91.5529 25.2267 91.3771 25.2267C91.2627 25.2267 91.1572 25.2091 91.0605 25.174C90.9725 25.1388 90.8626 25.0816 90.7307 25.0025C90.3614 24.7739 90.0228 24.6112 89.7151 24.5144C89.4073 24.4177 89.0687 24.3693 88.6994 24.3693C86.9055 24.3693 86.0085 25.4114 86.0085 27.4955C86.0085 28.5683 86.2416 29.3685 86.7076 29.8962C87.1737 30.4238 87.8772 30.6876 88.8181 30.6876C89.3281 30.6876 89.8338 30.6216 90.335 30.4897V28.4452H89.1215C88.8665 28.4452 88.6686 28.3836 88.5279 28.2605C88.3872 28.1374 88.3169 27.9616 88.3169 27.7329C88.3169 27.5043 88.3872 27.3284 88.5279 27.2053C88.6686 27.0822 88.8665 27.0206 89.1215 27.0206H91.3771Z" fill="white"></path><path d="M96.6833 25.5169C97.6331 25.5169 98.3365 25.75 98.7938 26.216C99.2511 26.6733 99.4797 27.3768 99.4797 28.3265V31.3075C99.4797 31.5977 99.3962 31.8264 99.2291 31.9934C99.062 32.1517 98.829 32.2309 98.53 32.2309C98.2486 32.2309 98.02 32.1473 97.8441 31.9803C97.677 31.8044 97.5935 31.5801 97.5935 31.3075V31.2152C97.4616 31.5406 97.2417 31.7956 96.934 31.9803C96.6262 32.1649 96.2656 32.2573 95.8523 32.2573C95.4127 32.2573 95.0125 32.1693 94.652 31.9934C94.3003 31.8176 94.0189 31.5713 93.8078 31.2548C93.6056 30.9382 93.5044 30.5865 93.5044 30.1995C93.5044 29.7247 93.6231 29.351 93.8606 29.0783C94.1068 28.8057 94.4981 28.6079 95.0345 28.4848C95.5709 28.3617 96.3052 28.3001 97.2373 28.3001H97.5803V28.0627C97.5803 27.6933 97.4968 27.4251 97.3297 27.2581C97.1714 27.091 96.9032 27.0074 96.5251 27.0074C96.1469 27.0074 95.6017 27.1393 94.8894 27.4032C94.6872 27.4999 94.5157 27.5483 94.375 27.5483C94.1815 27.5483 94.0277 27.4823 93.9133 27.3504C93.799 27.2097 93.7419 27.0294 93.7419 26.8096C93.7419 26.6337 93.7814 26.4886 93.8606 26.3743C93.9397 26.26 94.0672 26.1545 94.2431 26.0577C94.5509 25.8906 94.9246 25.7587 95.3643 25.662C95.8128 25.5653 96.2524 25.5169 96.6833 25.5169ZM96.2876 30.8854C96.6745 30.8854 96.9867 30.7579 97.2241 30.5029C97.4616 30.2391 97.5803 29.9006 97.5803 29.4873V29.263H97.3561C96.6438 29.263 96.1425 29.3202 95.8523 29.4345C95.5709 29.5488 95.4302 29.7555 95.4302 30.0544C95.4302 30.3007 95.5094 30.5029 95.6677 30.6612C95.8348 30.8107 96.0414 30.8854 96.2876 30.8854Z" fill="white"></path><path d="M105.032 25.5169C105.805 25.5169 106.381 25.7456 106.76 26.2028C107.138 26.6513 107.327 27.3328 107.327 28.2473V31.2943C107.327 31.5845 107.234 31.8132 107.05 31.9803C106.874 32.1473 106.632 32.2309 106.324 32.2309C106.016 32.2309 105.775 32.1473 105.599 31.9803C105.423 31.8132 105.335 31.5845 105.335 31.2943V28.3397C105.335 27.9 105.251 27.579 105.084 27.3768C104.926 27.1745 104.675 27.0734 104.332 27.0734C103.919 27.0734 103.585 27.2053 103.33 27.4691C103.084 27.7329 102.961 28.0847 102.961 28.5243V31.2943C102.961 31.5845 102.873 31.8132 102.697 31.9803C102.521 32.1473 102.279 32.2309 101.971 32.2309C101.664 32.2309 101.417 32.1473 101.233 31.9803C101.057 31.8132 100.969 31.5845 100.969 31.2943V26.4534C100.969 26.1808 101.061 25.961 101.246 25.7939C101.439 25.6268 101.686 25.5433 101.985 25.5433C102.257 25.5433 102.477 25.6268 102.644 25.7939C102.82 25.9522 102.908 26.1589 102.908 26.4139V26.5985C103.137 26.2468 103.431 25.9786 103.792 25.7939C104.161 25.6093 104.574 25.5169 105.032 25.5169Z" fill="white"></path><path d="M112.916 25.5169C114.42 25.5169 115.171 26.4271 115.171 28.2473V31.2943C115.171 31.5845 115.079 31.8132 114.894 31.9803C114.719 32.1473 114.477 32.2309 114.169 32.2309C113.861 32.2309 113.619 32.1473 113.443 31.9803C113.268 31.8132 113.18 31.5845 113.18 31.2943V28.221C113.18 27.834 113.096 27.5483 112.929 27.3636C112.771 27.1701 112.52 27.0734 112.177 27.0734C111.764 27.0734 111.43 27.2053 111.175 27.4691C110.929 27.7329 110.805 28.0847 110.805 28.5243V31.2943C110.805 31.5845 110.717 31.8132 110.542 31.9803C110.366 32.1473 110.124 32.2309 109.816 32.2309C109.508 32.2309 109.262 32.1473 109.077 31.9803C108.902 31.8132 108.814 31.5845 108.814 31.2943V23.6966C108.814 23.424 108.906 23.2042 109.091 23.0371C109.284 22.87 109.535 22.7865 109.842 22.7865C110.133 22.7865 110.366 22.8656 110.542 23.0239C110.717 23.1822 110.805 23.3933 110.805 23.6571V26.5326C111.034 26.1984 111.329 25.9478 111.689 25.7807C112.05 25.6049 112.459 25.5169 112.916 25.5169Z" fill="white"></path><path d="M121.855 30.2259C122.031 30.2259 122.172 30.2963 122.277 30.437C122.392 30.5777 122.449 30.7579 122.449 30.9778C122.449 31.1273 122.405 31.268 122.317 31.3999C122.229 31.523 122.106 31.6285 121.948 31.7164C121.649 31.8747 121.301 32.0066 120.906 32.1122C120.51 32.2089 120.145 32.2573 119.811 32.2573C119.107 32.2573 118.492 32.121 117.964 31.8483C117.445 31.5757 117.045 31.1888 116.764 30.6876C116.482 30.1776 116.342 29.5796 116.342 28.8937C116.342 28.2342 116.478 27.6494 116.751 27.1393C117.023 26.6293 117.401 26.2336 117.885 25.9522C118.369 25.662 118.918 25.5169 119.534 25.5169C120.123 25.5169 120.637 25.6488 121.077 25.9126C121.526 26.1676 121.873 26.537 122.119 27.0206C122.365 27.4955 122.489 28.0539 122.489 28.6958C122.489 28.8893 122.44 29.0388 122.343 29.1443C122.256 29.241 122.128 29.2894 121.961 29.2894H118.268C118.329 29.8082 118.487 30.1863 118.742 30.4238C118.997 30.6524 119.362 30.7667 119.837 30.7667C120.092 30.7667 120.321 30.736 120.523 30.6744C120.725 30.6128 120.95 30.5293 121.196 30.4238C121.319 30.371 121.438 30.327 121.552 30.2919C121.666 30.2479 121.767 30.2259 121.855 30.2259ZM119.587 26.8887C119.209 26.8887 118.905 27.0118 118.676 27.2581C118.448 27.4955 118.312 27.8428 118.268 28.3001H120.813C120.787 27.834 120.668 27.4823 120.457 27.2449C120.255 27.0074 119.965 26.8887 119.587 26.8887Z" fill="white"></path><path d="M130.977 30.7799C131.24 30.7975 131.434 30.8635 131.557 30.9778C131.68 31.0921 131.742 31.2592 131.742 31.479C131.742 31.734 131.641 31.9275 131.438 32.0594C131.236 32.1913 130.946 32.2441 130.568 32.2177L130.198 32.1913C128.659 32.0682 127.89 31.2636 127.89 29.7774V27.1657H127.362C127.072 27.1657 126.852 27.1042 126.703 26.9811C126.553 26.8492 126.479 26.6645 126.479 26.4271C126.479 26.1808 126.553 25.9962 126.703 25.8731C126.852 25.7412 127.072 25.6752 127.362 25.6752H127.89V24.6463C127.89 24.3562 127.978 24.1275 128.154 23.9604C128.339 23.7934 128.585 23.7098 128.893 23.7098C129.2 23.7098 129.442 23.7934 129.618 23.9604C129.794 24.1275 129.882 24.3562 129.882 24.6463V25.6752H130.805C131.403 25.6752 131.702 25.9258 131.702 26.4271C131.702 26.6645 131.627 26.8492 131.478 26.9811C131.328 27.1042 131.104 27.1657 130.805 27.1657H129.882V29.9225C129.882 30.1863 129.943 30.3886 130.066 30.5293C130.19 30.6612 130.37 30.736 130.607 30.7535L130.977 30.7799Z" fill="white"></path><path d="M135.392 25.5169C136.341 25.5169 137.045 25.75 137.502 26.216C137.959 26.6733 138.188 27.3768 138.188 28.3265V31.3075C138.188 31.5977 138.105 31.8264 137.937 31.9934C137.77 32.1517 137.537 32.2309 137.238 32.2309C136.957 32.2309 136.728 32.1473 136.552 31.9803C136.385 31.8044 136.302 31.5801 136.302 31.3075V31.2152C136.17 31.5406 135.95 31.7956 135.642 31.9803C135.335 32.1649 134.974 32.2573 134.561 32.2573C134.121 32.2573 133.721 32.1693 133.36 31.9934C133.009 31.8176 132.727 31.5713 132.516 31.2548C132.314 30.9382 132.213 30.5865 132.213 30.1995C132.213 29.7247 132.332 29.351 132.569 29.0783C132.815 28.8057 133.206 28.6079 133.743 28.4848C134.279 28.3617 135.014 28.3001 135.946 28.3001H136.289V28.0627C136.289 27.6933 136.205 27.4251 136.038 27.2581C135.88 27.091 135.612 27.0074 135.233 27.0074C134.855 27.0074 134.31 27.1393 133.598 27.4032C133.396 27.4999 133.224 27.5483 133.083 27.5483C132.89 27.5483 132.736 27.4823 132.622 27.3504C132.507 27.2097 132.45 27.0294 132.45 26.8096C132.45 26.6337 132.49 26.4886 132.569 26.3743C132.648 26.26 132.776 26.1545 132.951 26.0577C133.259 25.8906 133.633 25.7587 134.073 25.662C134.521 25.5653 134.961 25.5169 135.392 25.5169ZM134.996 30.8854C135.383 30.8854 135.695 30.7579 135.933 30.5029C136.17 30.2391 136.289 29.9006 136.289 29.4873V29.263H136.064C135.352 29.263 134.851 29.3202 134.561 29.4345C134.279 29.5488 134.139 29.7555 134.139 30.0544C134.139 30.3007 134.218 30.5029 134.376 30.6612C134.543 30.8107 134.75 30.8854 134.996 30.8854Z" fill="white"></path><path d="M147.658 25.5169C148.361 25.5169 148.902 25.7324 149.28 26.1633C149.658 26.5853 149.847 27.28 149.847 28.2473V31.2943C149.847 31.6021 149.755 31.8352 149.57 31.9934C149.385 32.1517 149.148 32.2309 148.858 32.2309C148.576 32.2309 148.339 32.1517 148.146 31.9934C147.952 31.8352 147.855 31.6021 147.855 31.2943V28.221C147.855 27.7989 147.781 27.5043 147.631 27.3372C147.49 27.1613 147.271 27.0734 146.972 27.0734C146.602 27.0734 146.308 27.2009 146.088 27.4559C145.868 27.7109 145.758 28.0671 145.758 28.5243V31.2943C145.758 31.6021 145.666 31.8352 145.481 31.9934C145.296 32.1517 145.059 32.2309 144.769 32.2309C144.487 32.2309 144.25 32.1517 144.057 31.9934C143.863 31.8352 143.766 31.6021 143.766 31.2943V28.221C143.766 27.7989 143.692 27.5043 143.542 27.3372C143.401 27.1613 143.182 27.0734 142.883 27.0734C142.513 27.0734 142.219 27.2009 141.999 27.4559C141.779 27.7109 141.669 28.0671 141.669 28.5243V31.2943C141.669 31.6021 141.572 31.8352 141.379 31.9934C141.194 32.1517 140.961 32.2309 140.68 32.2309C140.398 32.2309 140.161 32.1517 139.967 31.9934C139.774 31.8352 139.677 31.6021 139.677 31.2943V26.4534C139.677 26.1633 139.774 25.939 139.967 25.7807C140.17 25.6224 140.412 25.5433 140.693 25.5433C140.957 25.5433 141.177 25.6224 141.352 25.7807C141.528 25.9302 141.616 26.1413 141.616 26.4139V26.5458C141.827 26.2116 142.1 25.9566 142.434 25.7807C142.777 25.6049 143.164 25.5169 143.595 25.5169C144.061 25.5169 144.452 25.6136 144.769 25.8071C145.094 25.9918 145.345 26.2952 145.521 26.7173C145.723 26.3479 146.009 26.0577 146.378 25.8467C146.756 25.6268 147.183 25.5169 147.658 25.5169Z" fill="white"></path><path d="M155.358 25.5169C155.92 25.5169 156.417 25.6532 156.848 25.9258C157.279 26.1984 157.613 26.5897 157.851 27.0998C158.097 27.601 158.22 28.1858 158.22 28.8541C158.22 29.5224 158.097 30.116 157.851 30.6348C157.613 31.1449 157.275 31.545 156.835 31.8352C156.404 32.1166 155.912 32.2573 155.358 32.2573C154.909 32.2573 154.505 32.1649 154.144 31.9803C153.784 31.7868 153.507 31.523 153.313 31.1888V31.2943C153.313 31.5757 153.225 31.8044 153.049 31.9803C152.873 32.1473 152.636 32.2309 152.337 32.2309C152.038 32.2309 151.796 32.1473 151.612 31.9803C151.436 31.8044 151.348 31.5757 151.348 31.2943V23.6966C151.348 23.424 151.44 23.2042 151.625 23.0371C151.818 22.87 152.069 22.7865 152.377 22.7865C152.667 22.7865 152.9 22.8656 153.076 23.0239C153.252 23.1822 153.34 23.3933 153.34 23.6571V26.5458C153.533 26.2204 153.806 25.9698 154.157 25.7939C154.518 25.6093 154.918 25.5169 155.358 25.5169ZM154.777 30.7403C155.243 30.7403 155.604 30.5777 155.859 30.2523C156.114 29.9181 156.241 29.4521 156.241 28.8541C156.241 28.2649 156.114 27.8165 155.859 27.5087C155.604 27.1921 155.243 27.0338 154.777 27.0338C154.311 27.0338 153.951 27.1965 153.696 27.5219C153.441 27.8384 153.313 28.2913 153.313 28.8805C153.313 29.4785 153.441 29.9401 153.696 30.2655C153.951 30.5821 154.311 30.7403 154.777 30.7403Z" fill="white"></path><path d="M164.634 30.2259C164.81 30.2259 164.951 30.2963 165.056 30.437C165.171 30.5777 165.228 30.7579 165.228 30.9778C165.228 31.1273 165.184 31.268 165.096 31.3999C165.008 31.523 164.885 31.6285 164.727 31.7164C164.428 31.8747 164.08 32.0066 163.685 32.1122C163.289 32.2089 162.924 32.2573 162.59 32.2573C161.886 32.2573 161.271 32.121 160.743 31.8483C160.224 31.5757 159.824 31.1888 159.543 30.6876C159.261 30.1776 159.121 29.5796 159.121 28.8937C159.121 28.2342 159.257 27.6494 159.53 27.1393C159.802 26.6293 160.18 26.2336 160.664 25.9522C161.148 25.662 161.697 25.5169 162.313 25.5169C162.902 25.5169 163.416 25.6488 163.856 25.9126C164.305 26.1676 164.652 26.537 164.898 27.0206C165.144 27.4955 165.267 28.0539 165.267 28.6958C165.267 28.8893 165.219 29.0388 165.122 29.1443C165.034 29.241 164.907 29.2894 164.74 29.2894H161.046C161.108 29.8082 161.266 30.1863 161.521 30.4238C161.776 30.6524 162.141 30.7667 162.616 30.7667C162.871 30.7667 163.1 30.736 163.302 30.6744C163.504 30.6128 163.729 30.5293 163.975 30.4238C164.098 30.371 164.217 30.327 164.331 30.2919C164.445 30.2479 164.546 30.2259 164.634 30.2259ZM162.366 26.8887C161.987 26.8887 161.684 27.0118 161.455 27.2581C161.227 27.4955 161.09 27.8428 161.046 28.3001H163.592C163.566 27.834 163.447 27.4823 163.236 27.2449C163.034 27.0074 162.744 26.8887 162.366 26.8887ZM162.695 24.7783C162.59 24.8574 162.475 24.897 162.352 24.897C162.212 24.897 162.093 24.8486 161.996 24.7519C161.899 24.6551 161.851 24.5408 161.851 24.4089C161.851 24.2946 161.891 24.1803 161.97 24.066L163.104 22.5491C163.324 22.2501 163.588 22.1006 163.896 22.1006C164.115 22.1006 164.309 22.1797 164.476 22.338C164.643 22.4963 164.727 22.681 164.727 22.892C164.727 23.1558 164.586 23.3933 164.305 23.6043L162.695 24.7783Z" fill="white"></path><path d="M174.451 25.5169C175.154 25.5169 175.695 25.7324 176.073 26.1633C176.451 26.5853 176.64 27.28 176.64 28.2473V31.2943C176.64 31.6021 176.548 31.8352 176.363 31.9934C176.179 32.1517 175.941 32.2309 175.651 32.2309C175.37 32.2309 175.132 32.1517 174.939 31.9934C174.745 31.8352 174.649 31.6021 174.649 31.2943V28.221C174.649 27.7989 174.574 27.5043 174.424 27.3372C174.284 27.1613 174.064 27.0734 173.765 27.0734C173.395 27.0734 173.101 27.2009 172.881 27.4559C172.661 27.7109 172.551 28.0671 172.551 28.5243V31.2943C172.551 31.6021 172.459 31.8352 172.274 31.9934C172.09 32.1517 171.852 32.2309 171.562 32.2309C171.281 32.2309 171.043 32.1517 170.85 31.9934C170.656 31.8352 170.559 31.6021 170.559 31.2943V28.221C170.559 27.7989 170.485 27.5043 170.335 27.3372C170.195 27.1613 169.975 27.0734 169.676 27.0734C169.306 27.0734 169.012 27.2009 168.792 27.4559C168.572 27.7109 168.462 28.0671 168.462 28.5243V31.2943C168.462 31.6021 168.365 31.8352 168.172 31.9934C167.987 32.1517 167.754 32.2309 167.473 32.2309C167.192 32.2309 166.954 32.1517 166.761 31.9934C166.567 31.8352 166.47 31.6021 166.47 31.2943V26.4534C166.47 26.1633 166.567 25.939 166.761 25.7807C166.963 25.6224 167.205 25.5433 167.486 25.5433C167.75 25.5433 167.97 25.6224 168.146 25.7807C168.321 25.9302 168.409 26.1413 168.409 26.4139V26.5458C168.62 26.2116 168.893 25.9566 169.227 25.7807C169.57 25.6049 169.957 25.5169 170.388 25.5169C170.854 25.5169 171.245 25.6136 171.562 25.8071C171.887 25.9918 172.138 26.2952 172.314 26.7173C172.516 26.3479 172.802 26.0577 173.171 25.8467C173.549 25.6268 173.976 25.5169 174.451 25.5169Z" fill="white"></path><path d="M184.74 25.5169C185.69 25.5169 186.393 25.75 186.851 26.216C187.308 26.6733 187.536 27.3768 187.536 28.3265V31.3075C187.536 31.5977 187.453 31.8264 187.286 31.9934C187.119 32.1517 186.886 32.2309 186.587 32.2309C186.305 32.2309 186.077 32.1473 185.901 31.9803C185.734 31.8044 185.65 31.5801 185.65 31.3075V31.2152C185.518 31.5406 185.298 31.7956 184.991 31.9803C184.683 32.1649 184.322 32.2573 183.909 32.2573C183.469 32.2573 183.069 32.1693 182.709 31.9934C182.357 31.8176 182.076 31.5713 181.865 31.2548C181.662 30.9382 181.561 30.5865 181.561 30.1995C181.561 29.7247 181.68 29.351 181.917 29.0783C182.164 28.8057 182.555 28.6079 183.091 28.4848C183.628 28.3617 184.362 28.3001 185.294 28.3001H185.637V28.0627C185.637 27.6933 185.553 27.4251 185.386 27.2581C185.228 27.091 184.96 27.0074 184.582 27.0074C184.204 27.0074 183.658 27.1393 182.946 27.4032C182.744 27.4999 182.572 27.5483 182.432 27.5483C182.238 27.5483 182.084 27.4823 181.97 27.3504C181.856 27.2097 181.799 27.0294 181.799 26.8096C181.799 26.6337 181.838 26.4886 181.917 26.3743C181.996 26.26 182.124 26.1545 182.3 26.0577C182.608 25.8906 182.981 25.7587 183.421 25.662C183.869 25.5653 184.309 25.5169 184.74 25.5169ZM184.344 30.8854C184.731 30.8854 185.043 30.7579 185.281 30.5029C185.518 30.2391 185.637 29.9006 185.637 29.4873V29.263H185.413C184.7 29.263 184.199 29.3202 183.909 29.4345C183.628 29.5488 183.487 29.7555 183.487 30.0544C183.487 30.3007 183.566 30.5029 183.724 30.6612C183.891 30.8107 184.098 30.8854 184.344 30.8854Z" fill="white"></path><path d="M191.479 32.2573C190.943 32.2573 190.477 32.2133 190.081 32.1253C189.685 32.0374 189.338 31.8967 189.039 31.7033C188.907 31.6241 188.806 31.5186 188.735 31.3867C188.665 31.2548 188.63 31.1053 188.63 30.9382C188.63 30.736 188.687 30.5689 188.801 30.437C188.916 30.2963 189.056 30.2259 189.223 30.2259C189.338 30.2259 189.452 30.2479 189.566 30.2919C189.681 30.327 189.799 30.371 189.923 30.4238C190.169 30.5381 190.411 30.6304 190.648 30.7008C190.885 30.7623 191.18 30.7931 191.532 30.7931C191.84 30.7931 192.077 30.7447 192.244 30.648C192.42 30.5513 192.508 30.4194 192.508 30.2523C192.508 30.1292 192.468 30.0325 192.389 29.9621C192.319 29.883 192.183 29.8126 191.98 29.7511C191.778 29.6895 191.457 29.6148 191.017 29.5268C190.235 29.3773 189.672 29.1531 189.329 28.8541C188.986 28.5551 188.815 28.1374 188.815 27.601C188.815 27.2053 188.933 26.8492 189.171 26.5326C189.417 26.216 189.751 25.9698 190.173 25.7939C190.595 25.6093 191.07 25.5169 191.598 25.5169C191.976 25.5169 192.345 25.5653 192.706 25.662C193.066 25.7587 193.387 25.895 193.669 26.0709C193.941 26.238 194.078 26.4842 194.078 26.8096C194.078 27.0206 194.02 27.1965 193.906 27.3372C193.792 27.4779 193.651 27.5483 193.484 27.5483C193.282 27.5483 193.04 27.4691 192.759 27.3108C192.539 27.1965 192.336 27.113 192.152 27.0602C191.976 26.9986 191.765 26.9679 191.519 26.9679C191.246 26.9679 191.031 27.0206 190.872 27.1262C190.714 27.2229 190.635 27.3592 190.635 27.5351C190.635 27.7197 190.727 27.8604 190.912 27.9572C191.097 28.0539 191.453 28.1506 191.98 28.2473C192.569 28.3617 193.031 28.5024 193.365 28.6694C193.699 28.8277 193.941 29.03 194.091 29.2762C194.24 29.5224 194.315 29.8346 194.315 30.2127C194.315 30.8371 194.056 31.3339 193.537 31.7033C193.027 32.0726 192.341 32.2573 191.479 32.2573Z" fill="white"></path><path d="M203.556 26.1105C203.644 25.9258 203.759 25.7895 203.899 25.7016C204.049 25.6049 204.207 25.5565 204.374 25.5565C204.62 25.5565 204.84 25.64 205.034 25.8071C205.227 25.9654 205.324 26.1589 205.324 26.3875C205.324 26.5194 205.293 26.6469 205.231 26.77L202.857 31.6373C202.769 31.8308 202.637 31.9803 202.461 32.0858C202.286 32.1825 202.097 32.2309 201.894 32.2309C201.692 32.2309 201.503 32.1825 201.327 32.0858C201.151 31.9803 201.015 31.8308 200.918 31.6373L198.544 26.77C198.491 26.6469 198.465 26.5282 198.465 26.4139C198.465 26.1764 198.566 25.9742 198.768 25.8071C198.979 25.64 199.212 25.5565 199.467 25.5565C199.652 25.5565 199.819 25.6049 199.968 25.7016C200.118 25.7895 200.237 25.9258 200.325 26.1105L201.947 29.6587L203.556 26.1105Z" fill="white"></path><path d="M209.034 25.5169C209.984 25.5169 210.687 25.75 211.145 26.216C211.602 26.6733 211.831 27.3768 211.831 28.3265V31.3075C211.831 31.5977 211.747 31.8264 211.58 31.9934C211.413 32.1517 211.18 32.2309 210.881 32.2309C210.6 32.2309 210.371 32.1473 210.195 31.9803C210.028 31.8044 209.944 31.5801 209.944 31.3075V31.2152C209.812 31.5406 209.593 31.7956 209.285 31.9803C208.977 32.1649 208.617 32.2573 208.203 32.2573C207.764 32.2573 207.363 32.1693 207.003 31.9934C206.651 31.8176 206.37 31.5713 206.159 31.2548C205.956 30.9382 205.855 30.5865 205.855 30.1995C205.855 29.7247 205.974 29.351 206.211 29.0783C206.458 28.8057 206.849 28.6079 207.385 28.4848C207.922 28.3617 208.656 28.3001 209.588 28.3001H209.931V28.0627C209.931 27.6933 209.848 27.4251 209.681 27.2581C209.522 27.091 209.254 27.0074 208.876 27.0074C208.498 27.0074 207.953 27.1393 207.24 27.4032C207.038 27.4999 206.867 27.5483 206.726 27.5483C206.532 27.5483 206.379 27.4823 206.264 27.3504C206.15 27.2097 206.093 27.0294 206.093 26.8096C206.093 26.6337 206.132 26.4886 206.211 26.3743C206.291 26.26 206.418 26.1545 206.594 26.0577C206.902 25.8906 207.276 25.7587 207.715 25.662C208.164 25.5653 208.603 25.5169 209.034 25.5169ZM208.639 30.8854C209.025 30.8854 209.338 30.7579 209.575 30.5029C209.812 30.2391 209.931 29.9006 209.931 29.4873V29.263H209.707C208.995 29.263 208.493 29.3202 208.203 29.4345C207.922 29.5488 207.781 29.7555 207.781 30.0544C207.781 30.3007 207.86 30.5029 208.019 30.6612C208.186 30.8107 208.392 30.8854 208.639 30.8854Z" fill="white"></path><path d="M215.773 32.2573C215.237 32.2573 214.771 32.2133 214.375 32.1253C213.979 32.0374 213.632 31.8967 213.333 31.7033C213.201 31.6241 213.1 31.5186 213.03 31.3867C212.959 31.2548 212.924 31.1053 212.924 30.9382C212.924 30.736 212.981 30.5689 213.096 30.437C213.21 30.2963 213.351 30.2259 213.518 30.2259C213.632 30.2259 213.746 30.2479 213.861 30.2919C213.975 30.327 214.094 30.371 214.217 30.4238C214.463 30.5381 214.705 30.6304 214.942 30.7008C215.18 30.7623 215.474 30.7931 215.826 30.7931C216.134 30.7931 216.371 30.7447 216.538 30.648C216.714 30.5513 216.802 30.4194 216.802 30.2523C216.802 30.1292 216.763 30.0325 216.683 29.9621C216.613 29.883 216.477 29.8126 216.274 29.7511C216.072 29.6895 215.751 29.6148 215.312 29.5268C214.529 29.3773 213.966 29.1531 213.623 28.8541C213.28 28.5551 213.109 28.1374 213.109 27.601C213.109 27.2053 213.227 26.8492 213.465 26.5326C213.711 26.216 214.045 25.9698 214.467 25.7939C214.889 25.6093 215.364 25.5169 215.892 25.5169C216.27 25.5169 216.639 25.5653 217 25.662C217.36 25.7587 217.681 25.895 217.963 26.0709C218.235 26.238 218.372 26.4842 218.372 26.8096C218.372 27.0206 218.315 27.1965 218.2 27.3372C218.086 27.4779 217.945 27.5483 217.778 27.5483C217.576 27.5483 217.334 27.4691 217.053 27.3108C216.833 27.1965 216.631 27.113 216.446 27.0602C216.27 26.9986 216.059 26.9679 215.813 26.9679C215.54 26.9679 215.325 27.0206 215.166 27.1262C215.008 27.2229 214.929 27.3592 214.929 27.5351C214.929 27.7197 215.021 27.8604 215.206 27.9572C215.391 28.0539 215.747 28.1506 216.274 28.2473C216.864 28.3617 217.325 28.5024 217.659 28.6694C217.994 28.8277 218.235 29.03 218.385 29.2762C218.534 29.5224 218.609 29.8346 218.609 30.2127C218.609 30.8371 218.35 31.3339 217.831 31.7033C217.321 32.0726 216.635 32.2573 215.773 32.2573Z" fill="white"></path><path d="M220.75 32.2309C220.46 32.2309 220.218 32.1517 220.025 31.9934C219.84 31.8352 219.748 31.6021 219.748 31.2943V26.4798C219.748 26.172 219.844 25.939 220.038 25.7807C220.231 25.6224 220.469 25.5433 220.75 25.5433C221.031 25.5433 221.264 25.6224 221.449 25.7807C221.643 25.939 221.739 26.172 221.739 26.4798V31.2943C221.739 31.6021 221.643 31.8352 221.449 31.9934C221.264 32.1517 221.031 32.2309 220.75 32.2309ZM220.75 24.4881C220.398 24.4881 220.121 24.4001 219.919 24.2243C219.717 24.0396 219.616 23.7934 219.616 23.4856C219.616 23.1778 219.717 22.936 219.919 22.7601C220.121 22.5842 220.398 22.4963 220.75 22.4963C221.093 22.4963 221.366 22.5886 221.568 22.7733C221.779 22.9492 221.884 23.1866 221.884 23.4856C221.884 23.7934 221.783 24.0396 221.581 24.2243C221.379 24.4001 221.102 24.4881 220.75 24.4881Z" fill="white"></path><path d="M224.267 32.2309C223.976 32.2309 223.735 32.1517 223.541 31.9934C223.357 31.8352 223.264 31.6021 223.264 31.2943V23.723C223.264 23.4152 223.357 23.1822 223.541 23.0239C223.735 22.8656 223.976 22.7865 224.267 22.7865C224.548 22.7865 224.781 22.8656 224.966 23.0239C225.159 23.1822 225.256 23.4152 225.256 23.723V31.2943C225.256 31.6021 225.159 31.8352 224.966 31.9934C224.781 32.1517 224.548 32.2309 224.267 32.2309Z" fill="white"></path><path d="M230.883 25.5169C232.387 25.5169 233.139 26.4271 233.139 28.2473V31.2943C233.139 31.5845 233.046 31.8132 232.862 31.9803C232.686 32.1473 232.444 32.2309 232.136 32.2309C231.828 32.2309 231.587 32.1473 231.411 31.9803C231.235 31.8132 231.147 31.5845 231.147 31.2943V28.221C231.147 27.834 231.063 27.5483 230.896 27.3636C230.738 27.1701 230.487 27.0734 230.144 27.0734C229.731 27.0734 229.397 27.2053 229.142 27.4691C228.896 27.7329 228.773 28.0847 228.773 28.5243V31.2943C228.773 31.5845 228.685 31.8132 228.509 31.9803C228.333 32.1473 228.091 32.2309 227.783 32.2309C227.475 32.2309 227.229 32.1473 227.045 31.9803C226.869 31.8132 226.781 31.5845 226.781 31.2943V23.6966C226.781 23.424 226.873 23.2042 227.058 23.0371C227.251 22.87 227.502 22.7865 227.81 22.7865C228.1 22.7865 228.333 22.8656 228.509 23.0239C228.685 23.1822 228.773 23.3933 228.773 23.6571V26.5326C229.001 26.1984 229.296 25.9478 229.656 25.7807C230.017 25.6049 230.426 25.5169 230.883 25.5169Z" fill="white"></path><path d="M237.541 25.5169C238.49 25.5169 239.194 25.75 239.651 26.216C240.108 26.6733 240.337 27.3768 240.337 28.3265V31.3075C240.337 31.5977 240.253 31.8264 240.086 31.9934C239.919 32.1517 239.686 32.2309 239.387 32.2309C239.106 32.2309 238.877 32.1473 238.701 31.9803C238.534 31.8044 238.451 31.5801 238.451 31.3075V31.2152C238.319 31.5406 238.099 31.7956 237.791 31.9803C237.483 32.1649 237.123 32.2573 236.71 32.2573C236.27 32.2573 235.87 32.1693 235.509 31.9934C235.158 31.8176 234.876 31.5713 234.665 31.2548C234.463 30.9382 234.362 30.5865 234.362 30.1995C234.362 29.7247 234.48 29.351 234.718 29.0783C234.964 28.8057 235.355 28.6079 235.892 28.4848C236.428 28.3617 237.162 28.3001 238.095 28.3001H238.438V28.0627C238.438 27.6933 238.354 27.4251 238.187 27.2581C238.029 27.091 237.76 27.0074 237.382 27.0074C237.004 27.0074 236.459 27.1393 235.747 27.4032C235.544 27.4999 235.373 27.5483 235.232 27.5483C235.039 27.5483 234.885 27.4823 234.771 27.3504C234.656 27.2097 234.599 27.0294 234.599 26.8096C234.599 26.6337 234.639 26.4886 234.718 26.3743C234.797 26.26 234.924 26.1545 235.1 26.0577C235.408 25.8906 235.782 25.7587 236.222 25.662C236.67 25.5653 237.11 25.5169 237.541 25.5169ZM237.145 30.8854C237.532 30.8854 237.844 30.7579 238.081 30.5029C238.319 30.2391 238.438 29.9006 238.438 29.4873V29.263H238.213C237.501 29.263 237 29.3202 236.71 29.4345C236.428 29.5488 236.288 29.7555 236.288 30.0544C236.288 30.3007 236.367 30.5029 236.525 30.6612C236.692 30.8107 236.899 30.8854 237.145 30.8854Z" fill="white"></path><path d="M244.28 32.2573C243.743 32.2573 243.277 32.2133 242.881 32.1253C242.486 32.0374 242.138 31.8967 241.839 31.7033C241.707 31.6241 241.606 31.5186 241.536 31.3867C241.466 31.2548 241.43 31.1053 241.43 30.9382C241.43 30.736 241.488 30.5689 241.602 30.437C241.716 30.2963 241.857 30.2259 242.024 30.2259C242.138 30.2259 242.253 30.2479 242.367 30.2919C242.481 30.327 242.6 30.371 242.723 30.4238C242.969 30.5381 243.211 30.6304 243.449 30.7008C243.686 30.7623 243.981 30.7931 244.332 30.7931C244.64 30.7931 244.878 30.7447 245.045 30.648C245.221 30.5513 245.308 30.4194 245.308 30.2523C245.308 30.1292 245.269 30.0325 245.19 29.9621C245.119 29.883 244.983 29.8126 244.781 29.7511C244.579 29.6895 244.258 29.6148 243.818 29.5268C243.035 29.3773 242.473 29.1531 242.13 28.8541C241.787 28.5551 241.615 28.1374 241.615 27.601C241.615 27.2053 241.734 26.8492 241.971 26.5326C242.217 26.216 242.552 25.9698 242.974 25.7939C243.396 25.6093 243.871 25.5169 244.398 25.5169C244.776 25.5169 245.146 25.5653 245.506 25.662C245.867 25.7587 246.188 25.895 246.469 26.0709C246.742 26.238 246.878 26.4842 246.878 26.8096C246.878 27.0206 246.821 27.1965 246.707 27.3372C246.592 27.4779 246.452 27.5483 246.285 27.5483C246.082 27.5483 245.84 27.4691 245.559 27.3108C245.339 27.1965 245.137 27.113 244.952 27.0602C244.776 26.9986 244.565 26.9679 244.319 26.9679C244.047 26.9679 243.831 27.0206 243.673 27.1262C243.515 27.2229 243.435 27.3592 243.435 27.5351C243.435 27.7197 243.528 27.8604 243.712 27.9572C243.897 28.0539 244.253 28.1506 244.781 28.2473C245.37 28.3617 245.832 28.5024 246.166 28.6694C246.5 28.8277 246.742 29.03 246.891 29.2762C247.041 29.5224 247.116 29.8346 247.116 30.2127C247.116 30.8371 246.856 31.3339 246.337 31.7033C245.827 32.0726 245.141 32.2573 244.28 32.2573Z" fill="white"></path><path d="M88.0399 40.3562C88.5939 40.3562 89.0863 40.5013 89.5172 40.7915C89.9569 41.0729 90.2954 41.473 90.5329 41.9918C90.7791 42.5019 90.9022 43.091 90.9022 43.7593C90.9022 44.4277 90.7791 45.0168 90.5329 45.5269C90.2954 46.0281 89.9613 46.415 89.5304 46.6876C89.0995 46.9602 88.6027 47.0965 88.0399 47.0965C87.6002 47.0965 87.2001 47.0086 86.8395 46.8327C86.4878 46.6481 86.2152 46.393 86.0217 46.0677V48.5607C86.0217 48.8245 85.9338 49.0355 85.7579 49.1938C85.582 49.3521 85.349 49.4313 85.0588 49.4313C84.751 49.4313 84.5004 49.3477 84.307 49.1806C84.1223 49.0136 84.03 48.7937 84.03 48.5211V41.3191C84.03 41.0377 84.1179 40.8135 84.2938 40.6464C84.4784 40.4705 84.7203 40.3826 85.0192 40.3826C85.3182 40.3826 85.5557 40.4705 85.7315 40.6464C85.9074 40.8135 85.9953 41.0377 85.9953 41.3191V41.4246C86.1888 41.0905 86.4658 40.8311 86.8263 40.6464C87.1869 40.4529 87.5914 40.3562 88.0399 40.3562ZM87.4595 45.5796C87.9255 45.5796 88.2861 45.4257 88.5411 45.118C88.7961 44.8014 88.9236 44.3485 88.9236 43.7593C88.9236 43.1614 88.7961 42.6997 88.5411 42.3743C88.2861 42.0402 87.9255 41.8731 87.4595 41.8731C86.9934 41.8731 86.6329 42.0358 86.3779 42.3612C86.1229 42.6777 85.9953 43.135 85.9953 43.733C85.9953 44.3221 86.1229 44.7794 86.3779 45.1048C86.6329 45.4213 86.9934 45.5796 87.4595 45.5796Z" fill="white"></path><path d="M95.0345 40.3562C95.9842 40.3562 96.6877 40.5892 97.145 41.0553C97.6023 41.5126 97.8309 42.2161 97.8309 43.1658V46.1468C97.8309 46.437 97.7474 46.6656 97.5803 46.8327C97.4132 46.991 97.1802 47.0702 96.8812 47.0702C96.5998 47.0702 96.3712 46.9866 96.1953 46.8195C96.0282 46.6437 95.9447 46.4194 95.9447 46.1468V46.0545C95.8128 46.3799 95.5929 46.6349 95.2851 46.8195C94.9774 47.0042 94.6168 47.0965 94.2035 47.0965C93.7638 47.0965 93.3637 47.0086 93.0032 46.8327C92.6514 46.6569 92.3701 46.4106 92.159 46.0941C91.9568 45.7775 91.8556 45.4257 91.8556 45.0388C91.8556 44.564 91.9743 44.1902 92.2118 43.9176C92.458 43.645 92.8493 43.4472 93.3857 43.3241C93.9221 43.201 94.6564 43.1394 95.5885 43.1394H95.9315V42.902C95.9315 42.5326 95.8479 42.2644 95.6809 42.0973C95.5226 41.9303 95.2544 41.8467 94.8762 41.8467C94.4981 41.8467 93.9529 41.9786 93.2406 42.2424C93.0384 42.3392 92.8669 42.3875 92.7262 42.3875C92.5327 42.3875 92.3788 42.3216 92.2645 42.1897C92.1502 42.049 92.0931 41.8687 92.0931 41.6489C92.0931 41.473 92.1326 41.3279 92.2118 41.2136C92.2909 41.0993 92.4184 40.9937 92.5943 40.897C92.9021 40.7299 93.2758 40.598 93.7155 40.5013C94.164 40.4046 94.6036 40.3562 95.0345 40.3562ZM94.6388 45.7247C95.0257 45.7247 95.3379 45.5972 95.5753 45.3422C95.8128 45.0784 95.9315 44.7398 95.9315 44.3265V44.1023H95.7072C94.995 44.1023 94.4937 44.1595 94.2035 44.2738C93.9221 44.3881 93.7814 44.5947 93.7814 44.8937C93.7814 45.1399 93.8606 45.3422 94.0189 45.5005C94.1859 45.65 94.3926 45.7247 94.6388 45.7247Z" fill="white"></path><path d="M103.185 40.3826C103.449 40.365 103.655 40.4266 103.805 40.5673C103.963 40.6992 104.042 40.9014 104.042 41.174C104.042 41.4642 103.972 41.6797 103.831 41.8204C103.691 41.961 103.44 42.049 103.079 42.0842L102.684 42.1237C102.2 42.1765 101.848 42.3348 101.628 42.5986C101.417 42.8624 101.312 43.201 101.312 43.6143V46.1336C101.312 46.4414 101.215 46.6744 101.022 46.8327C100.837 46.991 100.604 47.0702 100.323 47.0702C100.032 47.0702 99.7906 46.991 99.5971 46.8327C99.4124 46.6744 99.3201 46.4414 99.3201 46.1336V41.2927C99.3201 41.0025 99.4168 40.7783 99.6103 40.62C99.8037 40.4617 100.037 40.3826 100.309 40.3826C100.573 40.3826 100.793 40.4617 100.969 40.62C101.145 40.7695 101.233 40.9806 101.233 41.2532V41.6093C101.391 41.2312 101.628 40.941 101.945 40.7387C102.27 40.5365 102.622 40.4222 103 40.3958L103.185 40.3826Z" fill="white"></path><path d="M107.529 40.3562C108.479 40.3562 109.183 40.5892 109.64 41.0553C110.097 41.5126 110.326 42.2161 110.326 43.1658V46.1468C110.326 46.437 110.242 46.6656 110.075 46.8327C109.908 46.991 109.675 47.0702 109.376 47.0702C109.095 47.0702 108.866 46.9866 108.69 46.8195C108.523 46.6437 108.44 46.4194 108.44 46.1468V46.0545C108.308 46.3799 108.088 46.6349 107.78 46.8195C107.472 47.0042 107.112 47.0965 106.698 47.0965C106.259 47.0965 105.859 47.0086 105.498 46.8327C105.146 46.6569 104.865 46.4106 104.654 46.0941C104.452 45.7775 104.351 45.4257 104.351 45.0388C104.351 44.564 104.469 44.1902 104.707 43.9176C104.953 43.645 105.344 43.4472 105.881 43.3241C106.417 43.201 107.151 43.1394 108.083 43.1394H108.426V42.902C108.426 42.5326 108.343 42.2644 108.176 42.0973C108.017 41.9303 107.749 41.8467 107.371 41.8467C106.993 41.8467 106.448 41.9786 105.736 42.2424C105.533 42.3392 105.362 42.3875 105.221 42.3875C105.028 42.3875 104.874 42.3216 104.759 42.1897C104.645 42.049 104.588 41.8687 104.588 41.6489C104.588 41.473 104.628 41.3279 104.707 41.2136C104.786 41.0993 104.913 40.9937 105.089 40.897C105.397 40.7299 105.771 40.598 106.21 40.5013C106.659 40.4046 107.099 40.3562 107.529 40.3562ZM107.134 45.7247C107.521 45.7247 107.833 45.5972 108.07 45.3422C108.308 45.0784 108.426 44.7398 108.426 44.3265V44.1023H108.202C107.49 44.1023 106.989 44.1595 106.698 44.2738C106.417 44.3881 106.276 44.5947 106.276 44.8937C106.276 45.1399 106.355 45.3422 106.514 45.5005C106.681 45.65 106.887 45.7247 107.134 45.7247Z" fill="white"></path><path d="M118.612 47.0965C117.926 47.0965 117.324 46.9602 116.805 46.6876C116.286 46.4062 115.886 46.0149 115.605 45.5137C115.323 45.0037 115.182 44.4057 115.182 43.7198C115.182 43.0339 115.323 42.4403 115.605 41.9391C115.886 41.429 116.286 41.0377 116.805 40.7651C117.324 40.4925 117.926 40.3562 118.612 40.3562C119.298 40.3562 119.9 40.4925 120.419 40.7651C120.938 41.0377 121.338 41.429 121.619 41.9391C121.901 42.4403 122.042 43.0339 122.042 43.7198C122.042 44.4057 121.901 45.0037 121.619 45.5137C121.338 46.0149 120.938 46.4062 120.419 46.6876C119.9 46.9602 119.298 47.0965 118.612 47.0965ZM118.612 45.5796C119.579 45.5796 120.063 44.9597 120.063 43.7198C120.063 43.0954 119.935 42.6294 119.68 42.3216C119.434 42.0138 119.078 41.8599 118.612 41.8599C117.645 41.8599 117.161 42.4799 117.161 43.7198C117.161 44.9597 117.645 45.5796 118.612 45.5796Z" fill="white"></path><path d="M125.707 47.0965C125.171 47.0965 124.705 47.0526 124.309 46.9646C123.913 46.8767 123.566 46.736 123.267 46.5425C123.135 46.4634 123.034 46.3579 122.963 46.226C122.893 46.0941 122.858 45.9446 122.858 45.7775C122.858 45.5752 122.915 45.4082 123.029 45.2763C123.144 45.1356 123.284 45.0652 123.451 45.0652C123.566 45.0652 123.68 45.0872 123.794 45.1312C123.909 45.1663 124.027 45.2103 124.151 45.2631C124.397 45.3774 124.639 45.4697 124.876 45.5401C125.113 45.6016 125.408 45.6324 125.76 45.6324C126.068 45.6324 126.305 45.584 126.472 45.4873C126.648 45.3906 126.736 45.2587 126.736 45.0916C126.736 44.9685 126.696 44.8717 126.617 44.8014C126.547 44.7223 126.411 44.6519 126.208 44.5903C126.006 44.5288 125.685 44.454 125.245 44.3661C124.463 44.2166 123.9 43.9924 123.557 43.6934C123.214 43.3944 123.043 42.9767 123.043 42.4403C123.043 42.0446 123.161 41.6884 123.399 41.3719C123.645 41.0553 123.979 40.8091 124.401 40.6332C124.823 40.4485 125.298 40.3562 125.826 40.3562C126.204 40.3562 126.573 40.4046 126.934 40.5013C127.294 40.598 127.615 40.7343 127.897 40.9102C128.169 41.0773 128.306 41.3235 128.306 41.6489C128.306 41.8599 128.248 42.0358 128.134 42.1765C128.02 42.3172 127.879 42.3875 127.712 42.3875C127.51 42.3875 127.268 42.3084 126.986 42.1501C126.767 42.0358 126.564 41.9523 126.38 41.8995C126.204 41.8379 125.993 41.8072 125.747 41.8072C125.474 41.8072 125.259 41.8599 125.1 41.9654C124.942 42.0622 124.863 42.1985 124.863 42.3743C124.863 42.559 124.955 42.6997 125.14 42.7964C125.324 42.8932 125.681 42.9899 126.208 43.0866C126.797 43.201 127.259 43.3417 127.593 43.5087C127.927 43.667 128.169 43.8693 128.319 44.1155C128.468 44.3617 128.543 44.6739 128.543 45.052C128.543 45.6764 128.284 46.1732 127.765 46.5425C127.255 46.9119 126.569 47.0965 125.707 47.0965Z" fill="white"></path><path d="M135.819 47.0965C135.282 47.0965 134.816 47.0526 134.421 46.9646C134.025 46.8767 133.678 46.736 133.379 46.5425C133.247 46.4634 133.146 46.3579 133.075 46.226C133.005 46.0941 132.97 45.9446 132.97 45.7775C132.97 45.5752 133.027 45.4082 133.141 45.2763C133.256 45.1356 133.396 45.0652 133.563 45.0652C133.678 45.0652 133.792 45.0872 133.906 45.1312C134.021 45.1663 134.139 45.2103 134.262 45.2631C134.509 45.3774 134.75 45.4697 134.988 45.5401C135.225 45.6016 135.52 45.6324 135.872 45.6324C136.179 45.6324 136.417 45.584 136.584 45.4873C136.76 45.3906 136.848 45.2587 136.848 45.0916C136.848 44.9685 136.808 44.8717 136.729 44.8014C136.659 44.7223 136.522 44.6519 136.32 44.5903C136.118 44.5288 135.797 44.454 135.357 44.3661C134.575 44.2166 134.012 43.9924 133.669 43.6934C133.326 43.3944 133.154 42.9767 133.154 42.4403C133.154 42.0446 133.273 41.6884 133.511 41.3719C133.757 41.0553 134.091 40.8091 134.513 40.6332C134.935 40.4485 135.41 40.3562 135.938 40.3562C136.316 40.3562 136.685 40.4046 137.046 40.5013C137.406 40.598 137.727 40.7343 138.008 40.9102C138.281 41.0773 138.417 41.3235 138.417 41.6489C138.417 41.8599 138.36 42.0358 138.246 42.1765C138.132 42.3172 137.991 42.3875 137.824 42.3875C137.622 42.3875 137.38 42.3084 137.098 42.1501C136.878 42.0358 136.676 41.9523 136.492 41.8995C136.316 41.8379 136.105 41.8072 135.858 41.8072C135.586 41.8072 135.37 41.8599 135.212 41.9654C135.054 42.0622 134.975 42.1985 134.975 42.3743C134.975 42.559 135.067 42.6997 135.252 42.7964C135.436 42.8932 135.792 42.9899 136.32 43.0866C136.909 43.201 137.371 43.3417 137.705 43.5087C138.039 43.667 138.281 43.8693 138.431 44.1155C138.58 44.3617 138.655 44.6739 138.655 45.052C138.655 45.6764 138.395 46.1732 137.877 46.5425C137.367 46.9119 136.681 47.0965 135.819 47.0965Z" fill="white"></path><path d="M144.99 45.0652C145.166 45.0652 145.307 45.1356 145.412 45.2763C145.527 45.417 145.584 45.5972 145.584 45.8171C145.584 45.9666 145.54 46.1073 145.452 46.2392C145.364 46.3623 145.241 46.4678 145.083 46.5557C144.784 46.714 144.436 46.8459 144.041 46.9514C143.645 47.0482 143.28 47.0965 142.946 47.0965C142.242 47.0965 141.627 46.9602 141.099 46.6876C140.58 46.415 140.18 46.0281 139.899 45.5269C139.617 45.0168 139.477 44.4189 139.477 43.733C139.477 43.0734 139.613 42.4887 139.886 41.9786C140.158 41.4686 140.536 41.0729 141.02 40.7915C141.504 40.5013 142.053 40.3562 142.669 40.3562C143.258 40.3562 143.772 40.4881 144.212 40.7519C144.66 41.0069 145.008 41.3763 145.254 41.8599C145.5 42.3348 145.623 42.8932 145.623 43.5351C145.623 43.7286 145.575 43.8781 145.478 43.9836C145.39 44.0803 145.263 44.1287 145.096 44.1287H141.402C141.464 44.6475 141.622 45.0256 141.877 45.2631C142.132 45.4917 142.497 45.606 142.972 45.606C143.227 45.606 143.456 45.5752 143.658 45.5137C143.86 45.4521 144.085 45.3686 144.331 45.2631C144.454 45.2103 144.573 45.1663 144.687 45.1312C144.801 45.0872 144.902 45.0652 144.99 45.0652ZM142.721 41.728C142.343 41.728 142.04 41.8511 141.811 42.0973C141.583 42.3348 141.446 42.6821 141.402 43.1394H143.948C143.922 42.6733 143.803 42.3216 143.592 42.0842C143.39 41.8467 143.1 41.728 142.721 41.728Z" fill="white"></path><path d="M152.063 40.3826C152.371 40.3826 152.613 40.4661 152.789 40.6332C152.973 40.8003 153.066 41.0289 153.066 41.3191V46.16C153.066 46.4326 152.969 46.6525 152.775 46.8195C152.591 46.9866 152.349 47.0702 152.05 47.0702C151.768 47.0702 151.544 46.991 151.377 46.8327C151.21 46.6744 151.127 46.4634 151.127 46.1996V46.0677C150.924 46.4018 150.656 46.6569 150.322 46.8327C149.997 47.0086 149.627 47.0965 149.214 47.0965C148.396 47.0965 147.785 46.8723 147.38 46.4238C146.985 45.9666 146.787 45.2806 146.787 44.3661V41.3191C146.787 41.0289 146.875 40.8003 147.051 40.6332C147.235 40.4661 147.482 40.3826 147.789 40.3826C148.097 40.3826 148.339 40.4661 148.515 40.6332C148.691 40.8003 148.779 41.0289 148.779 41.3191V44.4057C148.779 44.7926 148.858 45.0784 149.016 45.2631C149.183 45.4477 149.434 45.5401 149.768 45.5401C150.155 45.5401 150.467 45.4082 150.704 45.1443C150.951 44.8805 151.074 44.5332 151.074 44.1023V41.3191C151.074 41.0289 151.162 40.8003 151.338 40.6332C151.513 40.4661 151.755 40.3826 152.063 40.3826Z" fill="white"></path><path d="M157.047 47.0965C156.511 47.0965 156.045 47.0526 155.649 46.9646C155.253 46.8767 154.906 46.736 154.607 46.5425C154.475 46.4634 154.374 46.3579 154.304 46.226C154.233 46.0941 154.198 45.9446 154.198 45.7775C154.198 45.5752 154.255 45.4082 154.37 45.2763C154.484 45.1356 154.625 45.0652 154.792 45.0652C154.906 45.0652 155.02 45.0872 155.135 45.1312C155.249 45.1663 155.368 45.2103 155.491 45.2631C155.737 45.3774 155.979 45.4697 156.216 45.5401C156.454 45.6016 156.748 45.6324 157.1 45.6324C157.408 45.6324 157.645 45.584 157.812 45.4873C157.988 45.3906 158.076 45.2587 158.076 45.0916C158.076 44.9685 158.037 44.8717 157.957 44.8014C157.887 44.7223 157.751 44.6519 157.549 44.5903C157.346 44.5288 157.025 44.454 156.586 44.3661C155.803 44.2166 155.24 43.9924 154.897 43.6934C154.554 43.3944 154.383 42.9767 154.383 42.4403C154.383 42.0446 154.502 41.6884 154.739 41.3719C154.985 41.0553 155.319 40.8091 155.741 40.6332C156.164 40.4485 156.638 40.3562 157.166 40.3562C157.544 40.3562 157.913 40.4046 158.274 40.5013C158.635 40.598 158.955 40.7343 159.237 40.9102C159.509 41.0773 159.646 41.3235 159.646 41.6489C159.646 41.8599 159.589 42.0358 159.474 42.1765C159.36 42.3172 159.219 42.3875 159.052 42.3875C158.85 42.3875 158.608 42.3084 158.327 42.1501C158.107 42.0358 157.905 41.9523 157.72 41.8995C157.544 41.8379 157.333 41.8072 157.087 41.8072C156.814 41.8072 156.599 41.8599 156.441 41.9654C156.282 42.0622 156.203 42.1985 156.203 42.3743C156.203 42.559 156.295 42.6997 156.48 42.7964C156.665 42.8932 157.021 42.9899 157.549 43.0866C158.138 43.201 158.599 43.3417 158.934 43.5087C159.268 43.667 159.509 43.8693 159.659 44.1155C159.808 44.3617 159.883 44.6739 159.883 45.052C159.883 45.6764 159.624 46.1732 159.105 46.5425C158.595 46.9119 157.909 47.0965 157.047 47.0965Z" fill="white"></path><path d="M167.159 47.0965C166.623 47.0965 166.157 47.0526 165.761 46.9646C165.365 46.8767 165.018 46.736 164.719 46.5425C164.587 46.4634 164.486 46.3579 164.415 46.226C164.345 46.0941 164.31 45.9446 164.31 45.7775C164.31 45.5752 164.367 45.4082 164.481 45.2763C164.596 45.1356 164.736 45.0652 164.904 45.0652C165.018 45.0652 165.132 45.0872 165.246 45.1312C165.361 45.1663 165.48 45.2103 165.603 45.2631C165.849 45.3774 166.091 45.4697 166.328 45.5401C166.566 45.6016 166.86 45.6324 167.212 45.6324C167.52 45.6324 167.757 45.584 167.924 45.4873C168.1 45.3906 168.188 45.2587 168.188 45.0916C168.188 44.9685 168.148 44.8717 168.069 44.8014C167.999 44.7223 167.863 44.6519 167.66 44.5903C167.458 44.5288 167.137 44.454 166.697 44.3661C165.915 44.2166 165.352 43.9924 165.009 43.6934C164.666 43.3944 164.495 42.9767 164.495 42.4403C164.495 42.0446 164.613 41.6884 164.851 41.3719C165.097 41.0553 165.431 40.8091 165.853 40.6332C166.275 40.4485 166.75 40.3562 167.278 40.3562C167.656 40.3562 168.025 40.4046 168.386 40.5013C168.746 40.598 169.067 40.7343 169.349 40.9102C169.621 41.0773 169.758 41.3235 169.758 41.6489C169.758 41.8599 169.7 42.0358 169.586 42.1765C169.472 42.3172 169.331 42.3875 169.164 42.3875C168.962 42.3875 168.72 42.3084 168.439 42.1501C168.219 42.0358 168.017 41.9523 167.832 41.8995C167.656 41.8379 167.445 41.8072 167.199 41.8072C166.926 41.8072 166.711 41.8599 166.552 41.9654C166.394 42.0622 166.315 42.1985 166.315 42.3743C166.315 42.559 166.407 42.6997 166.592 42.7964C166.777 42.8932 167.133 42.9899 167.66 43.0866C168.25 43.201 168.711 43.3417 169.045 43.5087C169.38 43.667 169.621 43.8693 169.771 44.1155C169.92 44.3617 169.995 44.6739 169.995 45.052C169.995 45.6764 169.736 46.1732 169.217 46.5425C168.707 46.9119 168.021 47.0965 167.159 47.0965Z" fill="white"></path><path d="M175.196 40.3562C175.97 40.3562 176.546 40.5848 176.924 41.0421C177.302 41.4906 177.491 42.1721 177.491 43.0866V46.1336C177.491 46.4238 177.399 46.6525 177.214 46.8195C177.038 46.9866 176.797 47.0702 176.489 47.0702C176.181 47.0702 175.939 46.9866 175.763 46.8195C175.587 46.6525 175.5 46.4238 175.5 46.1336V43.179C175.5 42.7393 175.416 42.4183 175.249 42.2161C175.091 42.0138 174.84 41.9127 174.497 41.9127C174.084 41.9127 173.75 42.0446 173.495 42.3084C173.248 42.5722 173.125 42.924 173.125 43.3636V46.1336C173.125 46.4238 173.037 46.6525 172.861 46.8195C172.686 46.9866 172.444 47.0702 172.136 47.0702C171.828 47.0702 171.582 46.9866 171.397 46.8195C171.221 46.6525 171.133 46.4238 171.133 46.1336V41.2927C171.133 41.0201 171.226 40.8003 171.41 40.6332C171.604 40.4661 171.85 40.3826 172.149 40.3826C172.422 40.3826 172.642 40.4661 172.809 40.6332C172.985 40.7915 173.072 40.9981 173.072 41.2532V41.4378C173.301 41.0861 173.596 40.8179 173.956 40.6332C174.326 40.4485 174.739 40.3562 175.196 40.3562Z" fill="white"></path><path d="M181.893 40.3562C182.843 40.3562 183.547 40.5892 184.004 41.0553C184.461 41.5126 184.69 42.2161 184.69 43.1658V46.1468C184.69 46.437 184.606 46.6656 184.439 46.8327C184.272 46.991 184.039 47.0702 183.74 47.0702C183.459 47.0702 183.23 46.9866 183.054 46.8195C182.887 46.6437 182.803 46.4194 182.803 46.1468V46.0545C182.672 46.3799 182.452 46.6349 182.144 46.8195C181.836 47.0042 181.476 47.0965 181.062 47.0965C180.623 47.0965 180.222 47.0086 179.862 46.8327C179.51 46.6569 179.229 46.4106 179.018 46.0941C178.816 45.7775 178.714 45.4257 178.714 45.0388C178.714 44.564 178.833 44.1902 179.071 43.9176C179.317 43.645 179.708 43.4472 180.244 43.3241C180.781 43.201 181.515 43.1394 182.447 43.1394H182.79V42.902C182.79 42.5326 182.707 42.2644 182.54 42.0973C182.381 41.9303 182.113 41.8467 181.735 41.8467C181.357 41.8467 180.812 41.9786 180.099 42.2424C179.897 42.3392 179.726 42.3875 179.585 42.3875C179.392 42.3875 179.238 42.3216 179.123 42.1897C179.009 42.049 178.952 41.8687 178.952 41.6489C178.952 41.473 178.991 41.3279 179.071 41.2136C179.15 41.0993 179.277 40.9937 179.453 40.897C179.761 40.7299 180.135 40.598 180.574 40.5013C181.023 40.4046 181.462 40.3562 181.893 40.3562ZM181.498 45.7247C181.884 45.7247 182.197 45.5972 182.434 45.3422C182.672 45.0784 182.79 44.7398 182.79 44.3265V44.1023H182.566C181.854 44.1023 181.352 44.1595 181.062 44.2738C180.781 44.3881 180.64 44.5947 180.64 44.8937C180.64 45.1399 180.719 45.3422 180.878 45.5005C181.045 45.65 181.251 45.7247 181.498 45.7247Z" fill="white"></path><path d="M189.173 47.0965C188.505 47.0965 187.92 46.9602 187.419 46.6876C186.918 46.415 186.531 46.0281 186.258 45.5269C185.994 45.0256 185.862 44.4365 185.862 43.7593C185.862 43.0822 186.003 42.4887 186.284 41.9786C186.575 41.4598 186.979 41.0597 187.498 40.7783C188.017 40.4969 188.615 40.3562 189.292 40.3562C189.644 40.3562 189.995 40.4046 190.347 40.5013C190.708 40.598 191.029 40.7343 191.31 40.9102C191.583 41.0773 191.719 41.3235 191.719 41.6489C191.719 41.8775 191.666 42.0666 191.561 42.2161C191.455 42.3568 191.314 42.4271 191.138 42.4271C191.024 42.4271 190.914 42.4095 190.809 42.3743C190.712 42.3304 190.58 42.2688 190.413 42.1897C190.228 42.093 190.061 42.0182 189.912 41.9654C189.771 41.9127 189.608 41.8863 189.424 41.8863C188.931 41.8863 188.553 42.0446 188.289 42.3612C188.034 42.6689 187.907 43.1218 187.907 43.7198C187.907 44.3177 188.034 44.775 188.289 45.0916C188.553 45.4082 188.931 45.5664 189.424 45.5664C189.608 45.5664 189.771 45.5445 189.912 45.5005C190.052 45.4477 190.224 45.3686 190.426 45.2631C190.593 45.1839 190.725 45.1268 190.822 45.0916C190.919 45.0476 191.024 45.0256 191.138 45.0256C191.306 45.0256 191.442 45.1004 191.547 45.2499C191.662 45.3994 191.719 45.5884 191.719 45.8171C191.719 46.1424 191.583 46.3843 191.31 46.5425C191.029 46.7184 190.703 46.8547 190.334 46.9514C189.965 47.0482 189.578 47.0965 189.173 47.0965Z" fill="white"></path><path d="M198.804 45.4477C199.006 45.6412 199.107 45.861 199.107 46.1073C199.107 46.3535 199.015 46.5733 198.83 46.7668C198.655 46.9602 198.448 47.057 198.21 47.057C197.982 47.057 197.771 46.9646 197.577 46.78L194.689 44.1023V46.1204C194.689 46.4282 194.592 46.6613 194.398 46.8195C194.214 46.9778 193.981 47.057 193.699 47.057C193.409 47.057 193.167 46.9778 192.974 46.8195C192.789 46.6613 192.697 46.4282 192.697 46.1204V38.5623C192.697 38.2545 192.789 38.0215 192.974 37.8632C193.167 37.7049 193.409 37.6258 193.699 37.6258C193.981 37.6258 194.214 37.7049 194.398 37.8632C194.592 38.0215 194.689 38.2545 194.689 38.5623V43.2845L197.327 40.686C197.52 40.4925 197.736 40.3958 197.973 40.3958C198.219 40.3958 198.435 40.4881 198.619 40.6728C198.804 40.8486 198.896 41.0597 198.896 41.3059C198.896 41.5346 198.795 41.75 198.593 41.9523L196.839 43.6274L198.804 45.4477Z" fill="white"></path><path d="M202.441 47.0965C201.905 47.0965 201.439 47.0526 201.043 46.9646C200.647 46.8767 200.3 46.736 200.001 46.5425C199.869 46.4634 199.768 46.3579 199.697 46.226C199.627 46.0941 199.592 45.9446 199.592 45.7775C199.592 45.5752 199.649 45.4082 199.763 45.2763C199.878 45.1356 200.018 45.0652 200.185 45.0652C200.3 45.0652 200.414 45.0872 200.528 45.1312C200.643 45.1663 200.761 45.2103 200.885 45.2631C201.131 45.3774 201.373 45.4697 201.61 45.5401C201.847 45.6016 202.142 45.6324 202.494 45.6324C202.802 45.6324 203.039 45.584 203.206 45.4873C203.382 45.3906 203.47 45.2587 203.47 45.0916C203.47 44.9685 203.43 44.8717 203.351 44.8014C203.281 44.7223 203.145 44.6519 202.942 44.5903C202.74 44.5288 202.419 44.454 201.979 44.3661C201.197 44.2166 200.634 43.9924 200.291 43.6934C199.948 43.3944 199.777 42.9767 199.777 42.4403C199.777 42.0446 199.895 41.6884 200.133 41.3719C200.379 41.0553 200.713 40.8091 201.135 40.6332C201.557 40.4485 202.032 40.3562 202.56 40.3562C202.938 40.3562 203.307 40.4046 203.668 40.5013C204.028 40.598 204.349 40.7343 204.631 40.9102C204.903 41.0773 205.04 41.3235 205.04 41.6489C205.04 41.8599 204.982 42.0358 204.868 42.1765C204.754 42.3172 204.613 42.3875 204.446 42.3875C204.244 42.3875 204.002 42.3084 203.721 42.1501C203.501 42.0358 203.298 41.9523 203.114 41.8995C202.938 41.8379 202.727 41.8072 202.481 41.8072C202.208 41.8072 201.993 41.8599 201.834 41.9654C201.676 42.0622 201.597 42.1985 201.597 42.3743C201.597 42.559 201.689 42.6997 201.874 42.7964C202.059 42.8932 202.415 42.9899 202.942 43.0866C203.531 43.201 203.993 43.3417 204.327 43.5087C204.661 43.667 204.903 43.8693 205.053 44.1155C205.202 44.3617 205.277 44.6739 205.277 45.052C205.277 45.6764 205.018 46.1732 204.499 46.5425C203.989 46.9119 203.303 47.0965 202.441 47.0965Z" fill="white"></path><path d="M68.459 20.0891C71.3698 22.0485 72.9062 26.3433 71.8821 29.6302C70.8533 32.9181 70.9683 38.2617 72.1317 41.5048C73.2946 44.7481 71.9338 49.1021 69.1124 51.1764C66.2891 53.2547 63.1364 57.6383 62.1124 60.9254C61.078 64.2141 57.3395 66.96 53.7983 67.0287C50.2547 67.0993 45.045 68.8531 42.2188 70.9289C39.3935 73.0047 34.6994 73.0946 31.7903 71.1375C28.8835 69.1732 23.5981 67.6232 20.056 67.6963C16.5109 67.766 12.6605 65.1692 11.4963 61.9264C10.3319 58.6809 6.99852 54.4226 4.08703 52.4587C1.18027 50.4983 -0.36114 46.2024 0.664791 42.917C1.69235 39.6309 1.57862 34.2855 0.416304 31.0413C-0.746606 27.7981 0.611333 23.4467 3.43753 21.3718C6.26136 19.296 9.41216 14.9103 10.4351 11.6224C11.468 8.33452 15.2076 5.58776 18.7532 5.5166C22.2935 5.44745 27.5034 3.69117 30.3282 1.61683C33.1531 -0.456499 37.8456 -0.547879 40.7543 1.41255C43.6659 3.37499 48.944 4.92108 52.491 4.8538C56.0372 4.78121 59.8874 7.37848 61.0498 10.6218C62.2162 13.8669 65.5475 18.1262 68.459 20.0891Z" fill="#EE4023"></path><mask id="path-5-inside-1" fill="white"><path d="M63.6313 22.5161C66.1055 24.1816 67.4114 27.8323 66.541 30.6261C65.6664 33.4208 65.7642 37.9629 66.7531 40.7195C67.7416 43.4763 66.5849 47.1772 64.1867 48.9404C61.7869 50.7069 59.1071 54.433 58.2367 57.227C57.3575 60.0224 54.1797 62.3564 51.1697 62.4148C48.1576 62.4748 43.7295 63.9656 41.3272 65.73C38.9257 67.4944 34.9357 67.5709 32.4629 65.9073C29.9922 64.2377 25.4995 62.9202 22.4888 62.9823C19.4754 63.0415 16.2026 60.8342 15.213 58.0779C14.2233 55.3192 11.3899 51.6996 8.91514 50.0303C6.44439 48.364 5.13419 44.7125 6.00623 41.9198C6.87966 39.1267 6.78299 34.5831 5.79502 31.8256C4.80655 29.0688 5.9608 25.3701 8.36306 23.6064C10.7633 21.842 13.4415 18.1142 14.311 15.3195C15.189 12.5248 18.3676 10.19 21.3814 10.1295C24.3906 10.0708 28.819 8.57793 31.2202 6.81474C33.6213 5.05241 37.6099 4.97473 40.0823 6.6411C42.5572 8.30917 47.0435 9.62335 50.0585 9.56616C53.0728 9.50446 56.3455 11.7121 57.3335 14.4689C58.3249 17.2273 61.1566 20.8477 63.6313 22.5161Z"></path></mask><path d="M63.6313 22.5161C66.1055 24.1816 67.4114 27.8323 66.541 30.6261C65.6664 33.4208 65.7642 37.9629 66.7531 40.7195C67.7416 43.4763 66.5849 47.1772 64.1867 48.9404C61.7869 50.7069 59.1071 54.433 58.2367 57.227C57.3575 60.0224 54.1797 62.3564 51.1697 62.4148C48.1576 62.4748 43.7295 63.9656 41.3272 65.73C38.9257 67.4944 34.9357 67.5709 32.4629 65.9073C29.9922 64.2377 25.4995 62.9202 22.4888 62.9823C19.4754 63.0415 16.2026 60.8342 15.213 58.0779C14.2233 55.3192 11.3899 51.6996 8.91514 50.0303C6.44439 48.364 5.13419 44.7125 6.00623 41.9198C6.87966 39.1267 6.78299 34.5831 5.79502 31.8256C4.80655 29.0688 5.9608 25.3701 8.36306 23.6064C10.7633 21.842 13.4415 18.1142 14.311 15.3195C15.189 12.5248 18.3676 10.19 21.3814 10.1295C24.3906 10.0708 28.819 8.57793 31.2202 6.81474C33.6213 5.05241 37.6099 4.97473 40.0823 6.6411C42.5572 8.30917 47.0435 9.62335 50.0585 9.56616C53.0728 9.50446 56.3455 11.7121 57.3335 14.4689C58.3249 17.2273 61.1566 20.8477 63.6313 22.5161Z" fill="#EE4023"></path><path d="M66.541 30.6261L68.4497 31.2234L68.4505 31.221L66.541 30.6261ZM66.7531 40.7195L68.6357 40.0445L68.6356 40.0443L66.7531 40.7195ZM64.1867 48.9404L63.002 47.329L63.001 47.3297L64.1867 48.9404ZM58.2367 57.227L60.1446 57.827L60.1462 57.8218L58.2367 57.227ZM51.1697 62.4148L51.1309 60.4152L51.1299 60.4152L51.1697 62.4148ZM41.3272 65.73L40.1433 64.1181L40.143 64.1183L41.3272 65.73ZM32.4629 65.9073L31.3431 67.5644L31.3465 67.5667L32.4629 65.9073ZM22.4888 62.9823L22.5281 64.9819L22.53 64.9818L22.4888 62.9823ZM15.213 58.0779L13.3305 58.7533L13.3307 58.7537L15.213 58.0779ZM8.91514 50.0303L10.0335 48.3723L10.0334 48.3722L8.91514 50.0303ZM6.00623 41.9198L4.09739 41.3229L4.09715 41.3237L6.00623 41.9198ZM5.79502 31.8256L7.67782 31.151L7.67766 31.1505L5.79502 31.8256ZM8.36306 23.6064L9.54667 25.2186L9.54763 25.2179L8.36306 23.6064ZM14.311 15.3195L12.403 14.7201L12.4013 14.7253L14.311 15.3195ZM21.3814 10.1295L21.3423 8.12992L21.3412 8.12994L21.3814 10.1295ZM31.2202 6.81474L30.0368 5.20241L30.0364 5.20268L31.2202 6.81474ZM40.0823 6.6411L41.2001 4.98263L41.2001 4.98262L40.0823 6.6411ZM50.0585 9.56616L50.0965 11.5658L50.0995 11.5657L50.0585 9.56616ZM57.3335 14.4689L55.4507 15.1437L55.4513 15.1454L57.3335 14.4689ZM62.5145 24.1752C63.3389 24.7302 64.0486 25.6816 64.4577 26.8228C64.8674 27.9659 64.9137 29.1254 64.6315 30.0312L68.4505 31.221C69.0387 29.333 68.8672 27.2702 68.2231 25.4731C67.5783 23.6743 66.3979 21.9675 64.7482 20.857L62.5145 24.1752ZM64.6323 30.0288C64.11 31.6978 63.9071 33.7636 63.9487 35.7294C63.9903 37.6956 64.2805 39.7501 64.8705 41.3948L68.6356 40.0443C68.2368 38.9323 67.9836 37.3375 67.9478 35.6448C67.912 33.9518 68.0974 32.3491 68.4497 31.2234L64.6323 30.0288ZM64.8704 41.3946C65.1907 42.2879 65.1926 43.4478 64.8308 44.6064C64.4695 45.7633 63.8003 46.7422 63.002 47.329L65.3714 50.5518C66.9713 49.3755 68.0795 47.6223 68.649 45.7988C69.2179 43.9769 69.3039 41.908 68.6357 40.0445L64.8704 41.3946ZM63.001 47.3297C61.5814 48.3747 60.1711 49.9207 59.0139 51.5315C57.8581 53.1404 56.8468 54.9644 56.3272 56.6321L60.1462 57.8218C60.497 56.6956 61.2609 55.2595 62.2625 53.8653C63.2627 52.4729 64.3922 51.2726 65.3723 50.5511L63.001 47.3297ZM56.3288 56.6269C56.0423 57.5381 55.3315 58.4915 54.3186 59.2352C53.3082 59.9771 52.1523 60.3954 51.1309 60.4152L51.2086 64.4145C53.1971 64.3759 55.1352 63.598 56.6859 62.4594C58.2342 61.3226 59.5519 59.7113 60.1446 57.827L56.3288 56.6269ZM51.1299 60.4152C49.357 60.4505 47.2875 60.896 45.3815 61.5379C43.4766 62.1794 41.5638 63.0747 40.1433 64.1181L42.5111 67.3419C43.4928 66.6209 44.9953 65.8887 46.6581 65.3287C48.3198 64.7691 49.9704 64.4391 51.2096 64.4144L51.1299 60.4152ZM40.143 64.1183C39.3394 64.7087 38.1649 65.0792 36.8823 65.1045C35.5997 65.1299 34.4089 64.806 33.5793 64.2479L31.3465 67.5667C32.9897 68.6722 35.0302 69.1419 36.9612 69.1038C38.8922 69.0656 40.9134 68.5158 42.5113 67.3418L40.143 64.1183ZM33.5827 64.2502C32.1214 63.2627 30.172 62.4425 28.2412 61.8762C26.3093 61.3097 24.2211 60.9461 22.4476 60.9827L22.53 64.9818C23.7672 64.9563 25.4307 65.2205 27.1155 65.7146C28.8014 66.209 30.3336 66.8823 31.3431 67.5644L33.5827 64.2502ZM22.4495 60.9826C21.4255 61.0028 20.2512 60.6295 19.21 59.9276C18.1662 59.2239 17.4176 58.2994 17.0954 57.4021L13.3307 58.7537C13.9981 60.6127 15.3806 62.17 16.974 63.2442C18.57 64.3202 20.5387 65.021 22.5281 64.9819L22.4495 60.9826ZM17.0955 57.4025C16.5054 55.7576 15.4187 53.9753 14.1959 52.4129C12.9719 50.8489 11.4974 49.3597 10.0335 48.3723L7.79673 51.6884C8.80767 52.3703 9.98723 53.5255 11.046 54.8782C12.106 56.2326 12.9309 57.6394 13.3305 58.7533L17.0955 57.4025ZM10.0334 48.3722C9.20966 47.8166 8.49932 46.8641 8.08969 45.7222C7.67941 44.5784 7.6331 43.4198 7.91532 42.516L4.09715 41.3237C3.50733 43.2125 3.6801 45.276 4.32459 47.0727C4.96974 48.8713 6.14987 50.5777 7.79683 51.6885L10.0334 48.3722ZM7.91508 42.5168C8.43668 40.8487 8.63956 38.7832 8.59821 36.8173C8.55685 34.8511 8.26724 32.7961 7.67782 31.151L3.91222 32.5001C4.31077 33.6126 4.56348 35.2082 4.59909 36.9014C4.63471 38.5949 4.44921 40.1978 4.09739 41.3229L7.91508 42.5168ZM7.67766 31.1505C7.35716 30.2567 7.35507 29.0972 7.71657 27.9398C8.07753 26.7841 8.74671 25.8059 9.54667 25.2186L7.17946 21.9943C5.57715 23.1706 4.46807 24.9236 3.89846 26.7473C3.32938 28.5694 3.2444 30.6377 3.91238 32.5006L7.67766 31.1505ZM9.54763 25.2179C10.9684 24.1735 12.3789 22.6269 13.5357 21.0157C14.6912 19.4063 15.7017 17.5817 16.2207 15.9137L12.4013 14.7253C12.0508 15.852 11.2875 17.2886 10.2864 18.6829C9.28665 20.0754 8.15793 21.275 7.17849 21.995L9.54763 25.2179ZM16.2191 15.9189C16.505 15.0086 17.2154 14.0554 18.2289 13.3113C19.2399 12.5691 20.3973 12.1497 21.4215 12.1291L21.3412 8.12994C19.3517 8.16987 17.4129 8.94808 15.8617 10.087C14.3129 11.2241 12.995 12.8356 12.403 14.7201L16.2191 15.9189ZM21.4204 12.1292C23.1928 12.0945 25.2621 11.6486 27.1675 11.0066C29.0719 10.3649 30.9842 9.46931 32.4039 8.42679L30.0364 5.20268C29.055 5.92335 27.5526 6.65582 25.8901 7.216C24.2287 7.77586 22.5792 8.10576 21.3423 8.12992L21.4204 12.1292ZM32.4036 8.42707C33.2073 7.83716 34.3816 7.46685 35.6636 7.44177C36.9455 7.41671 38.1354 7.74075 38.9645 8.29957L41.2001 4.98262C39.5568 3.87508 37.5162 3.40478 35.5854 3.44254C33.6547 3.4803 31.6342 4.02998 30.0368 5.20241L32.4036 8.42707ZM38.9645 8.29957C40.4271 9.28535 42.3751 10.1041 44.3053 10.6699C46.2367 11.236 48.3229 11.5994 50.0965 11.5658L50.0206 7.56652C48.7792 7.59007 47.1148 7.32505 45.4305 6.83135C43.745 6.33731 42.2124 5.66492 41.2001 4.98263L38.9645 8.29957ZM50.0995 11.5657C51.1233 11.5448 52.2972 11.9174 53.3379 12.619C54.3812 13.3223 55.1292 14.2466 55.4507 15.1437L59.2162 13.7942C58.5497 11.9345 57.1674 10.3765 55.5738 9.30224C53.9776 8.22617 52.008 7.52583 50.0176 7.56658L50.0995 11.5657ZM55.4513 15.1454C56.0422 16.7892 57.1285 18.5712 58.351 20.1337C59.5748 21.6976 61.049 23.1872 62.5133 24.1745L64.7493 20.8578C63.7389 20.1766 62.5599 19.0217 61.5013 17.6688C60.4415 16.3144 59.6162 14.907 59.2156 13.7924L55.4513 15.1454Z" fill="white" mask="url(#path-5-inside-1)"></path><path d="M21.9414 28.3928C21.5675 28.5229 21.3243 28.7127 21.2117 28.9623C21.0991 29.2118 21.0926 29.5226 21.1923 29.8947L21.2559 30.1319L22.2326 29.8701C22.8651 29.7007 23.2524 29.881 23.3945 30.4112C23.5341 30.9322 23.2876 31.2774 22.6551 31.4469L21.6783 31.7086L22.8448 36.062C22.9321 36.3875 22.8958 36.6615 22.736 36.8837C22.5855 37.1035 22.3615 37.2533 22.0638 37.333C21.7568 37.4153 21.4786 37.4001 21.2291 37.2875C20.9889 37.1724 20.8251 36.9521 20.7379 36.6265L19.5714 32.2731L19.0133 32.4227C18.39 32.5897 18.0086 32.4127 17.869 31.8918C17.727 31.3616 17.9676 31.013 18.5908 30.846L19.1489 30.6964C18.9097 29.8034 18.968 29.035 19.3239 28.3913C19.6798 27.7476 20.2816 27.2773 21.1293 26.9804L21.4846 26.8553L21.732 26.774C22.3738 26.602 22.7608 26.7625 22.8929 27.2556C23.0225 27.7393 22.8238 28.0767 22.2967 28.2677L21.9414 28.3928Z" fill="white"></path><path d="M27.9017 28.2016C28.1758 28.1082 28.4119 28.1147 28.6099 28.2212C28.8147 28.3158 28.9557 28.5074 29.033 28.7957C29.1153 29.1027 29.1019 29.3505 28.993 29.5393C28.884 29.728 28.6438 29.892 28.2724 30.0314L27.865 30.1855C27.3684 30.3784 27.0411 30.6455 26.8834 30.9869C26.7349 31.3257 26.7192 31.7138 26.8364 32.151L27.5505 34.816C27.6377 35.1416 27.6014 35.4155 27.4416 35.6378C27.2912 35.8576 27.0671 36.0074 26.7694 36.0871C26.4625 36.1694 26.1842 36.1542 25.9347 36.0416C25.6945 35.9265 25.5308 35.7062 25.4435 35.3806L24.0714 30.2598C23.9892 29.9528 24.0279 29.6882 24.1877 29.4659C24.3475 29.2436 24.5716 29.0939 24.8599 29.0166C25.139 28.9418 25.394 28.9632 25.6249 29.0808C25.8533 29.1891 26.0061 29.3874 26.0834 29.6758L26.1844 30.0525C26.2446 29.6077 26.4135 29.2334 26.6911 28.9297C26.9779 28.6236 27.3176 28.4029 27.7101 28.2679L27.9017 28.2016Z" fill="white"></path><path d="M36.1023 31.3132C36.2884 31.2634 36.4572 31.2979 36.6087 31.4168C36.7695 31.5333 36.881 31.7078 36.9433 31.9403C36.9857 32.0985 36.9791 32.2597 36.9235 32.4242C36.8653 32.5794 36.765 32.7259 36.6225 32.8638C36.3511 33.1159 36.021 33.3539 35.6324 33.5777C35.2412 33.7922 34.8688 33.9468 34.5154 34.0415C33.7712 34.2409 33.0814 34.2712 32.446 34.1324C31.8199 33.9911 31.287 33.6952 30.8473 33.2447C30.405 32.785 30.0867 32.1923 29.8923 31.4668C29.7054 30.7691 29.6838 30.1119 29.8276 29.4951C29.9714 28.8783 30.2592 28.3525 30.6911 27.9178C31.1204 27.4737 31.6607 27.1644 32.3118 26.99C32.9351 26.823 33.5167 26.8167 34.0565 26.9711C34.6032 27.1138 35.0753 27.406 35.4729 27.8478C35.8679 28.2804 36.1564 28.8361 36.3384 29.5152C36.3932 29.7198 36.3844 29.8917 36.312 30.0307C36.2464 30.158 36.1253 30.2453 35.9485 30.2926L32.0416 31.3395C32.2538 31.8709 32.5284 32.226 32.8655 32.4049C33.2 32.5744 33.6185 32.5919 34.1208 32.4573C34.3906 32.3851 34.6237 32.2877 34.8202 32.1652C35.0167 32.0428 35.2302 31.8909 35.4608 31.7095C35.576 31.6188 35.6892 31.5386 35.8001 31.469C35.9086 31.3901 36.0093 31.3382 36.1023 31.3132ZM32.7565 28.4261C32.3565 28.5333 32.0705 28.7495 31.8984 29.0748C31.7238 29.3908 31.6781 29.7968 31.7612 30.293L34.4542 29.5714C34.2942 29.0859 34.0689 28.7475 33.7783 28.5561C33.4971 28.3623 33.1565 28.319 32.7565 28.4261Z" fill="white"></path><path d="M41.8747 30.3947C42.1587 30.3385 42.382 30.3534 42.5447 30.4394C42.7073 30.5255 42.8198 30.6848 42.8821 30.9173C42.9544 31.1871 42.9022 31.4204 42.7257 31.6173C42.5491 31.8141 42.2571 31.9522 41.8496 32.0314L41.4515 32.1082C39.7887 32.4142 38.7467 31.7811 38.3255 30.2091L37.5852 27.4463L37.0271 27.5959C36.7201 27.6781 36.4701 27.6753 36.2771 27.5875C36.0815 27.4903 35.9501 27.3162 35.8828 27.065C35.813 26.8046 35.8398 26.588 35.963 26.4154C36.0838 26.2335 36.2976 26.1014 36.6046 26.0192L37.1627 25.8696L36.8711 24.7813C36.7888 24.4743 36.8171 24.2075 36.9557 23.9809C37.1037 23.7519 37.3405 23.5937 37.6661 23.5065C37.9917 23.4192 38.2711 23.4391 38.5045 23.5659C38.7379 23.6928 38.8958 23.9098 38.978 24.2167L39.2696 25.3051L40.2464 25.0434C40.8789 24.8739 41.2662 25.0542 41.4083 25.5845C41.4756 25.8356 41.4489 26.0522 41.3281 26.2341C41.2049 26.4067 40.9851 26.5353 40.6688 26.6201L39.6921 26.8818L40.4735 29.798C40.5483 30.0771 40.6707 30.2736 40.8408 30.3875C41.0085 30.4921 41.2203 30.5201 41.4765 30.4714L41.8747 30.3947Z" fill="white"></path><path d="M48.8019 27.9104C48.988 27.8605 49.1567 27.8951 49.3082 28.014C49.4691 28.1304 49.5806 28.3049 49.6429 28.5375C49.6853 28.6956 49.6787 28.8569 49.623 29.0214C49.5649 29.1765 49.4646 29.323 49.3221 29.4609C49.0507 29.7131 48.7206 29.9511 48.3319 30.1749C47.9408 30.3894 47.5684 30.544 47.2149 30.6387C46.4708 30.8381 45.781 30.8684 45.1456 30.7296C44.5195 30.5882 43.9866 30.2924 43.5468 29.8419C43.1046 29.3821 42.7863 28.7895 42.5919 28.0639C42.4049 27.3662 42.3834 26.709 42.5272 26.0922C42.671 25.4754 42.9588 24.9497 43.3907 24.5149C43.82 24.0709 44.3603 23.7616 45.0114 23.5871C45.6347 23.4201 46.2162 23.4138 46.7561 23.5683C47.3028 23.7109 47.7749 24.0032 48.1725 24.445C48.5675 24.8775 48.856 25.4333 49.038 26.1124C49.0928 26.317 49.084 26.4888 49.0116 26.6279C48.946 26.7551 48.8248 26.8424 48.6481 26.8898L44.7412 27.9366C44.9534 28.468 45.228 28.8232 45.5651 29.002C45.8996 29.1716 46.3181 29.1891 46.8204 29.0545C47.0901 28.9822 47.3233 28.8848 47.5198 28.7624C47.7163 28.64 47.9298 28.488 48.1603 28.3066C48.2756 28.2159 48.3887 28.1358 48.4997 28.0661C48.6082 27.9872 48.7089 27.9353 48.8019 27.9104ZM45.4561 25.0233C45.0561 25.1305 44.7701 25.3467 44.598 25.672C44.4234 25.9879 44.3777 26.394 44.4608 26.8902L47.1538 26.1686C46.9938 25.683 46.7685 25.3446 46.4779 25.1533C46.1967 24.9594 45.8561 24.9161 45.4561 25.0233Z" fill="white"></path><path d="M24.4912 42.8241C24.8075 42.7394 25.0835 42.7651 25.3194 42.9013C25.5621 43.0257 25.7234 43.2367 25.8031 43.5344L27.2126 48.7948C27.5092 49.9017 27.4126 50.8249 26.9228 51.5643C26.433 52.3037 25.5695 52.8392 24.3324 53.1707C23.2905 53.4498 22.3849 53.4931 21.6154 53.3005C21.4231 53.2523 21.2617 53.1709 21.1313 53.0563C21.0034 52.951 20.917 52.8147 20.8721 52.6472C20.8098 52.4147 20.8145 52.209 20.8862 52.0303C20.958 51.8515 21.0869 51.7372 21.2729 51.6874C21.3753 51.66 21.5012 51.6462 21.6507 51.646C21.8027 51.6551 21.9606 51.6676 22.1243 51.6836C22.4519 51.7154 22.75 51.7303 23.0186 51.7281C23.2872 51.7259 23.5657 51.6862 23.8541 51.6089C24.4494 51.4494 24.8551 51.1961 25.0712 50.8491C25.2873 50.5021 25.3218 50.0541 25.1747 49.5053L24.9728 48.7518C24.8722 49.1577 24.654 49.5152 24.3181 49.8246C23.9823 50.1339 23.5725 50.3534 23.0888 50.483C22.4934 50.6425 21.9258 50.6451 21.3859 50.4906C20.8554 50.3337 20.3913 50.0343 19.9938 49.5925C19.5937 49.1413 19.3027 48.5763 19.1208 47.8972C18.9388 47.2181 18.9095 46.5879 19.0329 46.0065C19.1538 45.4158 19.4047 44.9198 19.7858 44.5186C20.1736 44.1057 20.6652 43.8194 21.2605 43.6599C21.7349 43.5328 22.1903 43.5204 22.6265 43.6229C23.0695 43.7135 23.4407 43.9082 23.7401 44.2068L23.7027 44.0673C23.6229 43.7696 23.6536 43.5122 23.7948 43.2949C23.9428 43.0658 24.1749 42.9089 24.4912 42.8241ZM23.2728 48.7139C23.7658 48.5818 24.1048 48.3214 24.2898 47.9329C24.4841 47.5418 24.5053 47.0626 24.3532 46.4952C24.2012 45.9277 23.9433 45.5233 23.5794 45.2818C23.2224 45.0285 22.7974 44.9679 22.3044 45.1C21.8114 45.2321 21.469 45.4983 21.2772 45.8987C21.0828 46.2897 21.0617 46.769 21.2138 47.3364C21.3658 47.9038 21.6237 48.3083 21.9875 48.5498C22.3513 48.7913 22.7797 48.846 23.2728 48.7139Z" fill="white"></path><path d="M31.2472 41.0139C31.5212 40.9205 31.7573 40.927 31.9553 41.0335C32.1601 41.1282 32.3012 41.3197 32.3784 41.6081C32.4607 41.915 32.4473 42.1629 32.3384 42.3516C32.2294 42.5403 31.9892 42.7044 31.6178 42.8438L31.2104 42.9978C30.7138 43.1907 30.3866 43.4578 30.2288 43.7992C30.0803 44.1381 30.0646 44.5261 30.1818 44.9633L30.8959 47.6284C30.9831 47.9539 30.9469 48.2279 30.7871 48.4501C30.6366 48.6699 30.4125 48.8197 30.1149 48.8995C29.8079 48.9817 29.5296 48.9665 29.2801 48.8539C29.0399 48.7388 28.8762 48.5185 28.789 48.1929L27.4168 43.0721C27.3346 42.7651 27.3734 42.5005 27.5331 42.2782C27.6929 42.056 27.917 41.9062 28.2054 41.8289C28.4844 41.7542 28.7394 41.7756 28.9703 41.8932C29.1987 42.0014 29.3516 42.1998 29.4288 42.4881L29.5298 42.8649C29.59 42.42 29.7589 42.0457 30.0365 41.7421C30.3233 41.4359 30.663 41.2153 31.0555 41.0802L31.2472 41.0139Z" fill="white"></path><path d="M35.8354 39.7546C36.84 39.4854 37.6502 39.5325 38.2661 39.8959C38.8794 40.25 39.3206 40.9293 39.5898 41.934L40.4348 45.0874C40.517 45.3944 40.4935 45.6599 40.3641 45.884C40.2322 46.0988 40.0081 46.2486 39.6919 46.3333C39.3942 46.4131 39.1287 46.3895 38.8953 46.2626C38.6687 46.1239 38.5167 45.9104 38.4395 45.622L38.4133 45.5244C38.366 45.9059 38.2057 46.238 37.9325 46.5206C37.6593 46.8032 37.304 47.003 36.8668 47.1202C36.4017 47.2448 35.9536 47.2652 35.5223 47.1813C35.1004 47.095 34.7329 46.9143 34.42 46.6392C34.1163 46.3617 33.9096 46.0183 33.7999 45.609C33.6653 45.1067 33.685 44.6777 33.8589 44.322C34.0421 43.9639 34.3999 43.6436 34.9325 43.3614C35.465 43.0791 36.2243 42.8059 37.2103 42.5417L37.5731 42.4444L37.5058 42.1933C37.4011 41.8026 37.2367 41.5426 37.0126 41.4132C36.7978 41.2813 36.4904 41.269 36.0904 41.3761C35.6904 41.4833 35.1511 41.7774 34.4724 42.2583C34.2859 42.418 34.1182 42.5178 33.9694 42.5576C33.7647 42.6125 33.5832 42.5863 33.4249 42.4792C33.2641 42.3628 33.1525 42.1883 33.0902 41.9557C33.0404 41.7697 33.0411 41.605 33.0924 41.4616C33.1437 41.3182 33.2487 41.1705 33.4073 41.0183C33.6856 40.7543 34.0435 40.5089 34.4812 40.2819C34.9282 40.0525 35.3796 39.8767 35.8354 39.7546ZM36.9385 45.5457C37.3478 45.436 37.6418 45.2126 37.8207 44.8756C37.9971 44.5292 38.0267 44.1374 37.9096 43.7002L37.846 43.463L37.6088 43.5266C36.8553 43.7285 36.3413 43.931 36.0668 44.1342C35.8015 44.3349 35.7112 44.5934 35.796 44.9096C35.8658 45.1701 36.0068 45.3616 36.2191 45.4842C36.4382 45.595 36.678 45.6155 36.9385 45.5457ZM36.0307 38.8648C35.9415 38.9784 35.8318 39.0526 35.7015 39.0875C35.5527 39.1274 35.4134 39.1099 35.2837 39.035C35.1539 38.9601 35.0704 38.8529 35.033 38.7133C35.0006 38.5924 35.01 38.4603 35.0614 38.3169L35.8314 36.3908C35.9792 36.0122 36.2159 35.7793 36.5414 35.692C36.774 35.6297 37.0011 35.6586 37.2227 35.7787C37.4443 35.8988 37.585 36.0704 37.6448 36.2937C37.7196 36.5727 37.6381 36.8638 37.4002 37.1668L36.0307 38.8648Z" fill="white"></path><path d="M45.6697 43.0865C45.9538 43.0303 46.1771 43.0453 46.3398 43.1313C46.5024 43.2173 46.6149 43.3766 46.6772 43.6092C46.7495 43.8789 46.6973 44.1122 46.5208 44.3091C46.3442 44.506 46.0522 44.644 45.6447 44.7233L45.2466 44.8001C43.5838 45.106 42.5418 44.473 42.1206 42.9009L41.3803 40.1382L40.8222 40.2877C40.5152 40.37 40.2652 40.3672 40.0722 40.2793C39.8766 40.1822 39.7452 40.008 39.6779 39.7569C39.6081 39.4964 39.6349 39.2799 39.7581 39.1073C39.8788 38.9254 40.0927 38.7933 40.3997 38.711L40.9578 38.5615L40.6662 37.4731C40.5839 37.1662 40.6121 36.8994 40.7508 36.6728C40.8988 36.4437 41.1356 36.2855 41.4612 36.1983C41.7867 36.1111 42.0662 36.1309 42.2996 36.2578C42.533 36.3847 42.6909 36.6016 42.7731 36.9086L43.0647 37.9969L44.0415 37.7352C44.674 37.5657 45.0613 37.7461 45.2034 38.2763C45.2707 38.5275 45.244 38.744 45.1232 38.9259C45 39.0985 44.7802 39.2272 44.4639 39.3119L43.4872 39.5736L44.2686 42.4899C44.3434 42.7689 44.4658 42.9654 44.6359 43.0794C44.8036 43.184 45.0154 43.212 45.2716 43.1633L45.6697 43.0865Z" fill="white"></path><path d="M48.7282 43.912C48.4212 43.9943 48.143 43.9791 47.8935 43.8665C47.6533 43.7514 47.4895 43.5311 47.4023 43.2055L46.0377 38.1126C45.9504 37.787 45.9867 37.5131 46.1465 37.2908C46.3063 37.0685 46.535 36.9175 46.8326 36.8378C47.1303 36.758 47.3992 36.7757 47.6395 36.8908C47.889 37.0034 48.0573 37.2225 48.1446 37.548L49.5092 42.6409C49.5965 42.9665 49.5602 43.2404 49.4004 43.4627C49.2499 43.6825 49.0259 43.8323 48.7282 43.912ZM46.5335 35.7215C46.1615 35.8212 45.8435 35.8067 45.5797 35.678C45.3134 35.54 45.1367 35.3082 45.0494 34.9826C44.9622 34.657 45.0006 34.3726 45.1647 34.1292C45.3288 33.8858 45.5969 33.7143 45.969 33.6146C46.3318 33.5174 46.6463 33.5378 46.9126 33.6758C47.1857 33.802 47.3646 34.0233 47.4494 34.3395C47.5366 34.6651 47.4994 34.9542 47.3378 35.2069C47.1737 35.4503 46.9056 35.6218 46.5335 35.7215Z" fill="white"></path><path d="M53.9905 42.5319C53.423 42.684 52.9176 42.7696 52.474 42.7887C52.0305 42.8078 51.6232 42.7575 51.2521 42.6376C51.0901 42.5912 50.9532 42.5083 50.8414 42.3887C50.7296 42.2691 50.6501 42.1209 50.6027 41.9442C50.5454 41.7302 50.5585 41.5373 50.642 41.3653C50.7231 41.1841 50.852 41.0698 51.0287 41.0225C51.1496 40.9901 51.2768 40.9809 51.4102 40.995C51.5411 40.9998 51.6791 41.0127 51.8243 41.0336C52.1172 41.0847 52.3991 41.1139 52.6702 41.121C52.9388 41.1188 53.2592 41.0679 53.6313 40.9682C53.9568 40.8809 54.1943 40.7625 54.3436 40.6128C54.5022 40.4606 54.5579 40.2962 54.5105 40.1194C54.4756 39.9892 54.4063 39.8981 54.3027 39.8461C54.2058 39.7823 54.0417 39.7465 53.8103 39.7387C53.5789 39.731 53.2182 39.7429 52.7282 39.7745C51.8579 39.8382 51.199 39.7605 50.7515 39.5414C50.304 39.3224 50.0042 38.9291 49.8521 38.3617C49.74 37.9431 49.7646 37.5327 49.926 37.1305C50.0968 36.7259 50.3805 36.3707 50.7771 36.065C51.1713 35.75 51.6474 35.5177 52.2055 35.3682C52.6055 35.261 53.0099 35.2075 53.4187 35.2076C53.8275 35.2078 54.2057 35.261 54.5532 35.3672C54.8889 35.4667 55.1029 35.6885 55.1951 36.0327C55.255 36.256 55.2443 36.4582 55.1633 36.6395C55.0822 36.8207 54.9534 36.935 54.7766 36.9823C54.5627 37.0397 54.2844 37.0245 53.9419 36.9368C53.6769 36.8782 53.4393 36.8472 53.229 36.8437C53.0255 36.8284 52.7935 36.8557 52.5331 36.9255C52.2447 37.0027 52.0318 37.1196 51.8942 37.2761C51.7542 37.4233 51.7091 37.5899 51.759 37.776C51.8113 37.9713 51.9489 38.094 52.1716 38.1439C52.3944 38.1939 52.7986 38.1953 53.3841 38.1481C54.0397 38.102 54.568 38.12 54.9688 38.202C55.3672 38.2747 55.6803 38.4201 55.9082 38.6382C56.1362 38.8563 56.3037 39.1654 56.4109 39.5653C56.5879 40.2258 56.4543 40.8249 56.0101 41.3626C55.5753 41.8979 54.9021 42.2877 53.9905 42.5319Z" fill="white"></path><path d="M58.1596 31.4943C58.3056 31.487 58.4184 31.5384 58.4981 31.6486C58.5844 31.7588 58.6275 31.8874 58.6275 32.0344C58.6275 32.1887 58.5844 32.3209 58.4981 32.4311C58.4184 32.5414 58.3056 32.5928 58.1596 32.5854L57.3332 32.5303L57.7912 33.2908C57.8443 33.3863 57.8708 33.4745 57.8708 33.5553C57.8708 33.7023 57.8111 33.8309 57.6916 33.9411C57.5721 34.0513 57.4427 34.1064 57.3033 34.1064C57.1307 34.1064 57.0079 34.0182 56.9349 33.8419L56.5665 33.0153L56.1981 33.8419C56.1251 34.0182 55.999 34.1064 55.8198 34.1064C55.6804 34.1064 55.5509 34.0513 55.4315 33.9411C55.3186 33.8309 55.2622 33.7023 55.2622 33.5553C55.2622 33.4745 55.2887 33.3863 55.3418 33.2908L55.7998 32.5303L54.9735 32.5854C54.8274 32.5928 54.7113 32.5414 54.625 32.4311C54.5453 32.3209 54.5055 32.1923 54.5055 32.0454C54.5055 31.8911 54.5453 31.7588 54.625 31.6486C54.7113 31.5384 54.8274 31.487 54.9735 31.4943L55.7998 31.5494L55.3418 30.7889C55.2887 30.7081 55.2622 30.6199 55.2622 30.5244C55.2622 30.3775 55.3186 30.2526 55.4315 30.1497C55.5509 30.0468 55.6804 29.9954 55.8198 29.9954C55.9923 29.9954 56.1185 30.0799 56.1981 30.2489L56.5665 31.0755L56.9349 30.2489C57.0212 30.0725 57.1506 29.9844 57.3232 29.9844C57.456 29.9844 57.5788 30.0395 57.6916 30.1497C57.8111 30.2526 57.8708 30.3775 57.8708 30.5244C57.8708 30.6053 57.8443 30.6934 57.7912 30.7889L57.3332 31.5494L58.1596 31.4943Z" fill="white"></path></svg>