<svg xmlns="http://www.w3.org/2000/svg" width="111" height="37" viewBox="0 0 111 37" fill="none"><path d="M13.6706 0H14.6577C18.0845 0.0744963 21.4555 1.45268 23.8766 3.89243C22.9826 4.80501 22.0701 5.68034 21.1947 6.59292C19.8352 5.36373 18.1963 4.4139 16.4083 4.07867C13.7637 3.51995 10.9142 4.0228 8.69798 5.53135C6.27685 7.11439 4.63793 9.79626 4.28408 12.6644C3.89297 15.4952 4.69381 18.4751 6.53759 20.6727C8.30687 22.8145 11.0074 24.1554 13.801 24.2485C16.4083 24.3975 19.1275 23.5967 21.0271 21.7715C22.517 20.4865 23.2061 18.5309 23.4296 16.6313C20.338 16.6313 17.2464 16.6499 14.1548 16.6313V12.7947H27.1731C27.8435 16.9107 26.8751 21.548 23.7462 24.4907C21.6603 26.5765 18.7736 27.8057 15.831 28.0478C12.9815 28.3272 10.0389 27.7871 7.50604 26.4089C4.47032 24.7886 2.04919 22.0509 0.857249 18.8289C-0.260195 15.8677 -0.278819 12.5154 0.764129 9.53552C1.71396 6.81641 3.53911 4.4139 5.88575 2.73774C8.13926 1.0802 10.877 0.167617 13.6706 0Z" fill="white"></path><path d="M88.3525 0.969574H92.338V27.5647C91.0157 27.5647 89.6748 27.5834 88.3525 27.5461C88.3712 18.6997 88.3525 9.83463 88.3525 0.969574Z" fill="white"></path><path d="M36.0381 10.1871C38.4965 9.72146 41.1597 10.2429 43.1898 11.7142C45.0336 13.0179 46.3186 15.0666 46.7097 17.3015C47.2126 19.8902 46.5794 22.7211 44.9032 24.7697C43.0967 27.0605 40.1354 28.2897 37.2487 28.1034C34.6041 27.9544 32.0339 26.6321 30.4695 24.4717C28.7002 22.0878 28.2719 18.81 29.2403 16.0164C30.2088 13.0179 32.9465 10.7272 36.0381 10.1871ZM36.5968 13.7256C35.5911 13.9864 34.6599 14.5637 33.9895 15.3832C32.1829 17.5436 32.2947 21.0635 34.2875 23.0749C35.4235 24.2296 37.1369 24.7697 38.72 24.4531C40.1913 24.1924 41.4764 23.2053 42.1841 21.9016C43.4133 19.6853 43.0594 16.631 41.1784 14.899C39.9678 13.7815 38.1985 13.3159 36.5968 13.7256Z" fill="white"></path><path d="M55.7803 10.1884C58.5925 9.64833 61.6655 10.4305 63.77 12.4047C67.1968 15.4777 67.5693 21.2325 64.6453 24.7711C62.8761 27.006 60.008 28.2352 57.1771 28.1048C54.4766 28.0303 51.8134 26.6894 50.2117 24.4731C48.4052 22.0333 48.0141 18.681 49.0384 15.8315C50.0627 12.9262 52.7446 10.7099 55.7803 10.1884ZM56.339 13.727C55.3333 13.9877 54.4021 14.5651 53.7316 15.3659C51.9437 17.4891 52.0182 20.9531 53.9365 22.9832C55.0726 24.1937 56.8419 24.7897 58.4808 24.4545C59.9335 24.1751 61.2371 23.2067 61.9449 21.903C63.1554 19.6681 62.8016 16.6137 60.9019 14.8817C59.6913 13.7643 57.9221 13.3173 56.339 13.727Z" fill="white"></path><path d="M72.5225 11.2682C74.6642 9.92727 77.5137 9.55478 79.8231 10.7095C80.5495 11.0261 81.1454 11.5662 81.7228 12.1063C81.7414 11.6034 81.7228 11.082 81.7414 10.5605C82.9892 10.5791 84.237 10.5605 85.5035 10.5791V27.0056C85.4848 29.4826 84.8516 32.1086 83.0637 33.9151C81.1082 35.9079 78.1097 36.5225 75.4092 36.1128C72.5225 35.6844 70.0082 33.5799 68.8908 30.9166C70.0082 30.3765 71.1815 29.9482 72.3362 29.4453C72.9881 30.9725 74.3104 32.2762 75.9679 32.5742C77.6255 32.8722 79.5438 32.4624 80.624 31.0843C81.7786 29.6688 81.7786 27.7319 81.7228 25.9999C80.8661 26.838 79.879 27.5829 78.687 27.8623C76.0983 28.5886 73.2488 27.6947 71.256 25.944C69.2446 24.1933 68.0527 21.4928 68.1644 18.811C68.2203 15.7752 69.9337 12.8513 72.5225 11.2682ZM76.3777 13.6521C75.2416 13.8383 74.18 14.4715 73.4537 15.3469C71.703 17.4328 71.703 20.7665 73.4723 22.8151C74.478 24.0257 76.0983 24.6962 77.6627 24.5286C79.134 24.3796 80.4936 23.4484 81.2199 22.1633C82.4491 19.9843 82.2442 17.023 80.5867 15.1234C79.5624 13.9501 77.9235 13.3727 76.3777 13.6521Z" fill="white"></path><path d="M97.1246 12.2176C99.3595 10.1317 102.805 9.42399 105.673 10.5228C108.392 11.5471 110.124 14.1359 111 16.7991C106.958 18.4753 102.935 20.1328 98.8939 21.809C99.4526 22.8705 100.309 23.839 101.464 24.2301C103.084 24.8074 105.021 24.6026 106.381 23.5224C106.921 23.1127 107.349 22.5726 107.759 22.0511C108.783 22.7402 109.808 23.4106 110.832 24.0997C109.379 26.2787 106.94 27.8059 104.314 28.048C101.408 28.4019 98.3165 27.2844 96.4355 25.0123C93.3439 21.4365 93.6419 15.4396 97.1246 12.2176ZM99.1174 15.663C98.4842 16.5756 98.2234 17.6931 98.242 18.7919C100.943 17.6744 103.643 16.557 106.344 15.4209C105.897 14.378 104.816 13.7448 103.718 13.5771C101.948 13.2605 100.104 14.2104 99.1174 15.663Z" fill="white"></path></svg>