<svg xmlns="http://www.w3.org/2000/svg" width="122" height="23" viewBox="0 0 122 23" fill="none"><path d="M14.4118 6.22211L17.7038 4.43053C16.5821 1.64632 13.7777 0 10.0224 0C3.8285 0 0 3.80105 0 9.34526C0 15.3979 5.07216 18.7389 9.90046 18.7389C14.3386 18.7389 17.2405 16.6811 18.4841 14.9621V8.44947H8.94943V11.4516H14.9238L14.8995 13.5095C14.8995 13.5095 13.1437 15.18 9.97362 15.18C6.55966 15.18 4.60883 12.88 4.60883 9.24842C4.60883 5.59263 6.55966 3.29263 9.92485 3.29263C11.9244 3.29263 13.412 4.47895 14.4118 6.22211ZM20.1423 22.8305V19.7558C20.8495 19.8768 21.3128 19.9011 21.8005 19.9011C23.2636 19.9011 24.361 19.3926 24.8487 18.3758L24.9462 18.0126L19.1425 5.93158H23.7514L26.6776 13.34C26.8971 13.8726 26.9702 14.1874 27.0678 14.6958H27.1409C27.2141 14.26 27.3116 13.9453 27.5067 13.3642L30.311 5.93158H34.6272L29.1161 18.5937C27.7505 21.7411 25.7266 23 22.2151 23C21.6786 23 20.8251 22.9516 20.1423 22.8305ZM39.992 5.93158V8.35263C40.8211 6.48842 42.333 5.56842 44.5033 5.56842C46.6492 5.56842 48.0879 6.48842 48.8195 8.37684C49.8193 6.51263 51.4531 5.56842 53.599 5.56842C56.6472 5.56842 58.3542 7.45684 58.3542 10.8705V18.0368H54.1843V11.6211C54.1843 9.63579 53.404 8.66737 51.8433 8.66737C50.2095 8.66737 49.2341 9.78105 49.2341 11.6937V18.0368H45.0642V11.6211C45.0642 9.63579 44.2838 8.66737 42.7232 8.66737C41.0893 8.66737 40.1139 9.80526 40.1139 11.7663V18.0368H35.944V5.93158H39.992ZM60.6952 5.93158H64.7432V7.96526C65.743 6.39158 67.5719 5.56842 69.7178 5.56842C73.3756 5.56842 75.7897 8.08632 75.7897 11.9358C75.7897 15.8337 73.2536 18.4 69.5471 18.4C67.4987 18.4 65.8893 17.6253 64.8651 16.3421V22.7579H60.6952V5.93158ZM71.4735 11.9358C71.4735 9.66 70.2542 8.35263 68.1571 8.35263C66.1087 8.35263 64.7675 9.58737 64.7675 11.7421V12.2505C64.7675 14.2842 66.1087 15.6158 68.1327 15.6158C70.2055 15.6158 71.4735 14.2116 71.4735 11.9358ZM77.3992 14.72C77.3992 13.6063 77.8625 12.6863 78.716 12.0811C79.5695 11.5 80.7887 11.1368 82.959 10.9189L87.4947 10.5074V10.1442C87.4947 8.78842 86.5681 8.13474 84.9099 8.13474C83.2273 8.13474 82.2275 8.78842 82.0568 9.99895H77.7893C78.1063 7.23895 80.8131 5.56842 84.9342 5.56842C89.5675 5.56842 91.689 7.23895 91.689 10.7495V14.5021C91.689 16.0516 91.7865 17.1895 91.9816 18.0368H87.8605C87.7629 17.4558 87.6898 16.7053 87.6898 15.9789C86.8851 17.5042 84.983 18.4 82.3982 18.4C79.3256 18.4 77.3992 16.9958 77.3992 14.72ZM87.5922 13.2432V12.4684L84.2271 12.8074C82.3738 13.0253 81.6666 13.5095 81.6666 14.4537C81.6666 15.3495 82.5445 15.8821 83.9832 15.8821C86.1291 15.8821 87.5922 14.8411 87.5922 13.2432ZM93.1521 15.5189L95.3956 13.6305C96.5417 14.9863 98.273 15.7126 100.809 15.7126C102.516 15.7126 103.272 15.3495 103.272 14.5989C103.272 13.9211 102.906 13.6547 101.516 13.5095L98.273 13.1947C95.298 12.8316 93.8837 11.5968 93.8837 9.46632C93.8837 6.99684 96.1759 5.56842 100.273 5.56842C103.223 5.56842 105.613 6.39158 106.979 7.86842L105.028 9.85368C103.784 8.74 102.248 8.20737 100.053 8.20737C98.4437 8.20737 97.6878 8.52211 97.6878 9.22421C97.6878 9.80526 98.1267 10.0958 99.2485 10.2168L102.833 10.58C105.832 10.9189 107.027 12.1537 107.027 14.2842C107.027 16.8505 104.857 18.4 100.614 18.4C97.2245 18.4 94.664 17.4074 93.1521 15.5189ZM108.125 15.5189L110.368 13.6305C111.514 14.9863 113.246 15.7126 115.782 15.7126C117.489 15.7126 118.245 15.3495 118.245 14.5989C118.245 13.9211 117.879 13.6547 116.489 13.5095L113.246 13.1947C110.271 12.8316 108.856 11.5968 108.856 9.46632C108.856 6.99684 111.149 5.56842 115.245 5.56842C118.196 5.56842 120.586 6.39158 121.951 7.86842L120 9.85368C118.757 8.74 117.22 8.20737 115.026 8.20737C113.416 8.20737 112.66 8.52211 112.66 9.22421C112.66 9.80526 113.099 10.0958 114.221 10.2168L117.806 10.58C120.805 10.9189 122 12.1537 122 14.2842C122 16.8505 119.83 18.4 115.587 18.4C112.197 18.4 109.637 17.4074 108.125 15.5189Z" fill="white"></path></svg>