<svg xmlns="http://www.w3.org/2000/svg" width="24" height="40" viewBox="0 0 24 40" fill="none"><path fill-rule="evenodd" clip-rule="evenodd" d="M0.563635 14.172C0.546622 10.5663 1.89932 6.94516 4.62176 4.17387C7.34419 1.40257 10.9177 0.00917631 14.4858 0C14.5028 3.60568 13.1501 7.22688 10.4277 9.99817C7.70524 12.7695 4.13178 14.1629 0.563635 14.172ZM3.43856 20.1952C5.94958 17.6148 9.43289 16.0022 13.283 15.9737C17.1331 15.9453 20.6164 17.5064 23.1274 20.0497C20.6164 22.6301 17.1331 24.2428 13.283 24.2712C9.43289 24.2997 5.94958 22.7385 3.43856 20.1952ZM4.62173 35.9705C1.89931 33.2395 0.546629 29.6383 0.563668 26.0323C4.13182 25.9888 7.70529 27.3293 10.4277 30.0603C13.1501 32.7914 14.5028 36.3926 14.4858 39.9985C10.9176 40.0421 7.34415 38.7016 4.62173 35.9705Z" fill="#45842E"></path></svg>