<svg xmlns="http://www.w3.org/2000/svg" width="23" height="40" viewBox="0 0 23 40" fill="none"><path fill-rule="evenodd" clip-rule="evenodd" d="M22.5638 14.172C22.5808 10.5663 21.2281 6.94516 18.5057 4.17387C15.7833 1.40257 12.2098 0.00917639 8.64164 0C8.62463 3.60568 9.97733 7.22688 12.6998 9.99817C15.4222 12.7695 18.9957 14.1629 22.5638 14.172ZM19.6889 20.1952C17.1779 17.6148 13.6945 16.0022 9.84446 15.9737C5.99437 15.9453 2.51105 17.5064 3.8147e-05 20.0497C2.51105 22.6301 5.99437 24.2428 9.84446 24.2712C13.6945 24.2997 17.1779 22.7385 19.6889 20.1952ZM18.5057 35.9705C21.2281 33.2395 22.5808 29.6383 22.5638 26.0323C18.9956 25.9888 15.4222 27.3293 12.6997 30.0603C9.97731 32.7914 8.62463 36.3926 8.64167 39.9985C12.2098 40.0421 15.7833 38.7016 18.5057 35.9705Z" fill="#317121"></path></svg>