<svg xmlns="http://www.w3.org/2000/svg" width="24" height="40" viewBox="0 0 24 40" fill="none"><path fill-rule="evenodd" clip-rule="evenodd" d="M0.564123 14.172C0.547111 10.5663 1.89981 6.94516 4.62224 4.17387C7.34468 1.40257 10.9181 0.00917639 14.4863 0C14.5033 3.60568 13.1506 7.22688 10.4282 9.99817C7.70573 12.7695 4.13227 14.1629 0.564123 14.172ZM3.43905 20.1952C5.95007 17.6148 9.43338 16.0022 13.2835 15.9737C17.1336 15.9453 20.6169 17.5064 23.1279 20.0497C20.6169 22.6301 17.1336 24.2428 13.2835 24.2712C9.43338 24.2997 5.95007 22.7385 3.43905 20.1952ZM4.62222 35.9705C1.89979 33.2395 0.547117 29.6383 0.564157 26.0323C4.13231 25.9888 7.70577 27.3293 10.4282 30.0603C13.1506 32.7914 14.5033 36.3926 14.4863 39.9985C10.9181 40.0421 7.34464 38.7016 4.62222 35.9705Z" fill="#317121"></path></svg>