<svg xmlns="http://www.w3.org/2000/svg" width="23" height="40" viewBox="0 0 23 40" fill="none"><path fill-rule="evenodd" clip-rule="evenodd" d="M22.5633 14.172C22.5803 10.5663 21.2276 6.94516 18.5052 4.17387C15.7828 1.40257 12.2093 0.00917631 8.64115 0C8.62414 3.60568 9.97684 7.22688 12.6993 9.99817C15.4217 12.7695 18.9952 14.1629 22.5633 14.172ZM19.6884 20.1952C17.1774 17.6148 13.6941 16.0022 9.84397 15.9737C5.99389 15.9453 2.51057 17.5064 -0.000450134 20.0497C2.51056 22.6301 5.99388 24.2428 9.84397 24.2712C13.6941 24.2997 17.1774 22.7385 19.6884 20.1952ZM18.5052 35.9705C21.2276 33.2395 22.5803 29.6383 22.5633 26.0323C18.9951 25.9888 15.4217 27.3293 12.6992 30.0603C9.97682 32.7914 8.62414 36.3926 8.64118 39.9985C12.2093 40.0421 15.7828 38.7016 18.5052 35.9705Z" fill="#45842E"></path></svg>