<svg xmlns="http://www.w3.org/2000/svg" width="135" height="35" viewBox="0 0 135 35" fill="none"><path fill-rule="evenodd" clip-rule="evenodd" d="M5.1812 4.80969L11.436 11.4355C11.8889 11.8279 12.9751 12.8536 12.1603 13.9703C12.1603 13.9703 11.8589 15.117 9.98796 14.5736L0.808594 11.8493C1.13992 10.8136 1.57017 9.81221 2.09339 8.85895L10.9837 13.7589C11.8889 13.8493 11.587 12.9741 11.2251 12.8536L3.10946 7.23101C3.72361 6.36152 4.41717 5.55094 5.1812 4.80969Z" fill="white"></path><path fill-rule="evenodd" clip-rule="evenodd" d="M9.26555 1.87659L13.1258 9.62501C13.1258 9.62501 14.3635 11.7374 13.6692 13.4269C13.6692 13.4269 13.1564 16.0222 10.3801 16.8065C10.3801 16.8065 5.2195 17.1052 0.00053504 17.0785L0 17.0479C0 15.8863 0.116701 14.7524 0.337794 13.6566L9.9572 15.5394C9.9572 15.5394 11.4358 15.5693 12.2806 14.3927C12.2806 14.3927 13.4272 13.1256 12.4615 11.0736L6.56158 3.60679C7.40661 2.94647 8.31193 2.36718 9.26555 1.87659Z" fill="white"></path><path fill-rule="evenodd" clip-rule="evenodd" d="M14.0255 0.266907C15.4569 8.57796 15.5699 10.0774 15.5699 10.0774C15.5699 10.0774 16.4446 16.3837 9.32416 19.3708C9.32416 19.3708 6.30541 20.6562 0.774348 22.1556C0.679401 21.8505 0.592999 21.5427 0.515246 21.2327L0.139979 19.2493C0.12201 19.1093 0.105946 18.969 0.0917969 18.8285C1.16621 18.8414 8.11699 18.0138 8.11699 18.0138C8.11699 18.0138 11.2551 17.6214 12.5222 16.2033C12.5222 16.2033 16.2032 14.0303 13.518 7.42271C13.518 7.42271 13.018 6.1181 10.9023 1.14271C11.9129 0.751428 12.9588 0.458145 14.0255 0.266907ZM29.4275 5.29851L23.0828 11.5865C22.601 11.9484 21.5142 12.9441 22.2685 14.0908C22.2685 14.0908 22.5405 15.2375 24.4109 14.7546L33.4864 12.4061C33.1946 11.3738 32.8053 10.3716 32.3237 9.41308L23.4457 13.9093C22.5405 13.9698 22.8718 13.1251 23.2343 13.0041L31.3858 7.77817C30.811 6.89293 30.1555 6.06283 29.4275 5.29851Z" fill="white"></path><path fill-rule="evenodd" clip-rule="evenodd" d="M25.493 2.22406L21.4234 9.71552C21.4234 9.71552 20.1563 11.7675 20.7896 13.4875C20.7896 13.4875 21.1814 16.0828 23.9272 16.988C23.9272 16.988 28.9909 17.4538 34.1162 17.6133C34.1226 17.4259 34.1269 17.2375 34.1269 17.0485C34.1269 16.0855 34.0455 15.1417 33.8919 14.2225L24.4106 15.7209C24.4106 15.7209 22.932 15.6909 22.1177 14.5142C22.1177 14.5142 21.0315 13.1866 22.0572 11.1652L28.1017 4.04955C27.2908 3.36128 26.4174 2.75013 25.493 2.22406Z" fill="white"></path><path fill-rule="evenodd" clip-rule="evenodd" d="M20.8399 0.421692C19.1777 8.59035 19.0091 10.078 19.0091 10.078C19.0091 10.078 17.8934 16.3543 24.924 19.5829C24.924 19.5829 27.8276 20.9319 33.1997 22.6177C33.5631 21.5602 33.8211 20.4695 33.9701 19.3613C32.4572 19.2504 26.1606 18.2553 26.1606 18.2553C26.1606 18.2553 23.0519 17.7724 21.8153 16.3238C21.8153 16.3238 18.2248 14.0004 21.1515 7.48274C21.1515 7.48274 21.6981 6.22685 23.9063 1.42919C22.9185 0.996702 21.8917 0.659344 20.8399 0.421692Z" fill="white"></path><path fill-rule="evenodd" clip-rule="evenodd" d="M17.2593 11.9484C16.5955 15.7504 13.035 19.4319 13.035 19.4319C15.8412 18.4361 21.2727 19.4319 21.2727 19.4319C18.7673 16.8066 17.7416 13.9399 17.2593 11.9484ZM15.7609 0.047954C16.7778 -0.0277651 17.7994 -0.0137909 18.8139 0.0897116C17.5971 8.67057 18.225 11.0432 18.225 11.0432C18.9194 18.4961 26.1308 21.3023 26.1308 21.3023C31.1549 23.8783 32.2128 24.4062 32.4199 24.5084C31.9391 25.4982 31.3638 26.4392 30.7021 27.3184L25.648 23.5057C23.3851 21.6653 21.5746 20.8805 21.5746 20.8805C20.0061 20.3071 18.6785 20.0357 16.8374 20.0357C14.997 20.0357 13.3069 20.0962 10.9536 21.4843C8.687 22.7996 3.69555 26.2167 2.98302 26.706C2.75461 26.372 2.53785 26.0303 2.33312 25.6813L1.54779 24.1728C1.49106 24.0485 1.43574 23.9236 1.38184 23.798L9.38453 20.3987C9.80691 20.2172 12.8546 18.3162 14.2127 16.4158C15.5403 14.4848 16.2946 12.131 16.4761 10.2905C16.6255 8.75462 15.9798 2.1925 15.7609 0.047954Z" fill="white"></path><path fill-rule="evenodd" clip-rule="evenodd" d="M21.178 33.6247L18.7985 25.1043C18.7085 24.5309 18.3456 23.0829 16.9885 23.1733C16.9885 23.1733 15.8723 22.8714 15.3595 24.7119L13.0527 33.6541C14.0853 33.9023 15.1388 34.0536 16.1994 34.1059L16.5966 24.29C16.9591 23.4753 17.5324 24.1996 17.4719 24.5615L18.0892 34.0941C19.1309 34.0318 20.1648 33.8747 21.178 33.6247Z" fill="white"></path><path fill-rule="evenodd" clip-rule="evenodd" d="M25.7787 31.7355L21.2128 24.5915C21.2128 24.5915 20.0367 22.4491 18.2562 22.1777C18.2562 22.1777 15.7519 21.2724 13.6395 23.2339C13.6395 23.2339 10.8589 27.3196 8.26953 31.6938C9.22803 32.2707 10.2409 32.7519 11.2936 33.1306L14.5142 24.2601C14.5142 24.2601 15.2685 22.993 16.6871 22.872C16.6871 22.872 18.3766 22.5401 19.6438 24.4111L22.9205 33.0942C23.9134 32.731 24.8702 32.2762 25.7787 31.7355Z" fill="white"></path><path fill-rule="evenodd" clip-rule="evenodd" d="M29.6404 28.5941C23.2957 23.1401 22.0869 22.268 22.0869 22.268C22.0869 22.268 17.1383 18.2552 10.892 22.8414C10.892 22.8414 8.34702 24.7001 4.37109 28.4725C5.10801 29.2925 5.92227 30.0396 6.80258 30.7033C7.83095 29.2156 11.4653 24.5614 11.4653 24.5614C11.4653 24.5614 13.3963 22.0871 15.2673 21.7247C15.2673 21.7247 19.0387 19.6727 23.3235 25.4062C23.3235 25.4062 24.141 26.4972 27.2539 30.7504C28.1151 30.1078 28.9141 29.3859 29.6404 28.5941Z" fill="white"></path><path fill-rule="evenodd" clip-rule="evenodd" d="M40.916 7.92748C42.0022 8.80275 42.5156 9.2551 43.3903 10.4013V21.4457C43.3903 21.7771 43.3598 24.3724 42.787 26.2734H46.6794C46.1061 24.7948 45.9251 22.5019 45.9251 20.9024V13.6609L53.7405 23.6481C54.3743 24.4334 54.9776 25.3087 55.3095 26.2734H58.7196C58.4482 25.5196 58.1163 24.5533 58.1163 21.7166V11.8493C58.1163 9.88894 58.3277 8.89268 58.5692 7.92748H55.0386C55.34 8.98369 55.5515 9.82845 55.5515 13.2075V21.5656L47.2538 11.0346C45.8052 9.19408 45.6248 8.74172 45.2924 7.92694H40.916V7.92748ZM68.9782 7.83701H68.8272L61.7362 21.8981C60.2276 24.9157 59.6843 25.5796 59.081 26.2739H63.5467C63.4562 24.8258 64.1805 23.2562 64.4819 22.5619L65.4177 20.571H71.8749L72.9311 23.0448C73.5949 24.5533 73.6854 25.4891 73.6854 26.2734L78.0607 26.2428C77.3669 25.3082 76.5216 24.131 75.194 21.2637L68.9782 7.83701ZM68.7667 13.5099L70.9091 18.4286H66.4434L68.7667 13.5099ZM87.4451 8.59182C86.5698 8.22887 85.3931 7.71655 83.7036 7.71655C80.7159 7.71655 78.2721 10.1298 78.2721 13.0271C78.2721 15.8333 79.8412 16.7985 83.7636 19.2428C84.3069 19.6047 85.3027 20.4189 85.3027 21.6861C85.3027 22.9837 84.156 24.2519 82.5569 24.2519C80.8669 24.2519 79.8112 22.9837 78.9659 22.0185V25.9109C79.8112 26.1524 80.6859 26.3938 82.134 26.3938C85.9659 26.3938 88.3503 24.1909 88.3503 21.1732C88.3503 19.3927 87.5955 17.9446 84.9708 16.4355C82.6474 15.1079 81.1083 14.2021 81.1083 12.4821C81.1083 11.034 82.376 10.0083 83.9745 10.0083C85.6041 10.0083 86.6298 10.7926 87.4445 11.4564V8.59182H87.4451ZM89.5875 20.299C89.5875 23.3167 89.1046 25.0062 88.7732 26.2734H93.058C92.6962 24.8558 92.3332 22.5019 92.3332 21.0833V18.0961L93.058 18.1266C95.3814 18.3076 99.0629 17.0704 99.0629 13.0576C99.0629 9.9489 96.5575 7.92801 92.8771 7.92801H88.8937C89.1656 8.59183 89.588 9.58754 89.588 12.8467V20.299H89.5875ZM92.3332 11.1855C92.3332 10.5822 92.3937 9.76795 92.4242 9.13412C93.2995 9.25564 94.2342 9.37555 94.989 10.1903C95.8337 11.0656 96.1651 12.2123 96.1651 13.238C96.1651 16.5276 93.5104 17.0399 92.3332 17.2203V11.1855ZM99.5452 7.92748C100.058 9.496 100.238 11.337 100.238 12.5742V21.5662C100.238 23.9195 99.8466 25.2171 99.5452 26.2734H109.171L110.498 23.2257C106.606 24.5533 105.309 24.5533 102.984 24.5533V17.8253C104.373 17.9457 105.067 18.0367 107.149 18.6395L108.718 16.0747H102.984V9.6475C104.915 9.58701 105.972 9.82844 108.054 10.7631L109.442 7.92748H99.5452ZM111.736 21.5357C111.736 23.1352 111.645 24.4634 111.253 26.2734H114.965C114.482 24.3119 114.452 23.7391 114.452 22.321V17.7947C118.254 22.8333 119.4 24.1615 121.874 26.2734H124.379C122.206 23.6781 119.943 20.9323 118.314 18.0656C119.128 17.6127 121.784 16.1347 121.784 13.147C121.784 10.6732 119.551 7.83647 114.843 7.92748L111.253 7.95692C111.464 8.59183 111.736 9.61752 111.736 11.7599V21.5357ZM114.451 9.496C118.133 9.85896 119.008 12.0608 119.008 13.4189C119.008 16.2557 116.202 17.0399 114.451 17.5228V9.496ZM134.095 8.59182C133.219 8.22887 132.043 7.71655 130.384 7.71655C127.366 7.71655 124.952 10.1298 124.952 13.0271C124.952 15.8333 126.491 16.7985 130.414 19.2428C130.957 19.6047 131.952 20.4189 131.952 21.6861C131.952 22.9837 130.806 24.2519 129.237 24.2519C127.547 24.2519 126.461 22.9837 125.616 22.0185V25.9109C126.491 26.1524 127.336 26.3938 128.784 26.3938C132.616 26.3938 135 24.1909 135 21.1732C135 19.3927 134.276 17.9446 131.621 16.4355C129.328 15.1079 127.789 14.2021 127.789 12.4821C127.789 11.034 129.026 10.0083 130.625 10.0083C132.255 10.0083 133.28 10.7926 134.095 11.4564V8.59182Z" fill="white"></path></svg>