<svg xmlns="http://www.w3.org/2000/svg" width="106" height="29" viewBox="0 0 106 29" fill="none"><path d="M14.5753 27.1307C12.9808 27.4142 11.3581 27.4992 9.67964 27.7255L4.55997 12.546V28.377C2.96541 28.5469 1.51071 28.7734 0 29V0H4.25242L10.0712 16.4543V0H14.5753V27.1307ZM23.3877 10.6201C25.1223 10.6201 27.78 10.5351 29.3745 10.5351V15.0663C27.3882 15.0663 25.0663 15.0663 23.3877 15.1513V21.8916C26.0175 21.7218 28.6472 21.495 31.3048 21.41V25.7711L18.9115 26.7625V0H31.3048V4.53126H23.3877V10.6201ZM47.9503 4.53136H43.3064V25.3751C41.7957 25.3751 40.285 25.3751 38.8305 25.4316V4.53136H34.1866V0H47.9505L47.9503 4.53136ZM55.2239 10.3087H61.3507V14.8398H55.2239V25.1202H50.8315V0H63.337V4.53126H55.2239V10.3087ZM70.6106 21.1553C73.1565 21.2117 75.7301 21.4103 78.22 21.5517V26.0264C74.2196 25.7713 70.219 25.5168 66.1346 25.4316V0H70.6106V21.1553ZM81.9967 26.3379C83.4235 26.423 84.9342 26.508 86.3889 26.6776V0H81.9967V26.3379ZM106 0L100.321 13.792L106 29C104.321 28.7734 102.643 28.4619 100.964 28.1786L97.7471 19.796L94.4743 27.4992C92.8513 27.2157 91.2847 27.1307 89.6624 26.9042L95.4254 13.622L90.2217 0H95.0333L97.9708 7.61818L101.104 0H106Z" fill="white"></path></svg>