<svg xmlns="http://www.w3.org/2000/svg" width="124" height="35" viewBox="0 0 124 35" fill="none"><path d="M34.4756 0.863552C35.7648 0.676165 37.0664 0.586543 38.3691 0.595453C40.2875 0.595453 41.6304 0.882701 42.5511 1.61231C43.3179 2.22607 43.7402 3.12755 43.7402 4.31675C43.7402 5.96585 42.5696 7.09808 41.4573 7.49966V7.55806C42.3588 7.92268 42.858 8.78567 43.1834 9.97478C43.5864 11.433 43.9894 13.1206 44.2387 13.6191H41.2466C41.036 13.2545 40.7282 12.1992 40.3451 10.6071C39.9998 8.99641 39.4436 8.55491 38.2545 8.53643H37.3715V13.6193H34.4756V0.863552ZM37.3715 6.42659H38.5229C39.9805 6.42659 40.8435 5.69746 40.8435 4.56666C40.8435 3.37755 40.0381 2.78227 38.6952 2.7637C38.2519 2.75542 37.8089 2.78747 37.3714 2.85945V6.42688L37.3715 6.42659Z" fill="white"></path><path d="M47.5842 9.85916C47.6799 11.0683 48.8694 11.6435 50.2309 11.6435C51.1091 11.6537 51.9833 11.5239 52.8206 11.259L53.2044 13.2357C52.2452 13.6187 51.0746 13.811 49.8093 13.811C46.6249 13.811 44.8027 11.9697 44.8027 9.03447C44.8027 6.65615 46.2796 4.02869 49.5408 4.02869C52.5714 4.02869 53.722 6.387 53.722 8.70834C53.7222 9.09392 53.6902 9.47883 53.6262 9.85906H47.5844L47.5842 9.85916ZM51.0177 7.86393C51.0177 7.15471 50.7109 5.9656 49.3679 5.9656C48.1403 5.9656 47.6418 7.07783 47.5649 7.86393H51.0177Z" fill="white"></path><path d="M55.1866 11.0681C55.7242 11.3942 56.8364 11.7773 57.6994 11.7773C58.5816 11.7773 58.9463 11.4697 58.9463 10.9912C58.9463 10.5127 58.659 10.2805 57.5656 9.91737C55.6281 9.26513 54.8797 8.20987 54.8988 7.09765C54.8988 5.35166 56.3949 4.02869 58.7162 4.02869C59.8092 4.02869 60.7875 4.27764 61.3629 4.56555L60.8454 6.57916C60.2181 6.2455 59.522 6.06173 58.8117 6.0423C58.1025 6.0423 57.6995 6.32954 57.6995 6.80992C57.6995 7.25037 58.0641 7.48064 59.2147 7.88375C60.9985 8.4975 61.7468 9.39898 61.7661 10.7805C61.7661 12.525 60.3847 13.811 57.6995 13.811C56.4719 13.811 55.3789 13.5419 54.6689 13.1588L55.1866 11.0681Z" fill="white"></path><path d="M72.0037 10.6069C72.0037 11.8345 72.042 12.8328 72.0803 13.6189H69.5487L69.4146 12.2959H69.3572C68.9926 12.8712 68.1103 13.8297 66.4228 13.8297C64.5237 13.8297 63.123 12.6406 63.123 9.74387V4.23962H66.0581V9.28389C66.0581 10.6454 66.4986 11.4699 67.5157 11.4699C68.3211 11.4699 68.7818 10.9146 68.9733 10.455C69.0469 10.2522 69.0794 10.0367 69.0691 9.82124V4.23962H72.0037V10.607V10.6069Z" fill="white"></path><path d="M74.0361 0H76.952V13.6189H74.0361V0Z" fill="white"></path><path d="M82.325 1.55359V4.23945H84.4156V6.38702H82.325V9.7821C82.325 10.9142 82.5931 11.4326 83.4757 11.4326C83.7651 11.4335 84.054 11.4078 84.3387 11.356L84.3578 13.562C83.9741 13.7143 83.2833 13.8109 82.4587 13.8109C81.5189 13.8109 80.7327 13.4848 80.272 13.0049C79.7352 12.4481 79.4667 11.5467 79.4667 10.2236V6.38712H78.2197V4.23955H79.4666V2.20583L82.325 1.55359Z" fill="white"></path><path d="M91.1886 13.6189L91.0156 12.679H90.9586C90.3449 13.4267 89.3856 13.8297 88.2728 13.8297C86.3744 13.8297 85.2422 12.4483 85.2422 10.953C85.2422 8.51637 87.4289 7.34707 90.7471 7.36565V7.2316C90.7471 6.73313 90.479 6.02248 89.0403 6.02248C88.0812 6.02248 87.0643 6.3486 86.4505 6.73313L85.9137 4.85328C86.5659 4.48867 87.8512 4.02869 89.558 4.02869C92.6847 4.02869 93.6823 5.87004 93.6823 8.07601V11.3358C93.6823 12.2373 93.7206 13.1003 93.8164 13.6187H91.1886V13.6189ZM90.8432 9.18843C89.3088 9.16852 88.1196 9.53313 88.1196 10.6653C88.1196 11.413 88.618 11.7775 89.2703 11.7775C89.6034 11.7794 89.9288 11.6769 90.2006 11.4843C90.4724 11.2916 90.6769 11.0186 90.7855 10.7037C90.8246 10.5404 90.8439 10.3731 90.843 10.2052V9.18834L90.8432 9.18843Z" fill="white"></path><path d="M104.739 0V10.8191C104.739 11.8729 104.776 12.9866 104.815 13.6189H102.226L102.091 12.2375H102.053C101.458 13.2928 100.327 13.8298 99.1184 13.8298C96.8932 13.8298 95.1095 11.9314 95.1095 9.01481C95.0904 5.85038 97.0662 4.02894 99.3099 4.02894C100.461 4.02894 101.363 4.43052 101.784 5.08276H101.823V0H104.739H104.739ZM101.823 8.21013C101.819 8.03676 101.807 7.8637 101.784 7.69174C101.612 6.90564 100.979 6.25339 100.078 6.25339C98.7538 6.25339 98.0631 7.4425 98.0631 8.91934C98.0631 10.5116 98.85 11.5084 100.058 11.5084C100.902 11.5084 101.574 10.9331 101.746 10.1085C101.802 9.88944 101.828 9.66376 101.823 9.43773V8.21013H101.823Z" fill="white"></path><path d="M116.02 8.82382C116.02 12.2574 113.584 13.8296 111.071 13.8296C108.329 13.8296 106.219 12.0266 106.219 8.99607C106.219 5.96551 108.213 4.02869 111.225 4.02869C114.102 4.02878 116.02 6.00409 116.02 8.82382ZM109.23 8.91957C109.23 10.5317 109.901 11.7393 111.148 11.7393C112.28 11.7393 113.009 10.6072 113.009 8.91957C113.009 7.51961 112.472 6.09984 111.148 6.09984C109.748 6.09946 109.23 7.5379 109.23 8.91928L109.23 8.91957Z" fill="white"></path><path d="M117.42 11.0681C117.957 11.3942 119.07 11.7773 119.933 11.7773C120.815 11.7773 121.18 11.4697 121.18 10.9912C121.18 10.5127 120.893 10.2805 119.798 9.91737C117.862 9.26513 117.113 8.20987 117.132 7.09765C117.132 5.35166 118.629 4.02869 120.95 4.02869C122.043 4.02869 123.021 4.27764 123.596 4.56555L123.079 6.57926C122.451 6.24559 121.755 6.06183 121.045 6.04239C120.336 6.04239 119.933 6.32964 119.933 6.81002C119.933 7.25046 120.298 7.48074 121.448 7.88385C123.232 8.4976 123.98 9.39908 123.999 10.7806C123.999 12.5251 122.618 13.8111 119.933 13.8111C118.705 13.8111 117.612 13.542 116.902 13.1589L117.42 11.0681Z" fill="white"></path><path d="M34.4756 17.2412C35.6503 17.0643 36.8366 16.9747 38.0245 16.9731C40.422 16.9731 42.1288 17.5284 43.2611 18.5838C44.4118 19.639 45.0833 21.1344 45.0833 23.2264C45.0833 25.3355 44.431 27.0615 43.2227 28.2507C42.0143 29.4599 40.0191 30.1121 37.5064 30.1121C36.4942 30.1176 35.4824 30.0663 34.4759 29.9583V17.2412H34.4756ZM36.1447 28.6737C36.566 28.7503 37.18 28.7694 37.8323 28.7694C41.4004 28.7694 43.3372 26.7742 43.3372 23.2836C43.3563 20.2332 41.6304 18.2963 38.1007 18.2963C37.4444 18.2862 36.7889 18.3439 36.1446 18.4687V28.674L36.1447 28.6737Z" fill="white"></path><path d="M48.6488 18.1045C48.668 18.6798 48.2467 19.1412 47.575 19.1412C47.4393 19.1429 47.3047 19.1171 47.1792 19.0654C47.0538 19.0136 46.9401 18.937 46.8451 18.8401C46.75 18.7432 46.6756 18.6281 46.6263 18.5017C46.577 18.3752 46.5538 18.2401 46.5581 18.1045C46.5546 17.965 46.5795 17.8263 46.6313 17.6967C46.6832 17.5672 46.7608 17.4496 46.8595 17.351C46.9582 17.2524 47.076 17.1749 47.2056 17.1233C47.3352 17.0717 47.4739 17.047 47.6134 17.0507C48.2465 17.0507 48.6488 17.5106 48.6488 18.1045ZM46.769 29.9973V20.7135H48.4572V29.9973H46.769Z" fill="white"></path><path d="M58.7565 20.7135C58.7188 21.3857 58.6799 22.1334 58.6799 23.2641V28.6548C58.6799 30.7838 58.2577 32.0883 57.3562 32.8943C56.4547 33.7374 55.1502 34.0066 53.9803 34.0066C52.8681 34.0066 51.6404 33.7374 50.8921 33.2389L51.3143 31.9544C52.1385 32.4418 53.0805 32.694 54.038 32.6835C55.7641 32.6835 57.0301 31.782 57.0301 29.4408V28.4052H56.9918C56.4741 29.2682 55.4766 29.959 54.0381 29.959C51.736 29.959 50.0869 28.0022 50.0869 25.4316C50.0869 22.2871 52.1391 20.5027 54.2681 20.5027C55.8795 20.5027 56.7617 21.3473 57.1648 22.1134H57.2025L57.2791 20.7135H58.756H58.7565ZM57.0113 24.3777C57.0211 24.1184 56.9887 23.8591 56.9156 23.6101C56.6087 22.6317 55.7841 21.8257 54.5565 21.8257C52.9451 21.8257 51.7944 23.1886 51.7944 25.3362C51.7944 27.1591 52.7151 28.6743 54.5373 28.6743C55.5733 28.6743 56.5132 28.022 56.8778 26.9468C56.9689 26.655 57.0142 26.3509 57.0119 26.0453V24.3778L57.0113 24.3777Z" fill="white"></path><path d="M62.8285 18.1045C62.8477 18.6798 62.4264 19.1412 61.7547 19.1412C61.619 19.1429 61.4843 19.1171 61.3589 19.0654C61.2334 19.0136 61.1198 18.937 61.0247 18.8401C60.9297 18.7432 60.8553 18.6281 60.806 18.5017C60.7567 18.3752 60.7335 18.2401 60.7378 18.1045C60.7343 17.965 60.7592 17.8263 60.811 17.6967C60.8628 17.5672 60.9405 17.4496 61.0392 17.351C61.1379 17.2524 61.2556 17.1749 61.3852 17.1233C61.5149 17.0717 61.6536 17.047 61.7931 17.0507C62.4262 17.0507 62.8285 17.5106 62.8285 18.1045ZM60.9487 29.9973V20.7135H62.637V29.9973H60.9487Z" fill="white"></path><path d="M67.1103 18.0476V20.7136H69.527V21.9996H67.1103V27.0053C67.1103 28.1561 67.4364 28.8083 68.3764 28.8083C68.7061 28.8135 69.0352 28.7749 69.3547 28.6934L69.4313 29.9595C69.1052 30.0936 68.5875 30.1903 67.9353 30.1903C67.1492 30.1903 66.5162 29.9413 66.1131 29.4796C65.6343 28.9811 65.4608 28.1566 65.4608 27.0629V21.9996H64.0225V20.7136H65.4608V18.4891L67.1103 18.0476Z" fill="white"></path><path d="M76.2092 29.9974L76.0746 28.8267H76.0171C75.4994 29.5559 74.5019 30.2081 73.1788 30.2081C71.299 30.2081 70.3398 28.8851 70.3398 27.5421C70.3398 25.2977 72.3343 24.0701 75.922 24.0901V23.8978C75.922 23.1302 75.7105 21.7488 73.8122 21.7488C72.9581 21.7517 72.1214 21.9908 71.3947 22.4396L71.0117 21.3273C71.7786 20.8289 72.8909 20.5027 74.0615 20.5027C76.8998 20.5027 77.5905 22.4396 77.5905 24.3009V27.773C77.5781 28.5175 77.6296 29.2617 77.7442 29.9974H76.2092V29.9974ZM75.9593 25.2593C74.1179 25.221 72.0272 25.5465 72.0272 27.3499C72.0272 28.4436 72.7564 28.962 73.6195 28.962C74.8278 28.962 75.5954 28.1944 75.8639 27.4083C75.9236 27.2354 75.9559 27.0543 75.9597 26.8714V25.2593H75.9593Z" fill="white"></path><path d="M81.6508 18.1045C81.6699 18.6798 81.2486 19.1413 80.5769 19.1413C80.4412 19.1429 80.3066 19.1171 80.1812 19.0654C80.0557 19.0136 79.942 18.937 79.847 18.8401C79.752 18.7432 79.6776 18.6281 79.6283 18.5017C79.5789 18.3752 79.5558 18.2401 79.5601 18.1045C79.5566 17.965 79.5815 17.8263 79.6333 17.6967C79.6851 17.5672 79.7628 17.4495 79.8615 17.351C79.9602 17.2524 80.078 17.1749 80.2076 17.1233C80.3372 17.0717 80.476 17.0469 80.6154 17.0507C81.2484 17.0507 81.6508 17.5106 81.6508 18.1045ZM79.7709 29.9973V20.7135H81.4592V29.9973H79.7709Z" fill="white"></path><path d="M83.4402 28.2709C84.109 28.6887 84.8772 28.9203 85.6654 28.9416C86.8931 28.9416 87.4684 28.3279 87.4684 27.5603C87.4684 26.756 86.9897 26.3142 85.7423 25.8542C84.0732 25.2589 83.2871 24.339 83.2871 23.2266C83.2871 21.7299 84.4955 20.5023 86.49 20.5023C87.2877 20.4948 88.0739 20.6929 88.7728 21.0776L88.3506 22.3052C87.7797 21.9532 87.1221 21.7673 86.4515 21.7684C85.4546 21.7684 84.8977 22.3437 84.8977 23.0345C84.8977 23.8021 85.4546 24.1467 86.663 24.6067C88.2737 25.2204 89.0989 26.0265 89.0989 27.4079C89.0989 29.0385 87.8328 30.1892 85.6269 30.1892C84.61 30.1892 83.6701 29.9403 83.0186 29.5555L83.4402 28.2709Z" fill="white"></path><path fill-rule="evenodd" clip-rule="evenodd" d="M29.9696 0.106445H0V30.076H29.9696V0.106445ZM7.83811 14.3555H6.93057V10.8114H7.78366C8.6912 10.8114 9.35975 10.943 9.78932 11.2062C10.2249 11.4694 10.4428 11.9121 10.4428 12.5341C10.4428 13.1622 10.231 13.6228 9.80747 13.9159C9.38395 14.209 8.7275 14.3555 7.83811 14.3555ZM6.93057 21.6501V16.6166H8.42801L11.5953 21.6501H14.7173C14.1122 20.7888 12.8114 18.8836 10.8148 15.9347C11.6014 15.5937 12.2094 15.1242 12.639 14.526C13.0686 13.9219 13.2834 13.234 13.2834 12.4624C13.2834 11.1404 12.8508 10.1565 11.9856 9.51044C11.1204 8.85844 9.7863 8.53244 7.98331 8.53244H4.11719V21.6501H6.93057ZM23.9828 19.9274C25.2291 18.7789 25.8523 17.125 25.8523 14.9657C25.8523 12.9379 25.2533 11.3588 24.0554 10.2282C22.8574 9.09771 21.1754 8.53244 19.0094 8.53244H14.8438V21.6501H18.601C20.9486 21.6501 22.7425 21.0759 23.9828 19.9274ZM19.1546 10.8114C21.6716 10.8114 22.93 12.2201 22.93 15.0374C22.93 17.9146 21.5748 19.3532 18.8642 19.3532H17.6572V10.8114H19.1546Z" fill="white"></path></svg>