<svg xmlns="http://www.w3.org/2000/svg" width="82" height="29" viewBox="0 0 82 29" fill="none"><path d="M4.68089 20.1716C5.02471 21.084 5.50071 21.8642 6.109 22.512C6.71728 23.16 7.43792 23.6558 8.27091 23.9997C9.10399 24.3435 10.0097 24.5153 10.9883 24.5153C11.9404 24.5153 12.8329 24.3368 13.6659 23.9797C14.499 23.6227 15.2262 23.1202 15.8477 22.4724C16.4691 21.8244 16.9518 21.0509 17.2956 20.1518C17.6395 19.2526 17.8113 18.2477 17.8113 17.1369V0H21.9765V27.7681H17.851V25.1896C16.9254 26.1681 15.8344 26.9218 14.5783 27.4508C13.322 27.9797 11.9668 28.2441 10.5123 28.2441C9.03122 28.2441 7.64946 27.9863 6.3668 27.4706C5.08422 26.9549 3.97342 26.2211 3.03466 25.269C2.0959 24.3169 1.35534 23.1733 0.81324 21.8377C0.271051 20.5022 0 19.0146 0 17.3749V0H4.16521V17.1369C4.16521 18.2477 4.33708 19.2592 4.68089 20.1716ZM29.1562 0V10.1155C30.0818 9.18992 31.1529 8.45612 32.3694 7.91393C33.5859 7.37174 34.9082 7.10069 36.3362 7.10069C37.8173 7.10069 39.2055 7.37832 40.5015 7.93368C41.7973 8.48903 42.9212 9.24276 43.8733 10.1949C44.8254 11.147 45.5791 12.2708 46.1345 13.5667C46.6898 14.8626 46.9674 16.2378 46.9674 17.6923C46.9674 19.1467 46.6898 20.5153 46.1345 21.7979C45.5791 23.0806 44.8254 24.198 43.8733 25.1499C42.9212 26.102 41.7973 26.8557 40.5015 27.4111C39.2055 27.9664 37.8172 28.2441 36.3362 28.2441C34.9081 28.2441 33.5793 27.973 32.3496 27.4308C31.1198 26.8887 30.0421 26.1548 29.1165 25.2292V27.768H25.1497V0H29.1562ZM29.6124 20.4294C29.9694 21.2757 30.4653 22.0162 31.1 22.6509C31.7347 23.2856 32.4752 23.7881 33.3214 24.1584C34.1678 24.5286 35.0801 24.7137 36.0586 24.7137C37.0107 24.7137 37.9098 24.5286 38.756 24.1584C39.6023 23.7881 40.3361 23.2857 40.9577 22.6509C41.5792 22.0163 42.075 21.2757 42.4452 20.4294C42.8155 19.5832 43.0006 18.6708 43.0006 17.6923C43.0006 16.7138 42.8155 15.7948 42.4452 14.9353C42.075 14.0758 41.5792 13.3287 40.9577 12.694C40.3362 12.0594 39.6024 11.5635 38.756 11.2065C37.9097 10.8495 37.0106 10.6709 36.0586 10.6709C35.1066 10.6709 34.2074 10.8494 33.3612 11.2065C32.5149 11.5635 31.7745 12.0594 31.1397 12.694C30.5051 13.3287 30.0025 14.0758 29.6323 14.9353C29.2621 15.7948 29.077 16.7138 29.077 17.6923C29.0769 18.6708 29.2554 19.5832 29.6124 20.4294ZM49.2282 13.6064C49.757 12.337 50.4844 11.2197 51.4099 10.2545C52.3354 9.28919 53.4331 8.52888 54.7025 7.97353C55.9719 7.41817 57.3471 7.14054 58.828 7.14054C60.2825 7.14054 61.6313 7.405 62.8743 7.93385C64.1172 8.46279 65.1882 9.19668 66.0874 10.1355C66.9866 11.0743 67.6875 12.1851 68.1898 13.4677C68.6923 14.7503 68.9435 16.1453 68.9435 17.6528V18.9619H52.4811C52.6133 19.7817 52.8778 20.542 53.2745 21.2427C53.6712 21.9435 54.167 22.5518 54.762 23.0675C55.357 23.5833 56.0314 23.9866 56.7851 24.2774C57.5389 24.5683 58.3388 24.7138 59.1851 24.7138C61.5917 24.7138 63.5355 23.722 65.0165 21.7386L67.9123 23.8806C66.9073 25.2294 65.6644 26.2873 64.1835 27.0542C62.7024 27.8211 61.0364 28.2046 59.1852 28.2046C57.6777 28.2046 56.2695 27.94 54.9605 27.4111C53.6514 26.8823 52.5142 26.1417 51.549 25.1896C50.5837 24.2375 49.8234 23.1202 49.268 21.8377C48.7127 20.5551 48.435 19.16 48.435 17.6526C48.4348 16.2246 48.6993 14.8758 49.2282 13.6064ZM54.8017 12.0395C53.6777 12.9783 52.9306 14.2279 52.5604 15.7882H64.8974C64.5536 14.2279 63.8197 12.9783 62.6958 12.0395C61.5718 11.1007 60.2561 10.6313 58.7488 10.6313C57.2413 10.6313 55.9256 11.1007 54.8017 12.0395ZM76.4407 12.4956C75.5945 13.4212 75.1713 14.6774 75.1713 16.2642V27.7682H71.1647V7.53711H75.1315V10.0363C75.634 9.21643 76.2886 8.56847 77.0952 8.09246C77.9017 7.61637 78.8604 7.37832 79.9712 7.37832H81.3596V11.1072H79.6935C78.3712 11.1073 77.2869 11.57 76.4407 12.4956Z" fill="white"></path></svg>