<svg xmlns="http://www.w3.org/2000/svg" width="44" height="48" viewBox="0 0 44 48" fill="none"><path fill-rule="evenodd" clip-rule="evenodd" d="M2.28567 8.26996L0.120753 3.93987C-0.040251 3.61813 -0.040251 3.23934 0.120753 2.9176L1.26342 0.632002C1.5292 0.100443 2.15813 -0.138716 2.70998 0.0820812L7.94796 2.17705L12.0603 0.12102C12.3521 -0.0251722 12.6925 -0.0391517 12.9956 0.0820812L18.2336 2.17705L22.3459 0.12102C22.6676 -0.0399834 23.0461 -0.0399834 23.3679 0.12102L27.4802 2.17705L32.7182 0.0820812C33.0673 -0.057803 33.4634 -0.0166603 33.7763 0.192069L36.653 2.11012L40.6312 0.12102C41.196 -0.161491 41.8822 0.0675288 42.1644 0.632002L43.3074 2.9176C43.4684 3.23934 43.4684 3.61813 43.3074 3.93987L41.1425 8.26996V39.7299L43.3074 44.06C43.4684 44.3817 43.4684 44.7605 43.3074 45.0823L42.1644 47.3678C41.8822 47.9326 41.196 48.1613 40.6312 47.8791L36.653 45.89L33.7763 47.8078C33.4634 48.0165 33.0673 48.0577 32.7182 47.9181L27.4802 45.8228L23.3679 47.8791C23.0461 48.0398 22.6676 48.0398 22.3459 47.8791L18.2336 45.8228L12.9956 47.9181C12.6925 48.0393 12.3521 48.025 12.0603 47.8791L7.94796 45.8228L2.70998 47.9181C2.15813 48.1386 1.5292 47.8997 1.26342 47.3678L0.120753 45.0823C-0.040251 44.7605 -0.040251 44.3817 0.120753 44.06L2.28567 39.7299V8.26996ZM12.6234 2.39482L8.51106 4.45085C8.21895 4.59704 7.87857 4.61102 7.57549 4.48979L2.83752 2.59477L2.42062 3.42887L4.45058 7.48907C4.53012 7.64788 4.57127 7.82261 4.57127 8.00007V39.9998C4.57127 40.1773 4.53012 40.3522 4.45058 40.5108L2.42062 44.5713L2.83752 45.4051L7.57549 43.5101C7.87857 43.3888 8.21895 43.4031 8.51106 43.549L12.6234 45.605L17.8611 43.5101C18.1642 43.3888 18.5045 43.4031 18.7967 43.549L22.8569 45.5792L26.9171 43.549C27.2092 43.4031 27.5496 43.3888 27.8526 43.5101L33.0086 45.5724L35.9371 43.6203C36.2783 43.3927 36.7153 43.3655 37.082 43.549L40.6312 45.3236L41.0075 44.5713L38.9773 40.5108C38.898 40.3522 38.8566 40.1773 38.8566 39.9998V8.00007C38.8566 7.82261 38.898 7.64788 38.9773 7.48907L41.0075 3.42887L40.6312 2.67652L37.082 4.45085C36.7153 4.63434 36.2783 4.60718 35.9371 4.3798L33.0086 2.42746L27.8526 4.48979C27.5496 4.61102 27.2092 4.59704 26.9171 4.45085L22.8569 2.42088L18.7967 4.45085C18.5045 4.59704 18.1642 4.61102 17.8611 4.48979L12.6234 2.39482Z" fill="#EE4023"></path><path fill-rule="evenodd" clip-rule="evenodd" d="M3.60631 9.26997H24.1775C24.8081 9.26997 25.3202 8.75789 25.3202 8.12704C25.3202 7.49646 24.8081 6.98438 24.1775 6.98438H3.60631C2.97546 6.98438 2.46338 7.49646 2.46338 8.12704C2.46338 8.75789 2.97546 9.26997 3.60631 9.26997Z" fill="#EE4023"></path><path fill-rule="evenodd" clip-rule="evenodd" d="M40.1388 6.98438H34.4247C33.7938 6.98438 33.2817 7.49646 33.2817 8.12704C33.2817 8.75789 33.7938 9.26997 34.4247 9.26997H40.1388C40.7696 9.26997 41.2817 8.75789 41.2817 8.12704C41.2817 7.49646 40.7696 6.98438 40.1388 6.98438Z" fill="#EE4023"></path><path fill-rule="evenodd" clip-rule="evenodd" d="M3.60631 40.9099H24.1775C24.8081 40.9099 25.3202 40.3978 25.3202 39.767C25.3202 39.1361 24.8081 38.624 24.1775 38.624H3.60631C2.97546 38.624 2.46338 39.1361 2.46338 39.767C2.46338 40.3978 2.97546 40.9099 3.60631 40.9099Z" fill="#EE4023"></path><path fill-rule="evenodd" clip-rule="evenodd" d="M40.1388 38.624H34.4247C33.7938 38.624 33.2817 39.1361 33.2817 39.767C33.2817 40.3978 33.7938 40.9099 34.4247 40.9099H40.1388C40.7696 40.9099 41.2817 40.3978 41.2817 39.767C41.2817 39.1361 40.7696 38.624 40.1388 38.624Z" fill="#EE4023"></path><path fill-rule="evenodd" clip-rule="evenodd" d="M27.8701 32.2389C23.9824 34.8737 18.3264 34.5001 14.6526 32.6654C11.8722 31.277 10.2847 29.0419 10.7683 26.7717C10.9885 25.7379 11.6569 24.9263 12.717 24.3064C13.9233 23.6007 15.7158 23.1391 17.7367 22.7076C20.0264 22.2186 22.6315 21.7482 24.8908 20.8214C26.9188 19.9892 28.6712 18.7914 29.4911 16.742C29.6584 16.3239 30.055 16.0431 30.5048 16.0244C30.9544 16.0058 31.3732 16.2526 31.5745 16.6553C33.3014 20.1091 34.3991 27.8153 27.8701 32.2389ZM27.8701 32.2392V32.2389V32.2392ZM30.292 19.8112C29.1304 21.2097 27.5453 22.2026 25.7584 22.9358C23.3746 23.9142 20.6298 24.4271 18.2142 24.9427C16.7345 25.2587 15.3875 25.5703 14.3671 26.027C13.6743 26.3372 13.1285 26.6628 13.0039 27.2478C12.878 27.8381 13.0769 28.3984 13.4573 28.9097C13.9524 29.5748 14.7338 30.1511 15.6741 30.6207C18.7068 32.1352 23.3784 32.522 26.5878 30.3469C30.7914 27.4988 31.0602 22.9652 30.292 19.8112Z" fill="#EE4023"></path><path fill-rule="evenodd" clip-rule="evenodd" d="M31.6454 16.4703C30.899 15.0147 29.4538 13.9231 27.733 13.434C25.2436 12.7269 22.1966 13.2777 20.0893 15.7081C18.6775 17.3362 17.6685 19.8498 17.6685 23.4911C17.6685 24.1217 18.1805 24.6338 18.8114 24.6338C19.442 24.6338 19.9541 24.1217 19.9541 23.4911C19.9541 20.5623 20.6806 18.5148 21.8162 17.2054C23.2751 15.523 25.3851 15.1434 27.1084 15.6329C28.1962 15.9418 29.1395 16.5929 29.6113 17.5131C29.899 18.0743 30.5883 18.2965 31.1497 18.0088C31.7109 17.7211 31.9331 17.0318 31.6454 16.4703Z" fill="#EE4023"></path></svg>