<svg xmlns="http://www.w3.org/2000/svg" width="51" height="48" viewBox="0 0 51 48" fill="none"><path fill-rule="evenodd" clip-rule="evenodd" d="M41.6783 25.9671H40.5468C39.5514 25.9671 38.3035 25.3852 37.1466 24.7381C35.2253 23.6632 33.5676 22.3202 33.5676 22.3202C33.0816 21.9262 32.3686 22.0029 31.9765 22.4912C31.5847 22.9793 31.661 23.6957 32.1468 24.0896C32.1468 24.0896 34.616 26.0883 37.1308 27.2884C38.328 27.8596 39.5425 28.2405 40.5468 28.2405H41.6783C42.3028 28.2405 42.8097 27.7311 42.8097 27.1037C42.8097 26.4765 42.3028 25.9671 41.6783 25.9671Z" fill="#EE4023"></path><path fill-rule="evenodd" clip-rule="evenodd" d="M9.01288 38.5092C9.73866 39.2153 10.6512 39.415 11.4259 39.4371C12.4474 39.4662 13.2617 39.1926 13.2617 39.1926C13.8522 38.9896 14.496 39.3064 14.6983 39.9C14.9006 40.4937 14.5853 41.1405 13.9945 41.3437C13.9945 41.3437 9.17742 42.9337 6.70168 39.2581C6.45514 38.892 6.44211 38.4157 6.66856 38.0364C7.81112 36.1219 12.3021 27.8464 12.3021 27.8464C12.3898 27.6849 12.5155 27.5468 12.6678 27.4448L22.8499 20.6245C23.0688 20.478 23.3319 20.4125 23.5936 20.4395L27.3667 20.8308C27.9877 20.8951 28.44 21.4539 28.3759 22.0781C28.3119 22.702 27.7555 23.1565 27.1345 23.0921L23.7663 22.7432L14.1547 29.1812C13.4756 30.4307 10.3911 36.0984 9.01288 38.5092Z" fill="#EE4023"></path><path fill-rule="evenodd" clip-rule="evenodd" d="M14.8346 42.8762L17.2289 41.0917C17.7304 40.7179 18.4396 40.8238 18.8116 41.3277C19.1836 41.8316 19.0785 42.5441 18.5768 42.9179L16.098 44.7651C16.0421 44.8068 15.9821 44.8434 15.9194 44.874L9.76126 47.8852C9.20002 48.1597 8.5223 47.9245 8.24888 47.3606C7.97573 46.7965 8.20978 46.1155 8.77129 45.8411L14.8346 42.8762Z" fill="#EE4023"></path><path fill-rule="evenodd" clip-rule="evenodd" d="M23.4712 35.8493L40.1584 16.5249C41.3878 15.1254 41.3219 12.995 40.0014 11.6667C38.5654 10.2254 36.2224 10.2879 34.867 11.8034C34.8623 11.8088 14.5207 34.842 14.5207 34.842C14.1064 35.3113 14.149 36.0301 14.616 36.4467C15.083 36.863 15.7988 36.8202 16.2131 36.351L36.5547 13.3177C37.0389 12.7765 37.8838 12.7547 38.4014 13.2741C38.8768 13.7523 38.9012 14.5206 38.4557 15.028C38.4494 15.0351 21.7619 34.3592 21.7619 34.3592C21.3528 34.833 21.4035 35.5516 21.8752 35.9627C22.3468 36.3739 23.062 36.3231 23.4712 35.8493Z" fill="#EE4023"></path><path fill-rule="evenodd" clip-rule="evenodd" d="M24.2259 42.9776H16.7283C15.2222 42.9776 14.107 42.4453 13.3538 41.6304C12.6055 40.8207 12.2031 39.7028 12.2031 38.4306C12.2031 37.1421 12.8217 35.9884 13.7112 35.1675C14.5966 34.3507 15.7413 33.8837 16.7283 33.8837H25.7792C26.9324 33.8837 28.0418 32.7698 28.0418 31.6103V29.337C28.0418 28.7095 28.5488 28.2002 29.1733 28.2002C29.7975 28.2002 30.3044 28.7095 30.3044 29.337V31.6103C30.3044 33.9292 28.0855 36.1573 25.7792 36.1573H16.7283C16.2358 36.1573 15.6835 36.4342 15.2417 36.8421C14.804 37.2458 14.4657 37.7969 14.4657 38.4306C14.4657 39.0818 14.6289 39.6689 15.012 40.0836C15.3903 40.4928 15.9716 40.704 16.7283 40.704H24.6478C24.9234 40.704 25.1898 40.8052 25.3964 40.9885C27.1222 42.519 28.1464 42.9776 30.3044 42.9776H33.6984C34.6648 42.9776 36.0268 42.4792 36.9567 42.2121C38.0713 41.8915 39.326 41.8408 40.4865 41.8408H41.6179C42.2424 41.8408 42.7494 42.3501 42.7494 42.9776C42.7494 43.6048 42.2424 44.1141 41.6179 44.1141H40.4865C39.5316 44.1141 38.4965 44.134 37.5788 44.3978C36.4748 44.7149 34.8456 45.2509 33.6984 45.2509H30.3044C27.6326 45.2509 26.2835 44.7408 24.2259 42.9776Z" fill="#EE4023"></path><path fill-rule="evenodd" clip-rule="evenodd" d="M40.6748 44.164C40.6748 44.792 41.1815 45.3008 41.8062 45.3008H49.7257C50.3505 45.3008 50.8569 44.792 50.8569 44.164V24.8399C50.8569 24.2122 50.3505 23.7031 49.7257 23.7031H41.8062C41.1815 23.7031 40.6748 24.2122 40.6748 24.8399V44.164ZM42.9377 25.9767V43.0275H48.5943V25.9767H42.9377Z" fill="#EE4023"></path><path fill-rule="evenodd" clip-rule="evenodd" d="M43.9297 38.417V40.6903H46.1926V38.417H43.9297Z" fill="#EE4023"></path><path fill-rule="evenodd" clip-rule="evenodd" d="M11.4488 41.8201L10.373 46.9197C10.2435 47.5335 9.64262 47.9261 9.03169 47.796C8.42077 47.6661 8.03004 47.0621 8.15956 46.4483L9.29642 41.0581C9.33661 40.8677 9.42485 40.6909 9.55274 40.5444L10.3581 39.6215C10.7697 39.1498 11.4852 39.1026 11.9546 39.5162C12.4241 39.9297 12.4711 40.6486 12.0594 41.1203L11.4488 41.8201Z" fill="#EE4023"></path><path fill-rule="evenodd" clip-rule="evenodd" d="M4.87344 11.8447L6.59054 8.39391C6.78224 8.00897 7.17404 7.76562 7.60251 7.76562C8.03124 7.76562 8.42305 8.00897 8.61447 8.39418L10.3308 11.8447L13.765 13.5691C14.1484 13.7615 14.3906 14.1551 14.3906 14.5856C14.3906 15.0164 14.1484 15.4101 13.7652 15.6027L10.3308 17.3279L8.61447 20.7777C8.42278 21.1629 8.03124 21.4062 7.60251 21.4062C7.17404 21.4062 6.78224 21.1631 6.59054 20.7779L4.87344 17.3279L1.43977 15.6027C1.05638 15.4101 0.814453 15.0164 0.814453 14.5856C0.814453 14.1551 1.05665 13.7618 1.44004 13.5691L4.87344 11.8447ZM7.60224 11.4448L6.72848 13.2006C6.61905 13.4205 6.44148 13.5989 6.22236 13.7088L4.47566 14.5862L6.22263 15.4641C6.44148 15.574 6.61905 15.7525 6.72848 15.9723L7.60224 17.7276L8.47545 15.9726C8.58487 15.7525 8.76245 15.574 8.9813 15.4641L10.7288 14.5862L8.98157 13.7091C8.76245 13.5989 8.58487 13.4205 8.47518 13.2003L7.60224 11.4448Z" fill="#EE4023"></path><path fill-rule="evenodd" clip-rule="evenodd" d="M19.4571 4.8364L21.5511 0.628558C21.7428 0.243348 22.1343 0 22.563 0C22.9915 0 23.3833 0.243348 23.5747 0.628558L25.669 4.8364L29.8569 6.94033C30.2403 7.13293 30.4823 7.5266 30.4823 7.95709C30.4823 8.38759 30.2403 8.78126 29.8569 8.97386L25.669 11.0778L23.5747 15.2856C23.3833 15.6708 22.9915 15.9142 22.563 15.9142C22.1343 15.9142 21.7428 15.6708 21.5511 15.2856L19.4571 11.0778L15.2689 8.97386C14.8858 8.78126 14.6436 8.38759 14.6436 7.95709C14.6436 7.5266 14.8858 7.13293 15.2689 6.94033L19.4571 4.8364ZM22.563 3.67859L21.3121 6.192C21.2027 6.41189 21.0251 6.59031 20.8063 6.70025L18.3048 7.95709L20.8063 9.21394C21.0251 9.32388 21.2027 9.5023 21.3121 9.72219L22.563 12.2356L23.8137 9.72219C23.9231 9.5023 24.1007 9.32388 24.3198 9.21394L26.8213 7.95709L24.3198 6.70025C24.1007 6.59031 23.9231 6.41189 23.8137 6.192L22.563 3.67859Z" fill="#EE4023"></path><path fill-rule="evenodd" clip-rule="evenodd" d="M2.03418 24.9297V31.75H4.29677V24.9297H2.03418Z" fill="#EE4023"></path><path fill-rule="evenodd" clip-rule="evenodd" d="M6.78805 26.9746H0V29.2482H6.78805V26.9746Z" fill="#EE4023"></path></svg>