<svg xmlns="http://www.w3.org/2000/svg" width="72" height="48" viewBox="0 0 72 48" fill="none"><path fill-rule="evenodd" clip-rule="evenodd" d="M59.5108 15.7202C59.2297 15.3592 58.7971 15.1458 58.336 15.1458H47.9805V12.1631H58.336C59.8154 12.1631 61.1971 12.894 62.0305 14.1158C62.0734 14.1786 62.1114 14.2447 62.1442 14.3133L66.8168 24.0938H67.3679C68.634 24.0938 69.7477 24.5409 70.5566 25.3712C71.3227 26.1575 71.8419 27.316 71.8419 28.8799V37.511C71.8419 39.9814 69.8391 41.9899 67.3679 41.9899H64.3852V39.0072H67.3679C68.1925 39.0072 68.8592 38.3354 68.8592 37.511V28.8799C68.8592 28.2549 68.7263 27.7668 68.4202 27.4525C68.157 27.1824 67.7797 27.0765 67.3679 27.0765H65.8765C65.302 27.0765 64.7786 26.7465 64.5309 26.228L59.5108 15.7202Z" fill="#EE4023"></path><path fill-rule="evenodd" clip-rule="evenodd" d="M46.1622 2.98269H22.3008V0H47.6535C48.4772 0 49.1449 0.667701 49.1449 1.49137V40.2661C49.1449 41.0898 48.4772 41.7575 47.6535 41.7575H23.7921V38.7748H46.1622V2.98269Z" fill="#EE4023"></path><path fill-rule="evenodd" clip-rule="evenodd" d="M12.1872 38.5195H4.73047V41.5022H12.1872V38.5195Z" fill="#EE4023"></path><path fill-rule="evenodd" clip-rule="evenodd" d="M65.6231 40.5565C65.6231 36.4474 62.2802 33.1133 58.1534 33.1133C54.0265 33.1133 50.6836 36.4474 50.6836 40.5565C50.6836 44.6656 54.0265 48 58.1534 48C62.2802 48 65.6231 44.6657 65.6231 40.5565ZM62.6404 40.5565C62.6404 43.022 60.6294 45.0173 58.1534 45.0173C55.6773 45.0173 53.6663 43.022 53.6663 40.5565C53.6663 38.0911 55.6773 36.0959 58.1534 36.0959C60.6294 36.0959 62.6404 38.0911 62.6404 40.5565Z" fill="#EE4023"></path><path fill-rule="evenodd" clip-rule="evenodd" d="M25.0762 40.5565C25.0762 36.4474 21.7333 33.1133 17.6064 33.1133C13.4796 33.1133 10.1367 36.4474 10.1367 40.5565C10.1367 44.6657 13.4796 48 17.6064 48C21.7333 48 25.0762 44.6656 25.0762 40.5565ZM22.0935 40.5565C22.0935 43.022 20.0825 45.0173 17.6064 45.0173C15.1303 45.0173 13.1194 43.022 13.1194 40.5565C13.1194 38.0911 15.1304 36.0959 17.6064 36.0959C20.0825 36.0959 22.0935 38.0911 22.0935 40.5565Z" fill="#EE4023"></path><path fill-rule="evenodd" clip-rule="evenodd" d="M47.9805 41.5022H52.4545V38.5195H47.9805V41.5022Z" fill="#EE4023"></path><path fill-rule="evenodd" clip-rule="evenodd" d="M50.6836 26.635H65.597V23.6523H50.6836V26.635Z" fill="#EE4023"></path><path fill-rule="evenodd" clip-rule="evenodd" d="M0 11.7678H23.8614V8.78516H0V11.7678Z" fill="#EE4023"></path><path fill-rule="evenodd" clip-rule="evenodd" d="M13.5156 22.5803H32.9031V19.5977H13.5156V22.5803Z" fill="#EE4023"></path><path fill-rule="evenodd" clip-rule="evenodd" d="M10.4163 19.5977H7.43359V22.5803H10.4163V19.5977Z" fill="#EE4023"></path><path fill-rule="evenodd" clip-rule="evenodd" d="M19.2014 0H16.2188V2.98269H19.2014V0Z" fill="#EE4023"></path></svg>