<svg xmlns="http://www.w3.org/2000/svg" width="52" height="48" viewBox="0 0 52 48" fill="none"><path fill-rule="evenodd" clip-rule="evenodd" d="M50.3716 24.3426C51.9807 29.0959 51.7294 33.8665 50.0802 37.3364C48.9141 39.7897 47.055 41.6097 44.6647 42.4207C42.2739 43.2328 39.6925 42.92 37.2763 41.6826C33.8599 39.9323 30.7628 36.2975 29.1545 31.5439C27.5453 26.7915 27.7966 22.0211 29.4458 18.5515C30.6119 16.0985 32.471 14.2785 34.8616 13.4669C37.2521 12.6551 39.8335 12.9682 42.2494 14.2055C45.6661 15.9556 48.7633 19.5896 50.3716 24.3426ZM48.2225 25.0701C49.6206 29.2004 49.4641 33.3473 48.0308 36.3625C47.1421 38.2324 45.7576 39.6541 43.9353 40.2724C42.1135 40.8915 40.1515 40.6061 38.311 39.6633C35.3429 38.1428 32.7011 34.9466 31.3035 30.8168C29.9054 26.6867 30.0619 22.5406 31.4952 19.5256C32.3839 17.6558 33.7687 16.2338 35.591 15.6153C37.4125 14.9967 39.3745 15.282 41.215 16.2248C44.1831 17.7451 46.8252 20.9408 48.2225 25.0698V25.0701Z" fill="#EE4023"></path><path fill-rule="evenodd" clip-rule="evenodd" d="M34.3811 14.3187C33.3239 19.2121 33.7377 22.2842 34.7903 24.4386C35.8587 26.6258 37.6121 27.9073 39.3931 29.1382C40.8663 30.1561 42.3687 31.1248 43.2493 32.8604C44.1385 34.6135 44.3604 37.1119 43.4567 41.114C43.319 41.7247 43.7029 42.3324 44.3136 42.4704C44.9243 42.6084 45.532 42.2246 45.67 41.6136C46.7414 36.8693 46.327 33.9124 45.2728 31.834C44.2096 29.7382 42.4621 28.5008 40.6831 27.2716C39.212 26.2553 37.7115 25.2491 36.8288 23.4427C35.9303 21.6033 35.6962 18.9761 36.5987 14.7978C36.7311 14.1858 36.3414 13.5817 35.7294 13.4496C35.1176 13.3173 34.5131 13.7069 34.3811 14.3187Z" fill="#EE4023"></path><path fill-rule="evenodd" clip-rule="evenodd" d="M21.1228 26.4604C17.3984 23.0937 12.9211 21.43 9.08399 21.5674C6.3708 21.6646 3.96419 22.6502 2.27256 24.5252C0.581476 26.4002 -0.152843 28.8968 0.026312 31.6081C0.279525 35.4431 2.38773 39.7321 6.11133 43.0991C9.83602 46.466 14.3133 48.1298 18.1501 47.992C20.8636 47.8945 23.2702 46.9087 24.9618 45.0332C26.6527 43.1587 27.3873 40.6624 27.2081 37.951C26.9546 34.1161 24.8464 29.8268 21.1231 26.4606L21.1228 26.4604ZM19.6013 28.1434C16.3654 25.2183 12.4991 23.7152 9.16541 23.8348C7.09831 23.9088 5.24605 24.6164 3.95738 26.0446C2.66844 27.474 2.15358 29.3914 2.29026 31.4586C2.51053 34.7913 4.39711 38.4901 7.63279 41.4163C10.869 44.3411 14.7353 45.8442 18.0687 45.7247C20.1361 45.6504 21.9881 44.9425 23.277 43.5137C24.566 42.0847 25.0806 40.1675 24.9442 38.1005C24.7239 34.7676 22.8373 31.0691 19.6013 28.1434Z" fill="#EE4023"></path><path fill-rule="evenodd" clip-rule="evenodd" d="M2.08404 25.4673C3.54887 30.2567 5.4093 32.7383 7.37946 34.1067C9.37985 35.4962 11.536 35.7603 13.6916 35.9667C15.4747 36.1374 17.2594 36.2506 18.8753 37.3375C20.5076 38.4349 21.9213 40.5092 23.0858 44.4457C23.2633 45.0463 23.895 45.3893 24.4953 45.2118C25.0957 45.0343 25.439 44.4027 25.2615 43.8024C23.8811 39.1362 22.0762 36.7557 20.1414 35.4546C18.1906 34.1429 16.0606 33.9142 13.9077 33.7084C12.1273 33.5379 10.326 33.3909 8.67386 32.2434C6.99148 31.0749 5.50487 28.8941 4.25378 24.8038C4.07054 24.2051 3.43587 23.8678 2.83715 24.0507C2.23842 24.234 1.9008 24.8686 2.08404 25.4673Z" fill="#EE4023"></path><path fill-rule="evenodd" clip-rule="evenodd" d="M5.98419 19.3787C5.72445 16.5554 6.39641 13.3129 8.04965 10.2446C10.1178 6.4061 13.2588 3.69447 16.4419 2.68795C18.4162 2.06395 20.4005 2.10806 22.0951 3.01983C23.79 3.9316 24.9191 5.56239 25.4841 7.55228C26.3951 10.761 25.8579 14.8732 23.7894 18.7108C22.9579 20.2531 21.9522 21.6136 20.8396 22.7557C20.4029 23.2041 20.4125 23.9231 20.8609 24.3598C21.3096 24.7965 22.0284 24.7869 22.4654 24.3385C23.717 23.0532 24.8508 21.5232 25.7868 19.7873C28.1676 15.37 28.7154 10.6263 27.6666 6.93263C26.9252 4.32119 25.3942 2.21859 23.1703 1.02204C20.9469 -0.17424 18.3478 -0.294028 15.758 0.524907C12.0945 1.6828 8.43246 4.7508 6.05198 9.16837C4.16785 12.666 3.42863 16.3681 3.72487 19.5867C3.78204 20.2101 4.33476 20.6697 4.95827 20.6122C5.58177 20.5548 6.04164 20.0021 5.98419 19.3787Z" fill="#EE4023"></path><path fill-rule="evenodd" clip-rule="evenodd" d="M21.9628 0.973337C18.1741 3.22976 16.2021 5.35497 15.1998 7.35085C14.1548 9.43277 14.1279 11.4099 14.3506 13.36C14.5981 15.5252 15.2328 17.6436 14.5276 19.8554C14.3373 20.4519 14.6672 21.0906 15.2638 21.2809C15.8603 21.4709 16.4991 21.1412 16.6891 20.5447C17.3118 18.5921 17.115 16.7019 16.8392 14.8032C16.5715 12.9603 16.2067 11.1087 16.8917 9.15833C17.5817 7.19349 19.3365 5.17827 23.124 2.92239C23.6618 2.60195 23.8385 1.90526 23.518 1.36729C23.1975 0.829321 22.5008 0.652896 21.9628 0.973337Z" fill="#EE4023"></path></svg>