<svg xmlns="http://www.w3.org/2000/svg" width="143" height="24" viewBox="0 0 143 24" fill="none"><path fill-rule="evenodd" clip-rule="evenodd" d="M11.683 9.40455C9.80563 9.81175 7.95424 9.76969 6.08359 9.32253C4.06462 8.84 2.55282 9.66291 1.70607 11.5587C1.32913 12.4056 1.22196 13.2829 1.26022 14.1956C1.27646 16.9764 2.17877 19.391 4.19001 21.3774C5.04161 22.2194 5.98414 22.4855 7.07866 22.0268C8.38188 21.4823 9.65929 21.468 10.9625 22.0078C12.1097 22.4817 13.0858 22.2147 13.9488 21.3259C16.2404 18.9733 17.1407 16.1362 16.7829 12.9368C16.4681 10.1331 14.4646 8.80082 11.683 9.40455Z" fill="#E6E514"></path><path fill-rule="evenodd" clip-rule="evenodd" d="M14.9479 21.2454C14.0131 22.2027 12.9616 22.4927 11.7244 21.9805C10.3169 21.3979 8.93991 21.4141 7.5324 22.0025C6.35273 22.4965 5.3346 22.2085 4.41512 21.3016C2.24785 19.1569 1.27191 16.5516 1.25462 13.5515C1.21348 12.5653 1.32838 11.6203 1.73505 10.7049C2.64876 8.66022 4.2811 7.77245 6.4599 8.29206C8.4769 8.7746 10.4757 8.82045 12.5013 8.38076C15.5029 7.72948 17.6653 9.1666 18.0051 12.1935C18.3916 15.6447 17.4185 18.7068 14.9479 21.2454ZM19.0815 11.5106C18.5188 8.23009 15.9105 6.46019 12.6735 7.14685C10.4613 7.61602 8.33042 7.50151 6.14415 7.05815C4.06675 6.63759 2.134 7.58458 1.06805 9.39352C0.324661 10.6572 -0.0379926 12.0323 0.00314656 13.5094C0.0997057 16.9378 1.18675 19.9445 3.7683 22.3277C4.93657 23.4044 6.27045 23.7582 7.74779 23.165C9.03463 22.6491 10.2498 22.6253 11.5388 23.1602C12.8515 23.7029 14.1576 23.5302 15.2263 22.5776C18.5552 19.6089 19.8278 15.8611 19.0815 11.5106Z" fill="#002F24"></path><path fill-rule="evenodd" clip-rule="evenodd" d="M13.9839 1.96983C13.8394 3.40407 12.5717 4.70768 11.1164 5.0081C10.481 5.1378 10.3404 4.93656 10.4465 4.41394C10.5423 2.84332 12.1593 1.38432 13.6233 1.48533C13.9877 1.51114 14.0137 1.67137 13.9839 1.96983ZM14.693 0.0292157C12.4655 0.518431 10.0686 0.769196 9.32225 3.71588C8.70031 3.04744 8.22865 2.56294 7.63829 2.22439C7.31481 2.03848 6.97902 1.94402 6.73402 2.28741C6.45744 2.67548 6.61636 3.01403 7.00286 3.2344C7.93203 3.76266 8.50038 4.5933 8.92042 5.52784C9.20656 6.16196 9.64179 6.36228 10.3241 6.33176C13.1946 6.20205 15.7139 3.48896 15.5551 0.6653C15.5226 0.0816222 15.1571 -0.0728461 14.693 0.0292157Z" fill="#002F24"></path><path fill-rule="evenodd" clip-rule="evenodd" d="M2.55932 12.3637C2.85122 11.2508 3.48469 10.2009 4.71231 9.59439C5.0299 9.43704 5.37722 9.3617 5.60021 9.74126C5.80211 10.0883 5.7121 10.4278 5.35914 10.5985C4.39656 11.0639 3.9477 11.8916 3.66549 12.85C3.55164 13.2344 3.29904 13.4357 2.91529 13.3459C2.48857 13.2467 2.48661 12.8863 2.55932 12.3637Z" fill="#002F24"></path><path fill-rule="evenodd" clip-rule="evenodd" d="M56.5459 18.934L56.7142 19.3374C57.1267 20.3263 58.0892 20.9662 59.1617 20.9662C60.2354 20.9662 61.1969 20.3263 61.6085 19.3374L61.7788 18.934L62.1826 19.1009C62.5059 19.2333 62.8457 19.3002 63.1968 19.3002C63.903 19.3002 64.5689 19.0265 65.0674 18.5277C65.8271 17.7705 66.5906 17.0944 66.1792 16.1045L66.0136 15.7002L66.4165 15.5333C67.4107 15.1214 67.5159 13.7109 67.5159 12.6399C67.5159 11.571 66.873 10.6126 65.8817 10.2025L65.4769 10.0347L65.6434 9.63036C66.0548 8.63948 65.8271 7.51038 65.0674 6.75415C64.5689 6.25537 63.903 5.98168 63.1968 5.98168C62.8457 5.98168 62.5059 6.0485 62.1826 6.18096L61.7788 6.34879L61.6085 5.94447C61.1969 4.95556 60.2354 4.31567 59.1617 4.31567C58.0892 4.31567 56.585 4.65802 56.1717 5.64693L56.0042 6.05125L55.5995 5.88342C55.2771 5.75188 55.479 5.98168 55.1288 5.98168C54.4206 5.98168 53.7557 6.25537 53.2553 6.75415C52.4965 7.51038 52.2697 8.63948 52.6811 9.63036L52.8486 10.0347L52.4439 10.2025C51.4517 10.6126 50.8096 11.571 50.8096 12.6399C50.8096 13.7109 51.4517 14.6683 52.4439 15.0793L52.8486 15.2482L52.6811 15.6516C52.2697 16.6424 52.4965 17.7705 53.2553 18.5277C53.7557 19.0265 54.4206 19.3002 55.1288 19.3002C55.479 19.3002 55.8186 19.2333 56.1421 19.1009L56.5459 18.934Z" fill="#A55341"></path><path fill-rule="evenodd" clip-rule="evenodd" d="M55.7194 20.0147L55.9002 20.4486C56.3432 21.5129 57.3785 22.2005 58.5334 22.2005C59.6883 22.2005 60.7227 21.5129 61.1667 20.4486L61.3484 20.0147L61.7838 20.193C62.1311 20.3361 62.4976 20.4086 62.8756 20.4086C63.6353 20.4086 64.3511 20.1139 64.8897 19.577C65.7068 18.7635 65.9489 17.5477 65.5078 16.4824L65.329 16.0475L65.7642 15.8663C66.8311 15.4248 67.523 14.394 67.523 13.242C67.523 12.091 66.8311 11.0611 65.7642 10.6176L65.329 10.4383L65.5078 10.0034C65.9489 8.93728 65.7068 7.72237 64.8897 6.90797C64.3511 6.37106 63.6353 6.07732 62.8756 6.07732C62.4976 6.07732 62.1311 6.14886 61.7838 6.29193L61.3484 6.47208L61.1667 6.03723C60.7227 4.97299 59.6883 4.2845 58.5334 4.2845C57.3785 4.2845 56.3432 4.97299 55.9002 6.03723L55.7194 6.47208L55.2841 6.29193C54.9367 6.14886 54.5703 6.07732 54.1923 6.07732C53.4316 6.07732 52.7159 6.37106 52.1782 6.90797C51.361 7.72237 51.118 8.93728 51.5591 10.0034L51.7399 10.4383L51.3037 10.6176C50.2368 11.0611 49.5469 12.091 49.5469 13.242C49.5469 14.394 50.2368 15.4248 51.3037 15.8663L51.7399 16.0475L51.5591 16.4824C51.118 17.5477 51.361 18.7635 52.1782 19.577C52.7159 20.1139 53.4316 20.4086 54.1923 20.4086C54.5703 20.4086 54.9367 20.337 55.2841 20.193L55.7194 20.0147ZM58.5334 23.1435C57.1452 23.1435 55.8898 22.3978 55.2218 21.2116C54.8879 21.305 54.5434 21.3516 54.1923 21.3516C53.1799 21.3516 52.2269 20.9588 51.5094 20.2436C50.5266 19.2652 50.167 17.8519 50.539 16.5425C49.3478 15.8788 48.5996 14.6267 48.5996 13.242C48.5996 11.8583 49.3478 10.6062 50.539 9.94139C50.167 8.63306 50.5266 7.21979 51.5094 6.24227C52.2269 5.52797 53.1799 5.13414 54.1923 5.13414C54.5434 5.13414 54.8879 5.18091 55.2218 5.27433C55.8898 4.08705 57.1452 3.34131 58.5334 3.34131C59.9228 3.34131 61.1781 4.08705 61.8451 5.27433C62.178 5.18091 62.5235 5.13414 62.8756 5.13414C63.8888 5.13414 64.8418 5.52797 65.5585 6.24227C66.5402 7.21979 66.901 8.63306 66.5288 9.94139C67.7191 10.6062 68.4683 11.8583 68.4683 13.242C68.4683 14.6267 67.7191 15.8788 66.5288 16.5425C66.901 17.8519 66.5402 19.2652 65.5585 20.2436C64.8418 20.9588 63.8888 21.3516 62.8756 21.3516C62.5235 21.3516 62.178 21.305 61.8451 21.2116C61.1781 22.3988 59.9228 23.1435 58.5334 23.1435Z" fill="#002F24"></path><path fill-rule="evenodd" clip-rule="evenodd" d="M65.0622 14.6308C64.843 14.4848 64.822 14.1387 64.9426 13.9756C65.3033 13.4863 65.289 12.8865 64.9541 12.4985C64.7598 12.2734 64.7761 11.9063 64.9808 11.7746C65.354 11.5343 65.7453 11.872 65.9798 12.24C66.3012 12.7454 66.2696 13.5273 66.0506 14.0509C65.9185 14.3695 65.5185 14.853 65.0622 14.6308Z" fill="#002F24"></path><path fill-rule="evenodd" clip-rule="evenodd" d="M63.9891 9.97757C63.726 9.98622 63.5068 9.71632 63.5106 9.51311C63.5202 8.90664 63.1614 8.42502 62.661 8.302C62.373 8.23151 62.1731 7.92244 62.2629 7.69644C62.4285 7.28544 62.9423 7.3351 63.348 7.50005C63.903 7.72697 64.3306 8.38218 64.458 8.9352C64.5325 9.27191 64.4896 9.89555 63.9891 9.97757Z" fill="#002F24"></path><path fill-rule="evenodd" clip-rule="evenodd" d="M54.8035 8.71918C54.8035 9.15219 54.4504 9.50305 54.0161 9.50305C53.5816 9.50305 53.2285 9.15219 53.2285 8.71918C53.2285 8.2863 53.5816 7.9353 54.0161 7.9353C54.4504 7.9353 54.8035 8.2863 54.8035 8.71918Z" fill="#002F24"></path><path fill-rule="evenodd" clip-rule="evenodd" d="M52.9227 13.1735C52.9227 13.6065 52.5696 13.9574 52.136 13.9574C51.7008 13.9574 51.3486 13.6065 51.3486 13.1735C51.3486 12.7405 51.7008 12.3896 52.136 12.3896C52.5696 12.3896 52.9227 12.7405 52.9227 13.1735Z" fill="#002F24"></path><path fill-rule="evenodd" clip-rule="evenodd" d="M54.8035 18.0456C54.8035 18.4795 54.4504 18.8295 54.0161 18.8295C53.5816 18.8295 53.2285 18.4795 53.2285 18.0456C53.2285 17.6126 53.5816 17.2617 54.0161 17.2617C54.4504 17.2617 54.8035 17.6126 54.8035 18.0456Z" fill="#002F24"></path><path fill-rule="evenodd" clip-rule="evenodd" d="M59.326 19.7171C59.326 20.15 58.9738 20.501 58.5395 20.501C58.105 20.501 57.752 20.15 57.752 19.7171C57.752 19.2841 58.105 18.9331 58.5395 18.9331C58.9738 18.9331 59.326 19.2841 59.326 19.7171Z" fill="#002F24"></path><path fill-rule="evenodd" clip-rule="evenodd" d="M63.8152 18.0456C63.8152 18.4795 63.4631 18.8295 63.0287 18.8295C62.5934 18.8295 62.2412 18.4795 62.2412 18.0456C62.2412 17.6126 62.5934 17.2617 63.0287 17.2617C63.4631 17.2617 63.8152 17.6126 63.8152 18.0456Z" fill="#002F24"></path><path fill-rule="evenodd" clip-rule="evenodd" d="M59.326 7.04925C59.326 7.48213 58.9738 7.83313 58.5395 7.83313C58.105 7.83313 57.752 7.48213 57.752 7.04925C57.752 6.61624 58.105 6.26538 58.5395 6.26538C58.9738 6.26538 59.326 6.61624 59.326 7.04925Z" fill="#002F24"></path><path fill-rule="evenodd" clip-rule="evenodd" d="M113.836 20.9183C113.82 21.1519 113.72 21.3721 113.554 21.5362C113.37 21.7222 113.124 21.8223 112.862 21.8232C112.399 21.8232 111.983 21.4837 111.898 21.0317L111.787 21.0536L111.893 21.0021C111.859 20.7915 111.68 20.6388 111.466 20.6388C111.251 20.6388 111.071 20.7924 111.04 21.007C111.007 21.2081 110.913 21.3922 110.767 21.539C110.581 21.7251 110.335 21.8281 110.07 21.8281C109.653 21.8281 109.271 21.5506 109.142 21.1539C109.126 21.1062 109.113 21.0574 109.106 21.0079C109.072 20.7962 108.893 20.6435 108.678 20.6435C108.463 20.6435 108.285 20.7971 108.254 21.0088C108.225 21.1882 108.145 21.3578 108.026 21.4951C108.011 21.5123 107.995 21.5305 107.979 21.5457C107.795 21.7307 107.55 21.8319 107.287 21.8328C107.027 21.8328 106.781 21.7316 106.598 21.5486C106.413 21.3645 106.31 21.1195 106.31 20.8591C106.31 20.6007 106.411 20.3556 106.596 20.1715C106.652 20.1144 106.716 20.0638 106.786 20.0228C106.893 19.9588 107.011 19.916 107.134 19.8978C107.346 19.8635 107.499 19.6842 107.499 19.4716C107.499 19.2579 107.346 19.0787 107.132 19.0472C107.056 19.0348 106.979 19.0138 106.906 18.9833C106.548 18.8317 106.307 18.4722 106.307 18.086C106.305 17.8266 106.407 17.5825 106.591 17.3984C106.689 17.2983 106.813 17.2201 106.948 17.1704C107.021 17.1437 107.098 17.1256 107.173 17.1171C107.394 17.0933 107.558 16.9092 107.558 16.6889C107.557 16.4686 107.393 16.2855 107.172 16.2626C107.075 16.2512 106.977 16.2263 106.887 16.1864C106.53 16.0328 106.303 15.6838 106.301 15.2956C106.301 15.0353 106.401 14.7921 106.587 14.6071C106.686 14.5059 106.805 14.4297 106.94 14.382C106.999 14.3592 107.063 14.342 107.125 14.3334C107.162 14.3267 107.195 14.3153 107.224 14.3029H107.316L107.341 14.2886C107.48 14.2142 107.567 14.0684 107.567 13.91C107.566 13.6906 107.4 13.5066 107.181 13.4838C106.685 13.4303 106.312 13.0155 106.31 12.5167C106.31 12.2564 106.411 12.0123 106.596 11.8282C106.604 11.8196 106.615 11.812 106.624 11.8035L106.66 11.7757C106.764 11.688 106.879 11.6241 107.001 11.586C107.032 11.5773 107.061 11.5707 107.093 11.5641L107.138 11.5535C107.351 11.5202 107.503 11.3419 107.503 11.1273C107.503 10.9147 107.349 10.7353 107.136 10.7029C106.667 10.6305 106.312 10.2184 106.31 9.74258C106.31 9.48317 106.411 9.23817 106.595 9.05501C106.751 8.89766 106.959 8.79848 107.177 8.77372C107.397 8.74896 107.562 8.56579 107.562 8.34464C107.562 8.12519 107.396 7.94216 107.177 7.91831C106.681 7.86486 106.307 7.45098 106.307 6.95128C106.305 6.69291 106.407 6.44687 106.591 6.2637C106.738 6.11683 106.925 6.02054 107.128 5.98909C107.342 5.95673 107.495 5.77737 107.495 5.56277C107.493 5.35013 107.34 5.1709 107.128 5.1384C106.658 5.06687 106.303 4.65404 106.301 4.1791C106.301 4.15526 106.303 4.13141 106.305 4.10848C106.32 3.87488 106.42 3.65464 106.587 3.48956C106.771 3.30457 107.017 3.20355 107.277 3.20264C107.408 3.20264 107.575 3.26356 107.753 3.35226C107.956 3.47345 108.147 3.58206 108.322 3.68124C108.324 3.68229 108.328 3.68412 108.33 3.68609C108.34 3.69185 108.349 3.6946 108.358 3.70037C108.921 4.01507 109.3 4.20295 109.3 4.20295C109.332 4.29833 109.459 4.73789 109.722 4.97922C109.599 5.27479 109.538 5.59146 109.538 5.91179C109.538 7.26598 110.643 8.36743 112.002 8.36743C112.181 8.36743 112.357 8.34844 112.526 8.31123C112.781 8.6879 113.235 8.97011 113.679 9.07505C113.771 9.20384 113.673 9.26673 113.835 9.77403C114.048 10.4397 112.803 11.5135 113.012 11.545C113.09 11.5564 113.166 11.5784 113.238 11.6089C113.597 11.7596 113.838 12.12 113.84 12.5053C113.84 12.7646 113.404 13.8413 113.404 14.0626C113.404 14.2304 112.689 14.2247 112.847 14.2933L112.935 14.3029C112.952 14.3096 112.975 14.3182 113.002 14.3229C113.473 14.3945 113.828 14.8083 113.83 15.2833C113.83 15.5436 114.177 16.0328 113.994 16.2158C113.838 16.3723 113.673 16.7786 113.454 16.8042C113.235 16.8281 113.069 17.0112 113.069 17.2324C113.069 17.4517 112.744 17.0837 112.963 17.1075C113.458 17.1609 113.833 17.5758 113.834 18.0746C113.834 18.3349 114.055 18.6276 113.871 18.8108C113.724 18.9576 114.076 19.4373 113.871 19.4696C113.659 19.503 113.506 19.6814 113.506 19.895C113.506 20.1077 112.801 19.855 113.012 19.8873C113.483 19.9599 113.838 20.3727 113.84 20.8486C113.84 20.8706 113.838 20.8944 113.836 20.9183Z" fill="#F6901D"></path><path fill-rule="evenodd" clip-rule="evenodd" d="M112.801 5.83447C112.586 5.68472 112.317 5.64751 112.08 5.53693C111.938 5.47011 111.876 5.27568 111.916 5.13261C111.957 4.99242 111.996 4.85407 112.035 4.71388C112.06 4.63187 112.103 4.57186 112.156 4.53177L112.174 4.51932C112.315 4.41254 112.497 4.44792 112.638 4.55561C112.91 4.76734 113.091 5.07248 113.293 5.34434C113.506 5.63139 113.087 6.03663 112.801 5.83447Z" fill="#002F24"></path><path fill-rule="evenodd" clip-rule="evenodd" d="M109.188 17.3881C109.132 17.2765 109.016 17.0725 109.027 17.0486V17.0476C109.048 16.9789 109.055 16.9131 109.065 16.8425C109.088 16.6795 108.937 16.5412 108.802 16.4964C108.724 16.4687 108.639 16.4659 108.56 16.4411C108.416 16.3934 108.224 16.4687 108.156 16.6071C108.127 16.6613 108.094 16.7224 108.063 16.7863C107.955 16.8102 107.867 16.8741 107.798 16.9666C107.734 17.0505 107.723 17.163 107.729 17.2651C107.733 17.3404 107.757 17.3995 107.791 17.4519C107.736 17.6723 107.732 17.8916 107.831 18.0823C108.02 18.4428 108.48 18.336 108.757 18.17C109.022 18.0137 109.359 17.7285 109.188 17.3881Z" fill="#002F24"></path><path fill-rule="evenodd" clip-rule="evenodd" d="M111.758 19.3539C111.321 20.0844 110.652 20.7004 109.654 20.8788C109.394 20.9246 109.131 20.9074 109.052 20.5907C108.98 20.3028 109.115 20.0806 109.401 20.031C110.183 19.8994 110.672 19.4035 111.073 18.7798C111.233 18.53 111.454 18.4394 111.708 18.5815C111.992 18.7408 111.919 18.9973 111.758 19.3539Z" fill="#002F24"></path><path fill-rule="evenodd" clip-rule="evenodd" d="M110.671 10.8108C109.643 10.7116 108.622 10.3006 107.911 9.30595C107.727 9.04654 107.61 8.75189 107.916 8.50204C108.196 8.27603 108.508 8.30656 108.71 8.59453C109.259 9.37565 110.056 9.65498 110.945 9.76753C111.304 9.81325 111.518 10.0069 111.493 10.3579C111.465 10.7498 111.145 10.8003 110.671 10.8108Z" fill="#002F24"></path><path fill-rule="evenodd" clip-rule="evenodd" d="M111.249 2.66603C111.13 2.53737 110.928 2.50868 110.763 2.50685C110.659 2.5058 110.545 2.58218 110.524 2.68699C110.511 2.75669 110.496 2.82535 110.483 2.89308C110.481 2.89872 110.48 2.90448 110.48 2.91025C110.479 2.91116 110.479 2.91208 110.479 2.91208C110.468 2.99606 110.492 3.07703 110.547 3.13337V3.13428C110.549 3.1352 110.549 3.13625 110.551 3.13717C110.659 3.24211 110.802 3.32033 110.957 3.31365C111.1 3.30696 111.249 3.23346 111.314 3.10087C111.389 2.95021 111.362 2.78906 111.249 2.66603Z" fill="#002F24"></path><path fill-rule="evenodd" clip-rule="evenodd" d="M110.548 3.14456C110.489 3.08639 110.466 3.00345 110.481 2.92432C110.47 3.00633 110.493 3.08743 110.548 3.14456Z" fill="#002F24"></path><path fill-rule="evenodd" clip-rule="evenodd" d="M113.532 21.9503C113.515 22.202 113.407 22.4386 113.23 22.6158C113.031 22.8142 112.766 22.9239 112.485 22.9239C111.985 22.9239 111.538 22.5587 111.446 22.0733L111.327 22.0952L111.441 22.0408C111.405 21.813 111.211 21.6499 110.981 21.6499C110.75 21.6499 110.558 21.8139 110.522 22.0446C110.488 22.2621 110.386 22.4605 110.228 22.6178C110.028 22.818 109.762 22.9287 109.479 22.9296C109.029 22.9296 108.617 22.6312 108.477 22.2039C108.461 22.1533 108.448 22.1 108.44 22.0466C108.405 21.8186 108.21 21.6537 107.98 21.6537C107.749 21.6537 107.556 21.8186 107.522 22.0475C107.492 22.242 107.407 22.4223 107.278 22.571C107.26 22.5902 107.244 22.6082 107.227 22.6254C107.029 22.8238 106.766 22.9334 106.483 22.9343C106.202 22.9343 105.938 22.8257 105.739 22.6283C105.539 22.4299 105.431 22.1676 105.43 21.8873C105.429 21.6079 105.538 21.3447 105.738 21.1464C105.797 21.0853 105.866 21.0309 105.941 20.9852C106.058 20.9166 106.184 20.8707 106.317 20.8507C106.545 20.8145 106.709 20.6208 106.709 20.392C106.709 20.1622 106.543 19.9705 106.315 19.9352C106.233 19.9228 106.15 19.9 106.071 19.8655C105.685 19.7035 105.425 19.3154 105.425 18.9005C105.425 18.6211 105.534 18.357 105.732 18.1587C105.838 18.0518 105.971 17.9679 106.115 17.9154C106.195 17.8859 106.278 17.8668 106.36 17.8572C106.596 17.8315 106.773 17.6341 106.773 17.3967C106.773 17.1591 106.594 16.9618 106.358 16.9369C106.254 16.9246 106.148 16.8979 106.051 16.8549C105.668 16.69 105.42 16.3133 105.419 15.8956C105.419 15.6162 105.528 15.3529 105.726 15.1546C105.835 15.0469 105.964 14.9649 106.107 14.9114C106.173 14.8876 106.24 14.8695 106.305 14.859C106.347 14.8532 106.382 14.8409 106.413 14.8267H106.512L106.539 14.8122C106.689 14.7313 106.784 14.5758 106.784 14.4041C106.782 14.1676 106.604 13.9702 106.368 13.9445C105.835 13.8882 105.431 13.441 105.43 12.905C105.429 12.6247 105.538 12.3605 105.738 12.1631C105.747 12.1535 105.756 12.145 105.768 12.1354L105.807 12.1069C105.919 12.0124 106.042 11.9429 106.175 11.9018C106.205 11.8923 106.238 11.8856 106.272 11.878L106.321 11.8675C106.549 11.8312 106.715 11.6386 106.715 11.4078C106.713 11.1789 106.548 10.9863 106.321 10.952C105.814 10.8738 105.431 10.4293 105.43 9.91734C105.429 9.63696 105.539 9.37375 105.738 9.17539C105.905 9.00756 106.128 8.89973 106.364 8.87405C106.601 8.84824 106.778 8.64988 106.778 8.41248C106.778 8.176 106.599 7.97856 106.364 7.95275C105.829 7.89654 105.425 7.44925 105.425 6.91235C105.425 6.63302 105.534 6.36876 105.732 6.17145C105.891 6.01213 106.091 5.91007 106.311 5.87574C106.539 5.83958 106.705 5.64686 106.703 5.41706C106.703 5.18817 106.537 4.99558 106.309 4.96033C105.803 4.88303 105.421 4.43863 105.419 3.92661C105.419 3.9008 105.421 3.87512 105.422 3.85128C105.44 3.59947 105.549 3.36298 105.726 3.18362C105.925 2.98526 106.19 2.87665 106.47 2.8756C106.613 2.8756 106.791 2.9415 106.984 3.03688C107.202 3.16646 107.409 3.28476 107.596 3.38971C107.599 3.39154 107.603 3.39351 107.606 3.39639C107.615 3.40202 107.625 3.40687 107.634 3.4125C108.24 3.75105 108.649 3.95321 108.649 3.95321C108.683 4.05435 108.819 4.52824 109.103 4.7887C108.972 5.10615 108.905 5.44667 108.905 5.79281C108.905 7.25089 110.095 8.43633 111.557 8.43633C111.751 8.43633 111.94 8.41628 112.123 8.37619C112.398 8.78051 112.886 9.08578 113.363 9.19924C113.462 9.33746 113.562 9.37847 113.531 9.95166C113.521 10.2129 113.417 10.458 113.23 10.6459C113.12 10.7545 112.993 10.8356 112.848 10.888C112.791 10.91 112.729 10.9263 112.681 10.9357L112.643 10.9424C112.417 10.9778 112.251 11.1704 112.251 11.4002C112.252 11.6271 112.42 11.8236 112.645 11.857C112.729 11.8703 112.811 11.8932 112.889 11.9266C113.274 12.0887 113.534 12.4769 113.536 12.8917C113.536 13.1711 113.428 13.4343 113.23 13.6327C113.218 13.645 113.204 13.6537 113.191 13.6641L113.19 13.6651L113.15 13.6936C113.097 13.7375 113.036 13.7785 112.948 13.8262C112.923 13.8396 112.9 13.852 112.875 13.8634C112.852 13.8721 112.828 13.8815 112.798 13.892C112.778 13.8977 112.758 13.9035 112.738 13.9091L112.766 14.0255L112.712 13.9158C112.675 13.9236 112.639 13.9312 112.601 13.935C112.364 13.9608 112.187 14.1581 112.187 14.3965C112.187 14.5786 112.297 14.7427 112.467 14.8171L112.561 14.8267C112.581 14.8352 112.605 14.8438 112.636 14.8494C113.142 14.9258 113.525 15.3712 113.527 15.8832C113.527 16.1635 113.418 16.4268 113.218 16.6242C113.051 16.7929 112.828 16.8999 112.592 16.9265C112.356 16.9523 112.177 17.1506 112.177 17.388C112.179 17.6245 112.356 17.8219 112.593 17.8467C113.127 17.9049 113.53 18.3522 113.53 18.8871C113.531 19.1675 113.422 19.4307 113.224 19.6291C113.065 19.7875 112.865 19.8904 112.644 19.9257C112.417 19.96 112.251 20.1526 112.251 20.3825C112.252 20.6133 112.418 20.8049 112.645 20.8402C113.152 20.9184 113.534 21.3628 113.536 21.8749C113.536 21.8988 113.534 21.9245 113.532 21.9503ZM114.465 12.8897C114.465 12.6351 114.411 12.3786 114.308 12.1354H114.326L114.174 11.8675C114.128 11.7911 114.067 11.691 113.987 11.5995C113.924 11.527 113.856 11.4603 113.783 11.3973C113.818 11.3649 113.854 11.3324 113.887 11.2992C114.214 10.9739 114.411 10.5553 114.456 10.1032V10.1023C114.462 10.0364 114.465 9.96974 114.465 9.90201C114.465 9.89441 114.463 9.88969 114.463 9.88301C114.48 9.03036 114.33 8.32667 113.748 8.32378C113.323 8.32182 112.934 8.05966 112.781 7.66294C112.781 7.66294 112.695 7.37588 112.503 7.35204C112.299 7.32819 112.25 7.44257 111.557 7.51987C110.607 7.62573 109.824 6.74556 109.824 5.79189C109.824 5.47051 109.914 5.15581 110.084 4.8812C110.084 4.8812 110.197 4.65703 110.15 4.46915C110.103 4.28232 109.894 4.22795 109.894 4.22795C109.654 4.11253 109.506 3.87408 109.506 3.60706C109.506 3.5261 109.55 3.36966 109.55 3.36966C109.35 2.84416 108.974 2.76031 108.715 2.86224C108.567 2.85752 108.44 2.79935 108.331 2.73358C108.283 2.69165 108.224 2.65064 108.152 2.61435L108.151 2.61344C108.114 2.58763 108.08 2.56575 108.051 2.55422C107.758 2.38075 107.011 1.94971 106.469 1.94971C105.939 1.95062 105.442 2.15763 105.068 2.53037C104.695 2.90324 104.49 3.40019 104.491 3.92845C104.491 4.40142 104.662 4.85919 104.975 5.21778C105.038 5.29023 105.106 5.35888 105.178 5.41994C105.142 5.45046 105.107 5.48283 105.074 5.5182C104.7 5.89016 104.495 6.38697 104.496 6.91431C104.497 7.49406 104.754 8.04433 105.192 8.4172C105.152 8.45061 105.113 8.48585 105.078 8.52123C104.706 8.89593 104.501 9.39091 104.501 9.91917C104.501 10.2749 104.603 10.6288 104.792 10.9357H104.772L104.938 11.1541C104.95 11.1733 104.964 11.1923 104.979 11.2094C105.042 11.281 105.11 11.3496 105.182 11.4116C105.147 11.4432 105.111 11.4764 105.078 11.5098C104.704 11.8818 104.501 12.3786 104.501 12.9069C104.501 13.1692 104.552 13.4248 104.654 13.6651H104.631L104.727 13.8425C104.807 13.9884 104.883 14.1028 104.97 14.201C105.033 14.2726 105.1 14.3412 105.173 14.4032C105.138 14.4337 105.102 14.4661 105.068 14.5004C104.695 14.8743 104.489 15.3712 104.491 15.8965C104.491 16.4773 104.749 17.0285 105.187 17.4005C105.148 17.4339 105.109 17.4691 105.073 17.5063C104.7 17.8792 104.495 18.3751 104.496 18.9024C104.497 19.3763 104.668 19.8341 104.98 20.1918C105.043 20.2642 105.111 20.3329 105.182 20.3939C105.147 20.4254 105.112 20.4588 105.078 20.4922C104.704 20.8651 104.501 21.3619 104.501 21.8892C104.501 22.4156 104.707 22.9115 105.084 23.2834C105.458 23.6553 105.954 23.8604 106.483 23.8604H106.485C107.014 23.8594 107.511 23.6524 107.885 23.2806C107.919 23.2463 107.951 23.2109 107.982 23.1748C108.046 23.2472 108.114 23.3149 108.185 23.3769C108.545 23.6849 109.005 23.8556 109.482 23.8556C110.012 23.8546 110.513 23.6477 110.886 23.2729C110.92 23.2396 110.954 23.2033 110.985 23.1661C111.362 23.5971 111.912 23.8499 112.488 23.8499C113.017 23.849 113.513 23.643 113.887 23.2701C114.262 22.8973 114.465 22.4014 114.465 21.873C114.465 21.3991 114.293 20.9404 113.981 20.5827C113.918 20.5103 113.85 20.4425 113.777 20.3806C113.813 20.3491 113.848 20.3166 113.882 20.2834C114.256 19.9094 114.461 19.4135 114.461 18.8862C114.459 18.3064 114.201 17.7562 113.763 17.3842C113.803 17.3508 113.84 17.3156 113.878 17.2784C114.251 16.9055 114.456 16.4087 114.456 15.8823C114.455 15.5085 114.346 15.1414 114.143 14.8267H114.173L114.006 14.6283C113.95 14.5634 113.889 14.5004 113.82 14.4366C113.804 14.4213 113.789 14.4079 113.772 14.3927C113.813 14.3593 113.85 14.323 113.887 14.2869C114.262 13.9131 114.465 13.4181 114.465 12.8897Z" fill="#002F24"></path><path fill-rule="evenodd" clip-rule="evenodd" d="M126.209 7.45624C125.489 6.20988 127.16 4.75756 128.023 5.00073C128.415 5.11039 128.805 4.95487 128.907 4.74223C129.968 2.54312 133.722 2.91888 133.817 4.49619C133.836 4.81377 133.505 5.17708 133.681 5.09611C134.353 4.78521 134.94 5.19804 135.214 5.52427C135.747 6.15747 135.663 6.73342 135.126 7.35523C134.818 7.71185 134.951 8.39563 135.254 8.64456C135.502 8.8458 135.626 8.94302 135.693 9.253C135.778 9.64684 135.685 10.0168 135.397 10.2934C134.96 10.7091 134.973 10.0902 134.759 9.98538C134.2 9.71641 134.069 10.0215 133.907 10.4869C133.458 11.782 132.522 11.9909 131.676 10.9609C131.402 10.628 130.516 10.628 130.243 10.9609C129.397 11.9909 128.461 11.782 128.011 10.4869C127.85 10.0215 127.718 9.71641 127.16 9.98538C126.945 10.0902 126.958 10.7091 126.523 10.2934C126.233 10.0168 126.104 9.09277 126.566 8.48433C126.868 8.08853 126.355 7.71002 126.209 7.45624Z" fill="#89C53F"></path><path fill-rule="evenodd" clip-rule="evenodd" d="M130.77 5.39297C131.295 5.06884 131.578 5.02678 132.19 5.2634C132.613 5.42546 132.737 5.10788 132.813 4.87231C132.897 4.61487 132.618 4.45084 132.414 4.37078C131.629 4.0608 131.09 4.14282 130.459 4.468C130.189 4.65116 129.921 4.89616 130.051 5.13264C130.17 5.34436 130.424 5.60758 130.77 5.39297Z" fill="#002F24"></path><path fill-rule="evenodd" clip-rule="evenodd" d="M123.115 12.3435C122.236 12.2586 122.131 11.9285 122.3 11.221C122.362 10.9635 121.964 10.8176 121.692 10.542C121.323 10.1711 121.593 9.32038 121.79 8.79212C121.964 8.32963 122.263 8.0731 122.779 7.95283C123.333 7.82601 123.351 7.5924 123.48 7.31203C123.733 6.75992 124.383 6.47758 124.953 6.12476C124.859 6.57873 124.885 7.08131 125.042 7.58952C125.164 7.98336 125.139 8.23425 124.955 8.59271C124.355 9.76099 124.614 10.9264 125.718 11.5471C126.604 12.0459 126.096 12.2481 125.643 12.5436C124.747 13.1264 123.958 12.4255 123.115 12.3435Z" fill="#89C53F"></path><path fill-rule="evenodd" clip-rule="evenodd" d="M140.158 10.0211C139.849 10.3377 139.888 10.8707 139.972 11.2026C140.114 11.7557 139.88 12.3107 139.164 12.3327C138.314 12.3593 137.523 13.1204 136.621 12.5338C136.165 12.2364 135.654 12.0332 136.546 11.5307C137.656 10.9061 137.918 9.73311 137.314 8.55815C137.129 8.19864 137.034 8.02898 137.227 7.54828C137.433 7.02854 137.479 6.51744 137.384 6.05875C137.368 6.0539 137.353 6.04342 137.338 6.03111C137.352 6.04251 137.368 6.05299 137.384 6.05875C137.841 5.84035 138.985 6.13697 139.009 6.731C139.033 7.30223 139.86 7.30603 140.496 8.75939C140.725 9.27913 140.525 9.64349 140.158 10.0211Z" fill="#89C53F"></path><path fill-rule="evenodd" clip-rule="evenodd" d="M140.661 10.5723C140.314 10.928 140.357 11.5258 140.452 11.8998C140.611 12.5205 140.348 13.1442 139.546 13.1691C138.591 13.1985 137.702 14.053 136.689 13.394C136.177 13.0603 135.603 12.8323 136.605 12.2678C137.85 11.5669 138.145 10.249 137.468 8.9291C137.259 8.5257 137.154 8.33507 137.369 7.7962C137.603 7.21265 137.652 6.63854 137.544 6.1226C137.528 6.11683 137.511 6.10543 137.493 6.09207C137.511 6.10452 137.528 6.115 137.544 6.1226C138.29 6.39629 138.988 7.00093 139.016 7.66846C139.044 8.31018 140.327 7.52356 141.042 9.1551C141.298 9.73878 141.074 10.1489 140.661 10.5723ZM136.111 15.411C134.836 17.0779 133.866 18.8641 133.736 21.0222C133.674 22.0359 133.472 22.2638 133.472 22.2638C133.016 22.6358 129.822 22.6453 129.374 22.2638C129.201 22.117 129.179 22.0359 129.118 21.0222C128.987 18.8641 128.017 17.0779 126.742 15.411C126.547 15.1564 126.167 14.855 126.477 14.5794C126.901 14.2019 127.272 14.7243 127.456 14.9628C128.499 16.3132 129.064 17.1457 129.717 19.4525C129.8 19.7462 129.999 19.9675 130.341 19.9169C130.816 19.8474 130.913 19.4754 130.893 19.0834C130.803 17.4737 130.717 15.863 130.579 14.2571C130.544 13.8346 130.383 13.4455 130.877 13.1929C131.062 13.0994 131.22 13.0164 131.426 13.0728C131.633 13.0164 131.792 13.0994 131.976 13.1929C132.47 13.4455 132.309 13.8346 132.274 14.2571C132.136 15.863 132.05 17.4737 131.96 19.0834C131.94 19.4754 132.039 19.8474 132.511 19.9169C132.854 19.9675 133.054 19.7462 133.136 19.4525C133.79 17.1457 134.354 16.3132 135.397 14.9628C135.582 14.7243 135.952 14.2019 136.376 14.5794C136.687 14.855 136.306 15.1564 136.111 15.411ZM123.307 13.1691C122.314 13.0728 122.194 12.6988 122.387 11.8998C122.458 11.6079 122.425 10.8222 122.117 10.5103C121.701 10.0898 121.588 9.75215 121.811 9.1551C122.007 8.63261 122.345 8.34267 122.929 8.20825C123.552 8.0623 123.574 7.79908 123.719 7.4815C124.005 6.85695 124.741 6.53936 125.384 6.14173C125.278 6.65479 125.307 7.22117 125.485 7.7962C125.622 8.24061 125.595 8.5257 125.386 8.9291C124.708 10.249 125.003 11.5669 126.248 12.2678C127.251 12.8323 126.676 13.0603 126.166 13.394C125.151 14.053 124.258 13.2605 123.307 13.1691ZM130.19 18.476C130.093 18.3949 129.026 15.1774 128.185 14.4593C127.496 13.8689 129.088 13.2167 129.432 13.7145C129.615 13.9797 130.198 18.3225 130.19 18.476ZM134.677 14.4593C133.836 15.1774 132.77 18.3949 132.673 18.476C132.665 18.3225 133.379 13.9481 133.397 13.8089C133.491 13.0927 135.367 13.8689 134.677 14.4593ZM126.737 7.83433C125.946 6.46494 127.252 4.93729 128.202 5.20326C128.63 5.32445 129.06 5.15373 129.172 4.92013C130.338 2.50261 133.502 3.14342 133.605 4.87624C133.627 5.25854 134.004 5.50184 134.416 5.30912C135.156 4.96677 135.801 5.42166 136.101 5.78025C136.687 6.47451 136.595 7.10771 136.007 7.79057C135.666 8.18244 135.812 8.93486 136.146 9.20764C136.418 9.42985 136.554 9.53571 136.627 9.877C136.722 10.31 136.62 10.7152 136.302 11.0195C135.824 11.4772 135.838 10.7954 135.603 10.682C134.988 10.3863 134.844 10.7219 134.666 11.2322C134.173 12.656 133.144 12.8849 132.215 11.7538C131.913 11.3867 130.94 11.3867 130.639 11.7538C129.711 12.8849 128.68 12.656 128.187 11.2322C128.009 10.7219 127.866 10.3863 127.251 10.682C127.015 10.7954 127.031 11.4772 126.552 11.0195C126.233 10.7152 126.092 9.70066 126.6 9.03313C126.93 8.59828 126.898 8.11287 126.737 7.83433ZM141.093 7.51019C140.015 7.05622 140.036 6.87411 139.734 6.27798C139.168 5.15845 137.849 4.79422 137.492 4.94869C137.421 4.93913 137.215 5.00778 137.045 5.08888C137.032 5.09648 137.027 5.11652 137.027 5.14613C137.026 5.11456 137.03 5.09556 137.045 5.08888C136.567 4.51293 135.797 4.12565 134.792 4.07127C134.299 4.04271 134.354 3.7757 134.145 3.48104C133.303 2.30137 130.525 1.36212 128.687 3.52585C128.452 3.80151 128.346 4.06656 127.852 4.09997C126.915 4.16285 126.222 4.57385 125.801 5.17181C125.799 5.17181 125.799 5.17089 125.799 5.17089C125.685 5.04119 124.078 4.64827 123.126 6.27798C122.789 6.85498 123.062 7.08766 121.76 7.51019C120.546 7.90298 120.248 9.57095 120.922 10.7335C121.178 11.1759 121.319 11.5298 121.229 12.0828C121.034 13.2749 121.67 14.0406 122.87 14.2915C123.595 14.445 124.468 14.4602 124.938 15.0105C126.509 16.8472 127.964 18.7783 127.913 21.3875C127.907 21.6908 127.903 21.7661 127.903 21.7833C127.905 21.7833 127.907 21.827 127.91 22.1827C127.916 23.0858 128.349 23.5683 129.285 23.5627C129.998 23.5589 130.711 23.5598 131.422 23.5617C132.134 23.5598 132.847 23.5589 133.559 23.5627C134.497 23.5683 134.928 23.0858 134.936 22.1827C134.941 21.354 134.957 22.2161 134.941 21.3875C134.89 18.7783 136.344 16.8472 137.915 15.0105C138.386 14.4602 139.258 14.445 139.983 14.2915C141.183 14.0406 141.818 13.2749 141.624 12.0828C141.534 11.5298 141.677 11.1759 141.931 10.7335C142.605 9.57095 142.271 8.00609 141.093 7.51019Z" fill="#002F24"></path><path fill-rule="evenodd" clip-rule="evenodd" d="M94.7449 11.3809C94.2119 11.4066 93.6791 11.399 93.1451 11.4057C92.7977 11.4095 92.3605 11.3752 92.3003 11.7939C92.2447 12.1944 92.4802 12.447 92.8533 12.4414C93.7316 12.4298 93.6131 12.9257 93.4704 13.4942C93.0169 15.3013 92.506 17.2477 91.0075 18.3748C89.2431 19.7014 88.6959 19.7299 90.2746 21.1166C89.7139 21.1166 87.8261 20.9154 85.6703 20.9154H81.4909C83.0706 19.5287 83.2428 19.2665 81.4784 17.94C79.9791 16.8129 79.0615 15.3013 78.6079 13.4942C78.4653 12.9257 78.3468 12.4298 79.2242 12.4414C79.6002 12.447 79.8355 12.1944 79.7772 11.7939C79.7198 11.3752 79.3868 11.3208 79.0395 11.317C78.5065 11.3094 77.9726 11.3179 77.4396 11.2913C77.1841 11.2798 76.9478 11.1806 76.9842 10.8507C77.01 10.6104 77.1928 10.5026 77.4062 10.4825C77.7315 10.4511 78.0606 10.4435 78.3869 10.4435C81.0613 10.4415 82.996 10.4415 85.6703 10.4397C88.3446 10.4415 91.018 10.4415 93.6914 10.4435C94.0196 10.4435 94.3488 10.4511 94.6742 10.4825C94.8847 10.5026 95.0693 10.6104 95.0951 10.8507C95.1315 11.1806 95.0014 11.3685 94.7449 11.3809Z" fill="#B21E41"></path><path fill-rule="evenodd" clip-rule="evenodd" d="M97.5325 3.63454C97.676 4.6693 97.211 5.69346 96.1872 6.19315C95.5088 6.52319 94.9012 6.87601 94.5185 7.52638C94.0755 8.27684 93.4343 8.39318 92.2756 8.31601C93.3635 7.26696 94.1807 5.63725 95.4466 5.18996C96.1499 4.943 96.3891 4.36128 96.2675 3.63938C96.189 3.16917 95.6265 2.76577 95.1126 2.60173C94.3912 2.37193 93.8583 2.88407 93.6544 3.58685C93.1292 5.395 91.4604 6.57179 90.1983 8.03747C89.8883 8.39698 88.7563 8.27592 88.3076 8.27592C89.384 7.12206 90.2892 6.13983 91.2107 5.17083C91.803 4.54811 92.133 3.85766 92.5704 3.04614C94.3424 -0.250491 97.323 2.14973 97.5325 3.63454Z" fill="#002F24"></path><path fill-rule="evenodd" clip-rule="evenodd" d="M94.5918 11.3188C94.0043 11.3464 93.414 11.3388 92.8236 11.3455C92.439 11.3502 92.0725 11.4113 92.0075 11.8738C91.9433 12.3173 92.2055 12.5967 92.6179 12.5909C93.5901 12.5767 93.458 13.1269 93.3001 13.7544C92.7998 15.7522 91.7845 17.424 90.1273 18.6704C88.1763 20.1361 88.3667 20.4269 90.112 21.9594H80.0566C81.8019 20.4269 81.9904 20.1361 80.0413 18.6704C78.384 17.424 77.3688 15.7522 76.8665 13.7544C76.7097 13.1269 76.5785 12.5767 77.5487 12.5909C77.9631 12.5967 78.2233 12.3173 78.1601 11.8738C78.0952 11.4113 77.7277 11.3502 77.344 11.3455C76.7535 11.3388 76.1632 11.3464 75.5748 11.3188C75.2926 11.3054 75.0313 11.1958 75.0716 10.8305C75.1002 10.5663 75.3021 10.4462 75.5375 10.4243C75.8963 10.389 76.2608 10.3804 76.6234 10.3804C79.5801 10.3795 81.7187 10.3785 84.6762 10.3766C87.6329 10.3785 90.5885 10.3795 93.5451 10.3804C93.9078 10.3804 94.2704 10.389 94.6311 10.4243C94.8646 10.4462 95.0683 10.5663 95.0961 10.8305C95.1372 11.1958 94.876 11.3054 94.5918 11.3188ZM94.6961 9.04813C91.2688 9.06726 87.9763 9.0653 84.6762 9.05966C81.3741 9.0653 78.8997 9.06726 75.4725 9.04813C73.4468 9.03673 73.0833 11.6841 74.6313 12.3391C75.1892 12.5747 75.4685 12.8952 75.5576 13.5065C75.9279 16.0335 77.1889 18.0648 79.1963 19.623C80.4297 20.5795 79.2174 21.065 78.2462 21.8383C77.6923 22.1568 78.0663 23.1124 78.8941 23.0751C79.1428 23.0704 81.5177 23.0704 84.6762 23.0724C87.8337 23.0704 91.0258 23.0704 91.2736 23.0751C92.1022 23.1124 92.4763 22.1568 91.9213 21.8383C90.9502 21.065 89.7378 20.5795 90.9703 19.623C92.9786 18.0648 94.2389 16.0335 94.6111 13.5065C94.7 12.8952 94.9785 12.5747 95.5353 12.3391C97.0844 11.6841 96.7208 9.03673 94.6961 9.04813Z" fill="#002F24"></path><path fill-rule="evenodd" clip-rule="evenodd" d="M90.1871 11.4172C90.0695 11.4163 86.8382 11.4192 86.5798 11.4154C86.1656 11.4096 85.9052 11.7158 85.9684 12.1591C86.0335 12.6227 86.4009 12.6827 86.7846 12.6875C86.9023 12.6884 90.1345 12.6856 90.3928 12.6894C90.8062 12.6951 91.0674 12.3889 91.0043 11.9456C90.9382 11.4831 90.5718 11.422 90.1871 11.4172Z" fill="#002F24"></path><path fill-rule="evenodd" clip-rule="evenodd" d="M86.6555 8.23618C86.4144 8.06652 86.112 8.02446 85.8441 7.8996C85.6833 7.82519 85.6135 7.60586 85.6593 7.44471C85.7044 7.28736 85.7494 7.13198 85.7943 6.97358C85.8201 6.88016 85.8699 6.81334 85.9302 6.76762L85.9493 6.75334C86.11 6.6332 86.3139 6.67316 86.4727 6.79526C86.7789 7.03371 86.9827 7.37698 87.2094 7.68408C87.4497 8.0073 86.9799 8.46324 86.6555 8.23618Z" fill="#002F24"></path><path fill-rule="evenodd" clip-rule="evenodd" d="M83.3609 7.6978C83.3102 7.59574 83.204 7.40891 83.2146 7.38795V7.38598C83.2337 7.32493 83.2404 7.26387 83.249 7.20007C83.2691 7.05032 83.1332 6.92441 83.0078 6.8834C82.9371 6.85864 82.8606 6.85576 82.7879 6.83283C82.6567 6.78999 82.4806 6.85864 82.4175 6.98455C82.3908 7.03407 82.363 7.09041 82.3334 7.1495C82.2338 7.16954 82.1535 7.22771 82.0903 7.31261C82.0319 7.38978 82.0233 7.49184 82.0272 7.58631C82.031 7.65587 82.0539 7.70933 82.0846 7.75702C82.0339 7.95721 82.0299 8.15845 82.1219 8.33297C82.295 8.66287 82.7141 8.56474 82.9667 8.41302C83.2097 8.271 83.5179 8.00962 83.3609 7.6978Z" fill="#002F24"></path><path fill-rule="evenodd" clip-rule="evenodd" d="M84.9656 8.11418C84.8326 7.96915 84.6049 7.93574 84.4184 7.93482C84.3016 7.9339 84.1734 8.01972 84.1486 8.13895C84.1342 8.2152 84.1189 8.2925 84.1035 8.37071C84.1026 8.37635 84.1006 8.38303 84.1006 8.38879L84.0997 8.39063C84.0873 8.48601 84.1131 8.57667 84.1753 8.64048V8.64244C84.1773 8.64336 84.1773 8.64441 84.1791 8.64532C84.3016 8.76258 84.4633 8.85036 84.6365 8.84368C84.7973 8.83608 84.9656 8.75302 85.0403 8.60432C85.1245 8.43452 85.0948 8.25332 84.9656 8.11418Z" fill="#002F24"></path><path fill-rule="evenodd" clip-rule="evenodd" d="M84.1768 8.59976C84.1088 8.53596 84.0848 8.44058 84.1021 8.35083C84.0887 8.44529 84.1155 8.53687 84.1768 8.59976Z" fill="#002F24"></path><path fill-rule="evenodd" clip-rule="evenodd" d="M80.7914 7.67705C80.6698 7.54643 80.4641 7.51695 80.2976 7.5159C80.1924 7.51407 80.0776 7.59228 80.0545 7.69906C80.0422 7.76863 80.0278 7.83833 80.0144 7.9079C80.0125 7.91367 80.0125 7.9193 80.0125 7.92506C80.0106 7.92598 80.0106 7.92703 80.0106 7.92703C79.9991 8.0118 80.023 8.09381 80.0785 8.15107L80.0794 8.15198C80.0794 8.15395 80.0814 8.15487 80.0814 8.15487C80.1924 8.25981 80.3369 8.33986 80.4938 8.33318C80.6402 8.32754 80.7914 8.25313 80.8565 8.1187C80.933 7.96607 80.9061 7.80204 80.7914 7.67705Z" fill="#002F24"></path><path fill-rule="evenodd" clip-rule="evenodd" d="M80.0809 8.15793C80.0196 8.09871 79.9966 8.01395 80.0129 7.93481C80.0013 8.01866 80.0244 8.10068 80.0809 8.15793Z" fill="#002F24"></path><path fill-rule="evenodd" clip-rule="evenodd" d="M40.7381 11.2769C40.0731 11.2406 37.7327 11.1958 37.7327 11.1958C37.7327 11.1958 29.1527 11.4771 28.6093 11.1158C28.0667 10.7552 28.1452 8.19855 29.8446 6.64797C29.9823 6.48865 30.1604 6.35423 30.347 6.22649C32.0702 4.8761 33.5131 4.89798 34.9446 4.87322C36.5032 4.84649 38.1681 5.41589 39.0062 6.1864C39.1574 6.30562 39.3221 6.46769 39.4675 6.63552C40.1507 7.34786 40.787 8.23667 40.9927 9.23895C41.2433 10.4654 41.1793 11.2997 40.7381 11.2769Z" fill="#D0C863"></path><path fill-rule="evenodd" clip-rule="evenodd" d="M30.3339 15.8701C30.7128 15.914 30.8849 16.1285 30.9414 16.4099C31.1768 17.6001 31.9203 18.4259 32.8589 19.1172C33.2025 19.3718 33.4809 19.6522 33.122 20.0756C32.8044 20.4504 32.4791 20.214 32.1881 20.0156C31.0485 19.2374 30.2438 18.2065 29.8927 16.8628C29.7789 16.4204 29.8276 16.0036 30.3339 15.8701Z" fill="#002F24"></path><path fill-rule="evenodd" clip-rule="evenodd" d="M40.7371 13.2272C39.9353 13.1815 40.1133 13.7545 40.0902 14.1885C40.0175 15.6581 39.6741 17.0542 39.1287 18.4255C38.278 20.573 36.3606 21.438 34.4335 22.0379C34.3532 22.0636 34.2689 22.0732 34.1789 22.0732C34.09 22.0732 34.0039 22.0636 33.9236 22.0379C31.9984 21.438 30.0809 20.573 29.2283 18.4255C28.6849 17.0542 28.3394 15.6581 28.2676 14.1885C28.2457 13.7545 28.4217 13.1815 27.6209 13.2272C26.7693 13.2768 27.1357 13.9043 27.1376 14.2819C27.1395 14.9066 27.2267 15.5398 27.3539 16.1529C27.9614 19.114 29.2044 21.5877 32.3667 22.5909C32.8432 22.7426 33.2508 23.0135 33.512 23.5388C33.8469 24.2112 34.6182 24.0929 34.8468 23.5388C35.0688 22.9952 35.5148 22.7426 35.9913 22.5909C39.1536 21.5877 40.3964 19.114 41.0041 16.1529C41.1304 15.5398 41.2193 14.9066 41.2213 14.2819C41.2231 13.9043 41.5896 13.2768 40.7371 13.2272Z" fill="#002F24"></path><path fill-rule="evenodd" clip-rule="evenodd" d="M40.703 11.2814C39.9759 11.2432 37.4211 11.1936 37.4211 11.1936C37.4211 11.1936 28.0518 11.4998 27.4586 11.1059C26.8662 10.712 26.9514 7.92172 28.8067 6.22807L28.8076 6.22715C28.957 6.05539 29.1512 5.90669 29.355 5.76742C31.238 4.29309 32.8129 4.31693 34.3765 4.29021C36.0777 4.26164 37.8957 4.88148 38.8114 5.72353C38.974 5.85428 39.1559 6.03063 39.3137 6.21471C40.0601 6.9919 40.7557 7.96273 40.9796 9.0575C41.2533 10.3964 41.1844 11.3071 40.703 11.2814ZM35.8768 3.35763C34.6961 3.24221 34.5286 2.8903 35.2271 1.90806C35.429 1.62586 35.7131 1.3988 35.9792 1.16808C36.2481 0.931599 36.4011 0.664588 36.1591 0.353686C35.9246 0.0532649 35.6031 0.104754 35.3084 0.28595C34.4932 0.786564 33.9525 1.53427 33.7784 2.44117C33.6339 3.186 33.2943 3.32619 32.5977 3.36431C28.6795 3.57787 25.6808 7.21882 26.1707 11.081C26.2759 11.9137 26.6357 12.3342 27.5475 12.3171C29.7195 12.2741 31.8935 12.3026 34.0655 12.3026V12.2922C36.2365 12.2922 38.4105 12.277 40.5816 12.2988C41.3594 12.3066 41.8512 12.09 41.9851 11.2337C42.5794 7.45543 39.7031 3.7305 35.8768 3.35763Z" fill="#002F24"></path><path fill-rule="evenodd" clip-rule="evenodd" d="M37.7464 7.231C37.9311 6.86297 38.2077 6.54159 38.6076 6.40716C38.8172 6.33655 39.6343 7.2006 39.6209 7.46656C39.4036 7.77078 39.2075 8.14654 38.8162 8.31725C38.6583 8.38682 37.6699 7.38363 37.7464 7.231Z" fill="#002F24"></path><path fill-rule="evenodd" clip-rule="evenodd" d="M34.4355 10.7207C35.2794 9.41894 35.5091 9.41894 36.3483 10.7207H34.4355Z" fill="#002F24"></path><path fill-rule="evenodd" clip-rule="evenodd" d="M38.1959 9.20832C37.9653 9.58316 37.7127 9.95983 37.3204 10.1839C37.1855 10.2612 36.045 9.14452 36.109 8.99097C36.2851 8.57329 36.6669 8.33195 36.9405 8.07451C37.195 8.06691 38.2734 9.0815 38.1959 9.20832Z" fill="#002F24"></path><path fill-rule="evenodd" clip-rule="evenodd" d="M38.2461 10.6773C38.2815 10.2596 38.5676 9.91999 38.8441 9.88671C39.2125 9.84282 39.4201 10.2634 39.7225 10.6773H38.2461Z" fill="#002F24"></path><path fill-rule="evenodd" clip-rule="evenodd" d="M40.13 8.35278C40.4774 8.86493 40.465 9.3789 40.4698 9.93389C39.3206 9.23963 39.3006 9.14805 40.13 8.35278Z" fill="#002F24"></path></svg>