<svg xmlns="http://www.w3.org/2000/svg" width="230" height="28"><g><title>background</title><rect fill="none" id="canvas_background" height="602" width="802" y="-1" x="-1"></rect></g><g><title>Layer 1</title><path stroke="null" id="svg_1" fill="#45842E" d="m0,17.55994c7.10012,0.03128 12.59824,2.48956 18.41602,5.09023c5.87995,2.62976 11.96087,5.34783 19.75313,5.34783c7.79165,0 13.87258,-2.71807 19.75313,-5.34783c5.85544,-2.61742 11.38617,-5.09065 18.55361,-5.09065c7.16704,0 12.69757,2.47324 18.55371,5.09065c5.87985,2.62976 11.96127,5.34783 19.75313,5.34783c7.79186,0 13.87227,-2.71807 19.75282,-5.34783c5.85544,-2.61742 11.38647,-5.09065 18.55361,-5.09065c7.16815,0 12.69817,2.47324 18.55361,5.09065c5.88055,2.62976 11.96097,5.34783 19.75282,5.34783c7.79286,0 13.87328,-2.71807 19.75383,-5.34783c5.85444,-2.61742 11.38647,-5.09065 18.55261,-5.09065c0.14965,0 0.2983,0.00115 0.44795,0.00345l0,-17.81492l-230.14944,0l0,17.81189l-0.00054,0z" clip-rule="evenodd" fill-rule="evenodd"></path></g></svg>