<svg xmlns="http://www.w3.org/2000/svg" width="111" height="31" viewBox="0 0 111 31" fill="none"><path fill-rule="evenodd" clip-rule="evenodd" d="M20.7559 7.67458H14.2126L10.3779 16.8348L6.54326 7.67458H0C2.37688 13.3523 4.75283 19.031 7.13065 24.7082L4.49668 31H11.0399C14.312 23.1836 17.5048 15.4403 20.7557 7.67473L20.7559 7.67458ZM103.958 0.0488477H111L104.632 15.4814H97.5904L103.958 0.0488477ZM99.3213 16.9697C101.514 16.9697 103.291 18.7525 103.291 20.9518C103.291 23.151 101.514 24.9338 99.3213 24.9338C97.1286 24.9338 95.3512 23.151 95.3512 20.9518C95.3512 18.7527 97.1286 16.9697 99.3213 16.9697ZM85.4755 7.2113C90.4063 7.2113 94.4033 11.2204 94.4033 16.1658C94.4033 21.1113 90.4062 25.1203 85.4755 25.1203C80.5448 25.1203 76.5478 21.1111 76.5478 16.1658C76.5478 11.2203 80.5449 7.2113 85.4755 7.2113ZM85.4755 12.6694C87.4008 12.6694 88.9616 14.2349 88.9616 16.1659C88.9616 18.097 87.4008 19.6625 85.4755 19.6625C83.5502 19.6625 81.9894 18.097 81.9894 16.1659C81.9894 14.2349 83.5502 12.6694 85.4755 12.6694ZM66.3089 7.2113C71.2397 7.2113 75.2367 11.2204 75.2367 16.1658C75.2367 21.1113 71.2395 25.1203 66.3089 25.1203C61.3781 25.1203 57.3811 21.1111 57.3811 16.1658C57.3811 11.2203 61.3783 7.2113 66.3089 7.2113ZM66.3089 12.6694C68.2342 12.6694 69.795 14.2349 69.795 16.1659C69.795 18.097 68.2342 19.6625 66.3089 19.6625C64.3836 19.6625 62.8228 18.097 62.8228 16.1659C62.8228 14.2349 64.3836 12.6694 66.3089 12.6694ZM39.9514 0.000156563H45.8551V9.20576C45.8551 9.20576 46.888 7.2113 50.3 7.2113C53.7119 7.2113 55.9002 8.71697 55.9439 14.8823V24.9338H50.0402V14.8823C50.0402 13.7231 49.1033 12.7834 47.9476 12.7834C46.7651 12.7834 45.8264 13.7585 45.8559 14.9418L45.8549 24.9338H39.9512V0L39.9514 0.000156563ZM31.9126 7.67458H37.8163V24.934H31.9126V23.3069C30.5904 24.4449 28.9428 25.1206 27.1561 25.1206C22.8023 25.1206 19.2728 21.1115 19.2728 16.1661C19.2728 11.2206 22.8023 7.21162 27.1561 7.21162C28.9428 7.21162 30.5906 7.88719 31.9126 9.02525V7.67489V7.67458ZM28.5872 12.6694C30.5125 12.6694 32.0733 14.2349 32.0733 16.1659C32.0733 18.097 30.5125 19.6625 28.5872 19.6625C26.6619 19.6625 25.1011 18.097 25.1011 16.1659C25.1011 14.2349 26.6619 12.6694 28.5872 12.6694Z" fill="white"></path></svg>